<?xml version="1.0" encoding="UTF-8" standalone="no"?>
<svg
   xmlns:dc="http://purl.org/dc/elements/1.1/"
   xmlns:cc="http://creativecommons.org/ns#"
   xmlns:rdf="http://www.w3.org/1999/02/22-rdf-syntax-ns#"
   xmlns:svg="http://www.w3.org/2000/svg"
   xmlns="http://www.w3.org/2000/svg"
   xmlns:sodipodi="http://sodipodi.sourceforge.net/DTD/sodipodi-0.dtd"
   xmlns:inkscape="http://www.inkscape.org/namespaces/inkscape"
   version="1.1"
   id="svg2"
   width="1366"
   height="768"
   viewBox="0 0 1366 768"
   sodipodi:docname="star01.svg"
   inkscape:version="1.0.2-2 (e86c870879, 2021-01-15)">
  <metadata
     id="metadata8">
    <rdf:RDF>
      <cc:Work
         rdf:about="">
        <dc:format>image/svg+xml</dc:format>
        <dc:type
           rdf:resource="http://purl.org/dc/dcmitype/StillImage" />
        <dc:title />
      </cc:Work>
    </rdf:RDF>
  </metadata>
  <defs
     id="defs6" />
  <sodipodi:namedview
     pagecolor="#808080"
     bordercolor="#666666"
     borderopacity="1"
     objecttolerance="10"
     gridtolerance="10"
     guidetolerance="10"
     inkscape:pageopacity="0"
     inkscape:pageshadow="2"
     inkscape:window-width="1920"
     inkscape:window-height="1009"
     id="namedview4"
     showgrid="false"
     inkscape:zoom="0.5445654"
     inkscape:cx="666.76872"
     inkscape:cy="523.86446"
     inkscape:window-x="-8"
     inkscape:window-y="-8"
     inkscape:window-maximized="1"
     inkscape:current-layer="g10"
     inkscape:document-rotation="0" />
  <g
     inkscape:groupmode="layer"
     inkscape:label="Image"
     id="g10">
    <path
       style="fill:#cfd2d8;fill-opacity:1;stroke-width:0.554189"
       d="m 783.2585,413.79961 c -0.68076,-2.7124 -0.16869,-3.39994 2.5322,-3.39994 2.48626,0 2.48626,0 2.48626,2.21676 0,2.84942 -4.34324,3.87341 -5.01846,1.18318 z M 662.22062,408.9097 c -3.02238,-3.24414 -0.49589,-8.76252 4.01172,-8.76252 4.31996,0 6.94681,6.22869 3.82024,9.05822 -1.5781,1.42817 -6.39539,1.24628 -7.83196,-0.2957 z m -530.7117,-10.6439 c -1.07218,-2.79405 0.002,-5.0422 2.49325,-5.22048 3.1028,-0.22199 4.31219,1.81117 3.04367,5.11687 -0.44177,1.15123 -5.10145,1.23842 -5.53692,0.10361 z m 216.78173,-2.31462 c -1.23824,-1.23824 -1.10686,-4.43503 0.23751,-5.7794 2.69324,-2.69324 6.65026,-0.922 6.65026,2.97679 0,3.54604 -4.36731,5.32308 -6.88777,2.80261 z m 291.29746,-3.11929 c -2.01531,-2.01531 -0.02,-5.98524 3.00852,-5.98524 2.17203,0 2.97671,0.8989 2.97671,3.32513 0,2.51773 -0.80739,3.32514 -3.32513,3.32514 -1.09729,0 -2.29434,-0.29927 -2.6601,-0.66503 z m -389.89676,-2.01101 c -3.75301,-4.14703 2.09306,-10.23039 6.71815,-6.99085 1.62852,1.14066 1.76842,5.68424 0.21823,7.08714 -1.4264,1.29087 -5.73515,1.23106 -6.93638,-0.0963 z m 358.69,-2.67881 c -3.61237,-0.96549 -2.29551,-7.3915 1.51465,-7.3915 3.18426,0 4.08858,0.79413 4.08858,3.5903 0,3.388 -2.02057,4.75875 -5.60323,3.8012 z M 350.052,384.63973 c -4.3322,-3.4077 0.74291,-9.30267 5.71704,-6.6406 1.329,0.71126 1.54206,5.55071 0.29011,6.58973 -1.56995,1.30295 -4.38509,1.32679 -6.00715,0.0509 z m 91.149,-5.86024 c -3.30771,-2.31681 -0.70418,-8.03736 3.29402,-7.23772 4.96018,0.99204 4.39296,8.10043 -0.64639,8.10043 -0.77877,0 -1.97021,-0.38822 -2.64763,-0.86271 z m 143.20001,-0.96051 c -0.71434,-0.52234 -0.92941,-1.30584 -0.79866,-2.90949 0.29665,-3.63834 5.63336,-3.41722 5.89533,0.24427 0.23215,3.24474 -2.41267,4.62781 -5.09667,2.66522 z M 113.9151,375.85779 c -2.73636,-3.02364 -0.37833,-8.40775 3.68225,-8.40775 3.84977,0 6.11952,6.39866 3.0359,8.55851 -1.72588,1.20885 -5.5657,1.12268 -6.71815,-0.15076 z m 527.77892,-1.20329 c -4.01914,-4.01915 1.82251,-10.19105 6.52696,-6.89594 1.62849,1.14065 1.76842,5.68424 0.21824,7.08714 -1.45763,1.31912 -5.34509,1.20892 -6.7452,-0.1912 z m 30.6109,0.55974 c -4.3843,-1.85152 -2.44852,-8.31839 2.49002,-8.31839 3.41325,0 4.02973,0.64243 4.02973,4.1994 0,3.86167 -2.85623,5.66614 -6.51975,4.11899 z M 286.25665,373.5059 c -3.6796,-2.89438 -1.24047,-9.38099 3.52749,-9.38099 3.31651,0 4.9877,1.69311 4.9877,5.05311 0,4.92125 -4.71456,7.31745 -8.51519,4.32788 z m 101.61891,0.78898 c -2.78765,-1.10012 -3.71058,-6.055 -1.62234,-8.70976 1.59548,-2.02834 6.34048,-2.13139 8.176,-0.17757 3.7999,4.04481 -1.29996,10.96065 -6.55366,8.88733 z m 90.09526,-3.2822 c -0.47898,-0.47897 -0.87087,-1.31351 -0.87087,-1.85451 0,-0.54101 -0.40318,-1.79185 -0.89595,-2.77964 -2.56871,-5.14909 3.0135,-10.1667 7.81246,-7.0223 1.48291,0.97164 2.13433,7.0181 0.84214,7.81672 -0.30481,0.18838 -0.56212,0.88891 -0.57182,1.55673 -0.0418,2.8834 -4.20921,4.38976 -6.31596,2.283 z m -303.87608,-3.64826 c -2.00817,-2.00817 -0.45228,-6.01593 2.33009,-6.00197 2.67409,0.0134 3.16345,0.61419 2.97103,3.64736 -0.18235,2.87448 -3.36681,4.28892 -5.30112,2.35461 z m 446.68353,-4.16026 c -3.52785,-0.74827 -4.17276,-7.78878 -0.87257,-9.52587 3.87755,-2.04101 7.9336,0.17236 7.9336,4.32937 0,4.22416 -2.60535,6.14156 -7.06103,5.1965 z M 204.7909,359.65118 c -3.61086,-2.84031 -1.26819,-8.24797 3.58015,-8.26413 3.37099,-0.0113 4.38085,1.10744 4.38085,4.85288 0,4.3763 -4.35938,6.24427 -7.961,3.41125 z m -26.95289,-3.8391 c 0,-2.28049 0,-2.28049 2.3553,-2.11008 2.28986,0.16569 2.3553,0.22431 2.3553,2.11008 0,1.88576 -0.0654,1.94439 -2.3553,2.11007 -2.3553,0.17042 -2.3553,0.17042 -2.3553,-2.11007 z m 495.55561,-0.66503 c -2.10946,-2.10947 -0.38688,-5.98524 2.66011,-5.98524 2.51773,0 3.32513,0.80741 3.32513,3.32514 0,2.51772 -0.8074,3.32513 -3.32513,3.32513 -1.0973,0 -2.29434,-0.29926 -2.66011,-0.66503 z m 99.48481,-0.78643 c -1.7386,-1.73855 -0.32192,-5.19881 2.12837,-5.19881 2.52422,0 2.52422,0 2.3553,2.6324 -0.16615,2.58948 -2.89736,4.15276 -4.48367,2.56641 z m -74.95946,-2.67977 c -1.46744,-1.46744 -1.7406,-3.53191 -0.72311,-5.46496 1.4491,-2.75309 6.30407,-3.021 7.8333,-0.43225 2.07854,3.51867 0.14159,7.25749 -3.75984,7.25749 -1.37395,0 -2.41117,-0.42111 -3.35035,-1.36028 z m 39.13576,-2.31668 c -1.57523,-2.00253 -1.56586,-5.74907 0.0177,-7.18237 1.81309,-1.64084 6.89561,-1.48622 8.30364,0.25259 2.90949,3.59308 0.50508,8.38999 -4.20541,8.38999 -2.54583,0 -3.13084,-0.20752 -4.11618,-1.46021 z m -346.01384,-1.31749 c -2.70157,-2.12505 -2.41035,-7.46214 0.479,-8.77862 5.36756,-2.44561 9.90312,2.37694 7.18285,7.63736 -1.32408,2.5605 -5.13579,3.12827 -7.66185,1.14126 z m 234.60327,-2.86869 c -3.04216,-3.26536 -0.93386,-7.65414 3.67693,-7.65414 3.46014,0 4.61429,1.08519 4.61429,4.3386 0,4.27646 -5.38854,6.43125 -8.29122,3.31554 z M 130.17777,326.17354 c 0,-4.44363 5.14908,-4.58493 5.43371,-0.14911 0.16891,2.6324 0.16891,2.6324 -2.6324,2.6324 -2.80131,0 -2.80131,0 -2.80131,-2.48329 z m 25.60416,-0.002 c -2.20624,-1.85642 -2.48821,-5.32453 -0.62544,-7.69266 1.59549,-2.02833 6.34049,-2.13139 8.17601,-0.17757 4.47149,4.75969 -2.54973,12.07816 -7.55057,7.87023 z m 18.93272,0.17436 c -5.46868,-2.64798 -1.11814,-10.91241 4.60002,-8.73837 2.04603,0.7779 2.38408,1.41287 2.39418,4.49717 0.013,3.98213 -3.33562,6.01271 -6.9942,4.2412 z m 593.33442,-3.78548 c 0,-0.3048 -0.4489,-0.55419 -0.99754,-0.55419 -1.53433,0 -2.3276,-1.13325 -2.3276,-3.32513 0,-3.59701 4.20303,-4.71242 7.34301,-1.94873 2.95482,2.60071 2.21603,6.38224 -1.24693,6.38224 -1.52402,0 -2.77094,-0.24938 -2.77094,-0.55419 z M 631.4811,321.68955 c -2.37376,-2.37377 -0.49284,-6.33358 3.00847,-6.33358 2.63722,0 3.87932,1.15338 3.87932,3.60222 0,2.44885 -1.2421,3.60223 -3.87932,3.60223 -1.20436,0 -2.51779,-0.38021 -3.00847,-0.87087 z m 32.4994,-4.03161 c -2.5343,-1.60801 -0.69861,-6.73548 2.41133,-6.73548 3.21075,0 5.12492,4.31529 2.9008,6.53942 -0.75265,0.75265 -4.23251,0.88109 -5.31213,0.19606 z m 89.35735,-7.54158 c -3.12923,-3.12925 -1.1311,-8.06092 3.266,-8.06092 3.31926,0 4.3327,0.92613 4.65225,4.25151 0.44701,4.65227 -4.63191,7.09571 -7.91825,3.80941 z M 86.335526,307.7847 c -2.221647,-0.59379 -2.891659,-5.79167 -0.96225,-7.46504 3.257453,-2.82518 7.673847,-0.78243 7.673847,3.54943 0,3.61747 -2.459169,5.05217 -6.711597,3.91561 z m 649.154954,1.1e-4 c -2.40868,-0.97191 -0.68304,-5.72904 2.0782,-5.72904 2.77095,0 2.77095,0 2.77095,2.71165 0,3.16252 -1.76604,4.26145 -4.84915,3.01739 z m 44.97225,-1.71966 c -1.89577,-1.26585 -2.28736,-5.23597 -0.70454,-7.14315 0.95442,-1.15002 5.65544,-0.964 6.7703,0.26791 3.33018,3.67983 -1.92708,9.6387 -6.06576,6.87524 z M 607.1163,298.45524 c -1.65664,-1.25406 -1.90807,-5.91137 -0.40051,-7.41892 1.70468,-1.70467 6.30445,-1.66857 7.51447,0.059 3.38121,4.8274 -2.46692,10.87774 -7.11396,7.35994 z m 117.15185,-5.54359 c 0,-2.55758 0,-2.55758 2.35531,-2.38717 2.34998,0.17003 2.3553,0.17541 2.3553,2.38717 0,2.21176 -0.006,2.21714 -2.3553,2.38717 -2.35531,0.17041 -2.35531,0.17041 -2.35531,-2.38717 z m -553.6346,-3.43563 c -2.40198,-0.8671 -3.53683,-4.88045 -2.13379,-7.54603 2.13848,-4.06277 9.33825,-2.3306 9.33825,2.24666 0,4.33354 -3.25252,6.72599 -7.20446,5.29937 z M 63.675117,286.53848 c -3.888787,-3.88879 1.915731,-10.25862 6.314118,-6.92906 1.739222,1.31659 1.919744,5.97916 0.276071,7.13044 -1.820855,1.27538 -5.217218,1.17159 -6.590189,-0.20138 z m 578.365833,0.25928 c -1.1505,-2.99817 -3.4e-4,-5.25192 2.6734,-5.23849 4.37599,0.0219 4.60005,5.69376 0.23609,5.97655 -1.96233,0.12717 -2.64376,-0.0457 -2.90949,-0.73806 z m 87.99187,-7.68255 c -1.15154,-3.00089 -0.007,-5.04598 2.82526,-5.04598 2.93471,0 4.30732,2.80261 2.46176,5.02638 -0.8611,1.03753 -4.89066,1.05247 -5.28702,0.0196 z m 56.65633,-17.55545 c -1.25274,-0.98537 -1.46023,-1.57033 -1.46023,-4.11619 0,-5.10357 5.53091,-7.37361 9.04043,-3.71045 4.67868,4.88349 -2.24009,12.02719 -7.5802,7.82664 z M 336.50379,258.1657 c -3.85559,-1.86281 -2.5863,-9.36231 1.72134,-10.17042 2.7283,-0.51184 5.94417,1.13409 6.54967,3.35221 1.45231,5.32031 -3.28628,9.22657 -8.27101,6.81821 z M 230.59263,245.38996 c 0.27893,-3.85521 4.88101,-4.01589 4.88101,-0.17041 0,2.52572 0,2.52572 -2.52571,2.52572 -2.52572,0 -2.52572,0 -2.3553,-2.35531 z m 544.44309,-7.38833 c -1.26199,-3.28873 0.11084,-5.77365 3.1898,-5.77365 2.64349,0 4.33276,4.11155 2.45905,5.98524 -1.01167,1.01166 -5.24024,0.85328 -5.64885,-0.21159 z M 334.39634,237.6547 c -5.14924,-2.95309 -2.01964,-11.28054 3.8272,-10.18367 3.37386,0.63294 4.20854,1.68455 4.20854,5.30234 0,4.75071 -4.01295,7.18839 -8.03574,4.88133 z m 123.98451,-1.85592 c -1.78828,-1.25255 -1.75778,-5.65431 0.0509,-7.35352 3.16202,-2.97056 7.58438,-0.81222 7.58438,3.70158 0,3.27278 -1.21956,4.51465 -4.43351,4.51465 -1.08358,0 -2.5244,-0.38822 -3.20182,-0.86271 z m 293.87384,-0.17535 c -2.86172,-0.60714 -2.7541,-4.48537 0.1601,-5.77114 4.45823,-1.96695 6.76726,-1.06179 6.76726,2.65278 0,3.49358 -1.65254,4.23747 -6.92736,3.11836 z m -341.52134,-4.03526 c -0.8806,-0.88061 -0.89755,-4.47309 -0.0252,-5.34543 1.27756,-1.27757 4.82901,-0.82219 5.52649,0.70861 1.60193,3.51586 -2.86078,7.27731 -5.50128,4.63682 z M 279.2785,224.3493 c -4.25664,-2.25133 -1.86003,-9.30117 3.16196,-9.30117 3.11564,0 4.57274,1.71151 4.57274,5.3712 0,3.96536 -3.91081,5.95243 -7.7347,3.92997 z m 175.76474,-3.87012 c -3.23165,-3.23166 1.31219,-8.18959 5.46748,-5.96575 2.95166,1.57968 1.02417,6.63077 -2.53028,6.63077 -1.2497,0 -2.57144,-0.29926 -2.9372,-0.66502 z m 311.70625,-4.22777 c -2.10325,-2.32407 -0.74178,-5.63679 2.31662,-5.63679 2.63024,0 3.41647,0.78624 3.41647,3.41647 0,3.09904 -3.65637,4.51508 -5.73309,2.22032 z m -19.64876,-0.75993 c -1.12312,-1.12313 -0.83827,-5.29934 0.40694,-5.96574 3.29111,-1.76135 6.13249,-0.35812 6.13249,3.02854 0,2.85856 -0.74367,3.60222 -3.60223,3.60222 -1.24969,0 -2.57143,-0.29926 -2.9372,-0.66502 z m -368.86212,-1.29245 c -2.04153,-2.04153 -1.35705,-7.2958 1.07185,-8.22786 5.46242,-2.09613 10.03016,3.80935 6.36361,8.22729 -0.96262,1.15988 -6.27574,1.16029 -7.43546,5.5e-4 z m 28.61792,-0.53382 c -2.8224,-2.02964 -1.27914,-6.37573 2.26396,-6.37573 2.88022,0 3.69615,0.7301 3.68508,3.29743 -0.0149,3.44599 -3.16851,5.07783 -5.94904,3.0783 z m 367.98135,-1.75506 c -2.40867,-0.97191 -0.68304,-5.72904 2.07821,-5.72904 2.77094,0 2.77094,0 2.77094,2.71165 0,3.16252 -1.76603,4.26145 -4.84915,3.01739 z M 41.086685,202.3093 c -0.818794,-1.31109 -0.927867,-7.21197 -0.133308,-7.21197 0.304804,0 0.554189,-0.37408 0.554189,-0.83128 0,-1.09355 3.21591,-1.08836 4.664173,0.008 1.673957,1.26667 1.924628,6.42711 0.386896,7.96484 -1.537236,1.53724 -4.531972,1.57603 -5.47195,0.0709 z m 711.445095,-6.65778 c 0,-2.70937 0.0371,-2.77094 1.66257,-2.77094 1.5254,0 1.66256,-0.15744 1.66256,-1.90824 0,-3.47783 5.99145,-5.27576 8.00432,-2.40196 2.35763,3.36602 0.36105,7.63533 -3.57081,7.63533 -1.84727,0 -2.21675,0.18473 -2.21675,1.10838 0,0.96059 -0.36948,1.10837 -2.77095,1.10837 -2.77094,0 -2.77094,0 -2.77094,-2.77094 z m -207.40515,-0.77146 c -1.1305,-0.85817 -1.29785,-3.99836 -0.32669,-6.12983 1.4945,-3.28007 7.66969,-1.15196 7.66969,2.64315 0,3.74722 -4.30621,5.79193 -7.343,3.48668 z m 21.19772,-3.3744 c 0,-2.73328 1.22405,-3.567 4.15641,-2.83102 3.1034,0.7789 1.92099,5.31431 -1.38547,5.31431 -2.77094,0 -2.77094,0 -2.77094,-2.48329 z m 167.16268,-5.86976 c -3.83166,-3.01399 -1.22603,-9.38099 3.83909,-9.38099 3.17084,0 4.67607,1.79501 4.67607,5.5764 0,3.25324 -1.71177,4.95319 -4.9877,4.95319 -1.25224,0 -2.64298,-0.45283 -3.52746,-1.1486 z M 379.67357,167.83124 c -3.29279,-3.29278 1.9512,-8.54705 5.98523,-5.99696 2.84255,1.79689 0.6039,6.63959 -3.07574,6.6535 -1.23446,0.004 -2.54373,-0.29077 -2.90949,-0.65654 z m 33.24738,-14.12787 c 0.18416,-2.88265 1.07261,-3.46072 4.13686,-2.69165 2.9388,0.7376 1.59504,4.97863 -1.64301,5.1855 -2.66406,0.17021 -2.66406,0.17021 -2.49385,-2.49385 z m 72.85482,-13.37582 c -2.19635,-2.42694 -0.47716,-6.19099 2.82765,-6.19099 2.21664,0 3.45963,1.27759 3.45963,3.55592 0,3.26422 -4.14554,5.00167 -6.28728,2.63507 z m 161.02926,-12.59558 c -2.70971,-1.89797 -0.99865,-6.34175 2.44187,-6.34175 2.2459,0 2.97671,0.90679 2.97671,3.69357 0,3.33118 -2.61727,4.6103 -5.41858,2.64818 z m -24.11259,-3.36053 c -2.03143,-2.0314 0.23459,-5.90237 3.30707,-5.64938 3.63016,0.29891 3.26894,5.64102 -0.39758,5.88029 -1.38298,0.0903 -2.69225,-0.0136 -2.90949,-0.23091 z m -113.03389,-3.5798 c -1.36317,-0.79397 -1.3338,-4.99633 0.0436,-6.24289 2.45071,-2.21784 6.7452,-0.33191 6.7452,2.96215 0,3.13183 -3.85006,4.99241 -6.78881,3.28074 z m 115.964,-6.05169 c 0,-2.77094 0,-2.77094 2.77094,-2.77094 2.77095,0 2.77095,0 2.77095,2.77094 0,2.77095 0,2.77095 -2.77095,2.77095 -2.77094,0 -2.77094,0 -2.77094,-2.77095 z m -52.85029,-0.0402 c -2.15924,-1.69845 -1.8993,-6.85145 0.42386,-8.40267 1.33468,-0.89118 5.84995,-0.44874 6.98295,0.68425 4.48942,4.48942 -2.3935,11.6619 -7.40681,7.71842 z m 29.71291,-0.88772 c -1.81087,-1.26318 -1.82107,-6.36572 -0.0155,-7.63056 2.41344,-1.69043 6.36685,-1.07323 7.55237,1.17907 2.55193,4.84822 -3.01029,9.60925 -7.53713,6.45149 z m -57.95891,-3.32084 c -0.46141,-0.4614 -0.48011,-2.57668 -0.0331,-3.74162 0.9182,-2.39275 5.20551,-1.06077 5.20551,1.61725 0,2.40405 -3.46829,3.82852 -5.17242,2.12439 z M 132.38568,100.30423 c -1.396,-4.229908 2.63304,-7.612322 5.86878,-4.926889 0.9005,0.74734 1.07279,4.159536 0.23614,4.676609 -0.3048,0.18838 -0.55419,0.82656 -0.55419,1.41818 0,2.43236 -4.68808,1.44597 -5.55073,-1.1679 z M 272.0501,99.531629 c 0,-2.525716 0,-2.525716 2.52572,-2.525716 3.84548,0 3.6848,4.602087 -0.17041,4.881017 -2.35531,0.17041 -2.35531,0.17041 -2.35531,-2.355301 z M 111.88954,98.956131 c 0,-2.733275 1.22405,-3.566997 4.15642,-2.831023 3.10339,0.778906 1.92098,5.314312 -1.38547,5.314312 -2.77095,0 -2.77095,0 -2.77095,-2.483289 z m 427.27956,2.118099 c -3.00761,-1.207073 -4.05867,-7.164664 -1.64879,-9.34558 1.90549,-1.724447 6.41066,-1.468173 8.06923,0.459013 3.7505,4.357908 -1.07221,11.033047 -6.42044,8.886567 z M 434.77925,99.736634 c -3.1209,-2.454901 -0.99276,-7.71842 3.1207,-7.71842 2.65015,0 4.28611,1.700467 4.28611,4.455102 0,4.063524 -4.09555,5.867954 -7.40681,3.263318 z M 241.36736,93.086369 c -3.701,-2.911204 -1.18183,-8.826798 3.75892,-8.826798 3.86022,0 4.75627,0.971294 4.75627,5.155652 0,4.536329 -4.78995,6.601413 -8.51519,3.671146 z m -23.03795,-3.218352 c -0.97076,-1.813882 -0.75784,-8.196326 0.2868,-8.597192 4.30233,-1.65096 6.0779,0.0984 5.43373,5.353514 -0.53295,4.347694 -4.0595,6.347335 -5.72053,3.243678 z m 335.61158,-0.525836 c -1.36672,-1.510215 -1.24731,-6.415039 0.19121,-7.853554 4.54967,-4.549679 11.73693,2.306264 8.00431,7.635331 -1.1603,1.656564 -6.75893,1.805635 -8.19552,0.218223 z M 91.065463,87.398003 c -1.113906,-2.902796 -0.02763,-5.078093 2.535849,-5.078093 3.836704,0 3.963713,5.435617 0.133476,5.712545 -1.672021,0.120891 -2.450472,-0.06413 -2.669325,-0.634452 z M 476.08818,81.314362 c -2.98914,-3.181795 -0.7131,-8.138567 3.73705,-8.138567 3.40233,0 4.75627,1.34094 4.75627,4.710605 0,4.521224 -5.41359,6.706186 -8.49332,3.427962 z m -99.06342,-2.788904 c -1.05704,-2.754603 -0.0414,-4.512915 2.70817,-4.688584 2.66406,-0.170205 2.66406,-0.170205 2.49385,2.493849 -0.17982,2.814592 -4.29751,4.551847 -5.20202,2.194735 z m 21.24184,-0.406354 c -1.44791,-0.843326 -1.37109,-5.797942 0.10211,-6.586376 4.41661,-2.363699 8.6316,1.944849 5.824,5.953267 -0.9425,1.345596 -4.12002,1.685063 -5.92611,0.633109 z m -55.72368,-2.837391 c -2.05758,-2.057584 -0.0846,-6.539428 2.87872,-6.539428 3.29921,0 5.25836,4.276739 2.99568,6.539428 -0.86139,0.861387 -5.01302,0.861387 -5.8744,0 z M 41.507566,59.656379 c 0,-0.48922 -0.249385,-0.889492 -0.554189,-0.889492 -0.304804,0 -0.554189,-1.122232 -0.554189,-2.49385 0,-1.371617 0.249385,-2.493849 0.554189,-2.493849 0.304804,0 0.554189,-0.356264 0.554189,-0.791698 0,-1.464306 9.750007,-1.102928 10.802983,0.400405 2.002897,2.859536 0.41447,5.681142 -3.453644,6.134885 -1.451304,0.170243 -3.698621,0.470084 -4.994037,0.666313 -1.940839,0.293996 -2.355302,0.200255 -2.355302,-0.532714 z m 61.277444,-5.639682 c -2.52184,-2.521843 -0.56347,-7.441963 2.96215,-7.441963 2.71148,0 3.92563,1.332153 3.92563,4.307175 0,3.516348 -4.47125,5.551317 -6.88778,3.134788 z m 60.29167,-11.41527 c -3.24261,-1.570101 -3.13398,-7.764129 0.16251,-9.266113 4.00527,-1.82492 7.94855,0.602772 7.94855,4.893537 0,3.978677 -4.22296,6.255226 -8.11106,4.372576 z M 63.142517,41.482536 c -3.941777,-4.231002 2.21449,-10.701372 6.767224,-7.1125 1.909255,1.505045 2.210084,5.870144 0.510551,7.4082 -1.551888,1.40444 -5.856808,1.229529 -7.277775,-0.2957 z m 30.274065,-1.927527 c -0.770951,-0.770951 -0.380365,-4.495471 0.507149,-4.836043 3.379639,-1.296888 5.625783,0.949257 4.328893,4.328893 -0.340572,0.887514 -4.065092,1.278101 -4.836042,0.50715 z M 215.27838,31.316917 c -1.0407,-0.787148 -1.03168,-0.813935 0.27709,-0.822145 1.07686,-0.0068 1.18327,-0.11808 0.52157,-0.545702 -0.59735,-0.386039 -0.0515,-0.537217 1.93966,-0.537217 1.99117,0 2.53701,0.151178 1.93966,0.537217 -0.6617,0.427622 -0.5553,0.538947 0.52156,0.545702 1.30877,0.0082 1.31779,0.035 0.27709,0.822145 -1.38021,1.043941 -4.09642,1.043941 -5.47663,0 z"
       id="path857" />
  </g>
</svg>
