<?xml version="1.0" encoding="UTF-8" standalone="no"?>
<svg
   xmlns:dc="http://purl.org/dc/elements/1.1/"
   xmlns:cc="http://creativecommons.org/ns#"
   xmlns:rdf="http://www.w3.org/1999/02/22-rdf-syntax-ns#"
   xmlns:svg="http://www.w3.org/2000/svg"
   xmlns="http://www.w3.org/2000/svg"
   xmlns:sodipodi="http://sodipodi.sourceforge.net/DTD/sodipodi-0.dtd"
   xmlns:inkscape="http://www.inkscape.org/namespaces/inkscape"
   version="1.1"
   id="svg2"
   width="1366"
   height="768"
   viewBox="0 0 1366 768"
   sodipodi:docname="star08.svg"
   inkscape:version="1.0.2-2 (e86c870879, 2021-01-15)">
  <metadata
     id="metadata8">
    <rdf:RDF>
      <cc:Work
         rdf:about="">
        <dc:format>image/svg+xml</dc:format>
        <dc:type
           rdf:resource="http://purl.org/dc/dcmitype/StillImage" />
        <dc:title />
      </cc:Work>
    </rdf:RDF>
  </metadata>
  <defs
     id="defs6" />
  <sodipodi:namedview
     pagecolor="#808080"
     bordercolor="#666666"
     borderopacity="1"
     objecttolerance="10"
     gridtolerance="10"
     guidetolerance="10"
     inkscape:pageopacity="0"
     inkscape:pageshadow="2"
     inkscape:window-width="1920"
     inkscape:window-height="1009"
     id="namedview4"
     showgrid="false"
     inkscape:zoom="0.38506588"
     inkscape:cx="734.78168"
     inkscape:cy="482.16072"
     inkscape:window-x="-8"
     inkscape:window-y="-8"
     inkscape:window-maximized="1"
     inkscape:current-layer="g10"
     inkscape:document-rotation="0" />
  <g
     inkscape:groupmode="layer"
     inkscape:label="Image"
     id="g10">
    <path
       style="fill:#cfd2d8;fill-opacity:1;stroke-width:0.890868"
       d="m 1217.5764,730.11481 c -1.7681,-2.0084 -1.3166,-3.94637 1.5982,-6.86139 2.4397,-2.43968 3.0852,-2.65193 6.4358,-2.11607 2.0477,0.32749 4.4354,1.23973 5.3059,2.02741 1.9054,1.72437 2.0616,5.25808 0.3097,7.01 -1.7319,1.73193 -12.1121,1.68634 -13.6496,-0.0602 z m -63.3005,-12.69859 0.2716,-4.23156 4.2316,-0.27162 4.2319,-0.27142 v 4.50318 4.50319 h -4.5031 -4.5032 z m -758.08345,2.31242 c -0.61036,-0.61036 -1.10955,-2.20843 -1.10955,-3.55156 0,-1.34294 -0.40121,-2.68957 -0.8909,-2.99242 -0.49007,-0.30285 -0.89109,-2.30194 -0.89109,-4.44227 0,-3.18429 0.44545,-4.24185 2.44978,-5.81857 2.59799,-2.04352 7.13086,-2.01441 9.63302,0.0621 1.84446,1.53094 2.51418,6.56086 1.19704,8.99123 -0.62568,1.15398 -1.36874,3.50132 -1.65142,5.21618 -0.47746,2.89774 -0.76498,3.13676 -4.07073,3.38141 -1.99482,0.14745 -4.04396,-0.22408 -4.66615,-0.84647 z m 91.71876,-8.05843 c -1.66384,-1.66384 -1.31171,-7.34389 0.5601,-9.0378 1.94593,-1.76122 6.22445,-1.88074 8.3931,-0.23436 1.82487,1.38524 2.15352,7.60852 0.49007,9.27216 -0.58804,0.58785 -2.71285,1.069 -4.72164,1.069 -2.00878,0 -4.13359,-0.48115 -4.72163,-1.069 z m 631.15489,-0.7514 c -2.8415,-2.23501 -3.8927,-7.00069 -2.36,-10.70066 1.4328,-3.45922 3.2959,-4.40541 8.6744,-4.40541 5.6974,0 8.2319,2.43891 8.2319,7.92107 0,7.59707 -8.6137,11.85173 -14.5463,7.185 z M 389.90961,687.175 l 0.27336,-4.27988 4.20285,-0.27025 c 3.82007,-0.24582 4.25252,-0.0718 4.75055,1.91372 0.30149,1.20131 0.41499,3.12706 0.25182,4.27929 -0.26288,1.85746 -0.83288,2.12578 -5.02449,2.36616 l -4.72784,0.27103 z m 84.86532,-1.56683 c -3.23474,-3.23474 -3.0479,-8.67034 0.41732,-12.13576 3.52304,-3.52285 9.42,-3.69881 12.54299,-0.37425 2.76252,2.94043 3.05431,10.02667 0.52771,12.82023 -2.58132,2.85448 -10.50549,2.67211 -13.48802,-0.31022 z m -114.23777,-8.10868 c -1.477,-1.03446 -1.97988,-2.27962 -1.97988,-4.89993 0,-4.51114 2.42203,-7.07635 6.68134,-7.07635 1.93022,0 3.79679,0.67884 4.89974,1.78179 1.10315,1.10296 1.7818,2.96953 1.7818,4.89975 0,5.79723 -6.40915,8.7784 -11.383,5.29474 z m 511.60527,-16.60421 c -2.49673,-1.41589 -3.08865,-2.52272 -3.10417,-5.805 0,-1.80856 0.70309,-3.52866 1.93583,-4.67721 1.0725,-0.99896 1.4514,-1.81632 0.84201,-1.81632 -0.76557,0 -1.02379,-1.30667 -0.83599,-4.23157 l 0.27161,-4.23176 h 4.4543 4.45429 l 0.28015,3.40294 c 0.15327,1.87163 -0.15133,3.9231 -0.67904,4.55887 -0.70251,0.84647 -0.59852,1.45547 0.38783,2.27419 0.82222,0.68214 1.3474,2.61856 1.3474,4.96745 0,2.96778 -0.4534,4.16677 -1.98007,5.23596 -2.31804,1.62387 -4.8815,1.73582 -7.37415,0.32245 z m -471.42856,-1.72961 c -4.33556,-2.20047 -4.90032,-10.00028 -0.96152,-13.28566 2.95323,-2.46354 8.7493,-2.29592 11.21091,0.3242 2.50138,2.66279 2.57064,8.24235 0.13775,11.16163 -1.99909,2.39894 -7.37202,3.33 -10.38734,1.79983 z m 385.68261,-8.46527 c -1.5581,-0.65827 -1.43238,-7.85724 0.15909,-9.17903 0.70077,-0.58164 2.79803,-0.93125 4.66092,-0.77721 2.77474,0.22952 3.54127,0.72289 4.24301,2.73012 0.54789,1.56761 0.54789,3.33214 -3.9e-4,4.89974 -0.72366,2.06932 -1.40755,2.47674 -4.40365,2.62341 -1.95078,0.0951 -4.04804,-0.0388 -4.66033,-0.29703 z m 168.15121,-3.88545 c -1.1027,-1.10295 -1.7816,-2.96953 -1.7816,-4.89974 0,-4.2247 2.5699,-6.68151 6.9889,-6.68151 4.2876,0 6.3742,2.13706 6.3742,6.52902 0,4.2564 -2.5204,6.83403 -6.6816,6.83403 -1.9304,0 -3.7969,-0.67885 -4.8999,-1.7818 z m -141.41032,-8.87849 c -3.79699,-3.53757 -3.69144,-10.31089 0.19964,-12.86109 3.09427,-2.02751 8.58769,-1.83055 10.97518,0.3935 2.85273,2.65771 2.72643,9.06905 -0.23708,12.0325 -2.7825,2.78241 -8.18842,2.99737 -10.93871,0.43509 z m 143.39542,-19.83432 c -2.4455,-1.17859 -3.264,-3.99602 -2.5997,-8.94886 0.6129,-4.56928 2.4434,-5.99083 7.7137,-5.99083 6.3493,0 8.0458,1.69648 8.0458,8.04545 0,4.93683 -0.1669,5.3582 -2.6285,6.63101 -3.0227,1.56309 -7.5967,1.67742 -10.5313,0.26323 z M 852.25322,558.33891 c -2.5751,-2.74104 -2.61933,-8.41174 -0.0912,-11.62642 1.52706,-1.94162 2.57084,-2.34732 6.03781,-2.34732 6.42835,0 8.15136,1.67618 8.15136,7.93025 0,6.5477 -1.48166,8.10538 -7.70999,8.10538 -3.50131,0 -4.86521,-0.44013 -6.38858,-2.06189 z m -49.153,-15.96786 c -1.68226,-0.87987 -2.2965,-2.00207 -2.50952,-4.58664 -0.15715,-1.88195 -1.05756,-4.25344 -2.00452,-5.26997 -4.59922,-4.93668 -0.11447,-14.01437 6.89553,-13.95611 6.4138,0.0534 7.95734,2.76619 8.16009,14.345 0.10088,5.64484 -0.19751,7.96788 -1.11479,8.72907 -1.95951,1.62612 -6.97818,2.01934 -9.42679,0.73865 z m -28.51453,-6.92141 c -1.68556,-1.6855 -1.91993,-2.64663 -1.50338,-6.16506 0.41207,-3.47719 0.20895,-4.34622 -1.22518,-5.2418 -1.23158,-0.76919 -1.71894,-2.0816 -1.71894,-4.62946 0,-4.68767 2.38711,-7.11942 6.98885,-7.11942 4.52317,0 6.37422,2.0973 6.37422,7.22186 0,2.86103 0.49551,4.3878 1.7816,5.48905 2.08717,1.78714 2.43639,7.43394 0.61405,9.9264 -0.70931,0.9698 -2.76757,1.77733 -5.2412,2.05614 -3.39752,0.38294 -4.40443,0.12786 -6.07002,-1.53771 z m -57.89977,-4.44748 v -4.45435 h 3.99215 c 3.5149,0 4.05851,0.26603 4.55072,2.22717 0.30751,1.22494 0.30751,3.22938 0,4.45435 -0.49221,1.96112 -1.03582,2.22716 -4.55072,2.22716 h -3.99215 z m 29.5971,-15.64071 c -1.44654,-1.01313 -1.98007,-2.28543 -1.98007,-4.7216 0,-4.27439 1.26825,-5.47287 5.79064,-5.47287 4.42092,0 5.79064,1.2011 5.79064,5.07794 0,5.44153 -5.1894,8.20686 -9.60121,5.11653 z m 193.31809,-4.45435 c -1.6291,-1.14123 -1.98007,-2.23658 -1.98007,-6.18557 0,-5.60932 1.85571,-7.57237 7.15744,-7.57237 5.71827,0 8.36521,4.53672 6.56361,11.24998 -0.97552,3.63523 -7.99191,5.13397 -11.74098,2.50796 z m -236.07999,-8.01781 c -1.53423,-1.0747 -1.97968,-2.26631 -1.97968,-5.29471 0,-4.37641 2.15138,-6.68151 6.23589,-6.68151 4.05153,0 6.23609,2.30995 6.23609,6.59398 0,2.56963 -0.53353,4.30298 -1.62911,5.29469 -2.05128,1.85623 -6.27819,1.89798 -8.86299,0.0875 z m 144.12241,-4.53647 c -4.658,-1.83827 -5.97766,-9.56089 -2.2674,-13.27086 3.01143,-3.01155 9.13945,-3.07577 11.91167,-0.12455 2.50158,2.66274 2.57084,8.24233 0.13775,11.16147 -1.7558,2.1069 -7.04433,3.31477 -9.7826,2.23415 z m 48.9976,-12.39073 v -4.06012 l 3.78651,0.27394 c 3.76749,0.27263 3.78747,0.29236 4.06006,4.06012 l 0.27394,3.7862 h -4.06006 -4.06045 z m -20.29158,-8.90796 c -2.39662,-1.67868 -2.71072,-6.9729 -0.59309,-9.99625 1.81206,-2.58703 8.28251,-2.80314 10.5018,-0.35081 2.03478,2.24857 1.94263,8.36132 -0.15327,10.25948 -2.05399,1.8587 -7.15997,1.90453 -9.75389,0.0877 z m 40.51681,-4.64982 c -0.78769,-0.87027 -1.69993,-3.25802 -2.02742,-5.30613 -0.53585,-3.35033 -0.32341,-3.99583 2.11627,-6.43551 3.57484,-3.57486 8.96252,-3.80589 12.24324,-0.525 2.81898,2.81875 2.97671,8.1502 0.3403,11.50162 -1.5777,2.00557 -2.5301,2.3473 -6.5434,2.3473 -3.36822,0 -5.10229,-0.44761 -6.12899,-1.58228 z m -328.24245,-16.8359 c -1.6066,-1.12072 -2.00452,-2.24786 -2.00452,-5.67925 0,-3.60901 0.38453,-4.58347 2.44958,-6.20786 1.83049,-1.43995 3.20933,-1.8036 5.45558,-1.43908 5.4971,0.89205 7.49851,4.6516 5.81567,10.9231 -0.98286,3.66187 -7.88285,5.07714 -11.71631,2.40309 z m 463.22659,-41.7659 c -1.0888,-0.76278 -1.9801,-2.16588 -1.9801,-3.11805 0,-1.33658 -0.6202,-1.73123 -2.7212,-1.73123 -2.6909,0 -2.7183,-0.0477 -2.45,-4.23161 l 0.2717,-4.23164 4.8995,-0.72855 c 8.0194,-1.19243 11.2026,-1.06091 13.6847,0.56544 2.0952,1.37286 2.3513,2.10488 2.3513,6.72709 0,3.89329 -0.4065,5.55425 -1.6293,6.66097 -2.1212,1.91954 -9.7343,1.97317 -12.4266,0.0875 z m 15.9036,-34.61386 c -2.0945,-2.52373 -2.1331,-7.04913 -0.082,-9.65659 2.3594,-2.99941 7.7552,-3.43671 10.1225,-0.82046 1.7382,1.92059 2.0096,9.06065 0.4055,10.66481 -1.5024,1.50244 -9.1579,1.36483 -10.4461,-0.1878 z M 859.6396,350.24471 c -5.77085,-2.48417 -6.27799,-12.60291 -0.758,-15.11795 3.16257,-1.44098 8.06522,-1.2414 10.61956,0.43233 1.9112,1.25211 2.19601,2.10093 2.19601,6.5434 0,3.9046 -0.40276,5.46905 -1.71272,6.65457 -1.9859,1.79718 -7.7129,2.62075 -10.34485,1.48765 z M 475.26093,337.68378 c 0,-4.15738 0.14745,-4.45433 2.22705,-4.45433 1.65685,0 2.22724,-0.47123 2.22724,-1.84031 0,-3.61498 1.64386,-5.28665 5.19833,-5.28665 4.19354,0 5.49205,1.26388 5.49205,5.34521 0,3.85464 -1.29172,5.34522 -4.63239,5.34522 -2.17777,0 -2.49459,0.33937 -2.49459,2.6726 0,2.57361 -0.14939,2.67261 -4.00885,2.67261 h -4.00884 z m 293.15018,2.29303 c -0.5799,-0.69876 -0.92989,-3.00388 -0.77721,-5.1225 0.27065,-3.76443 0.35446,-3.85839 3.68,-4.13223 1.87143,-0.15405 3.97625,0.19564 4.67682,0.77722 1.54743,1.2841 1.68712,7.19702 0.20604,8.67892 -1.47429,1.47426 -6.50227,1.34414 -7.78507,-0.20148 z m -172.3174,-4.13941 c -3.04054,-2.39159 -3.29023,-8.29599 -0.50094,-11.84193 1.57751,-2.00554 2.5301,-2.34731 6.5434,-2.34731 6.20524,0 7.64577,1.56136 7.64577,8.2878 0,4.66844 -0.19013,5.12703 -2.62826,6.38864 -3.68582,1.90592 -8.27475,1.70378 -11.05997,-0.4872 z m -154.10232,-6.90971 c -2.07533,-2.29295 -1.97891,-9.21937 0.15327,-11.15038 2.49479,-2.25764 9.41515,-1.97644 11.69924,0.47537 2.30407,2.47327 2.34655,7.58892 0.0854,10.2997 -2.20202,2.63932 -9.67764,2.8743 -11.93923,0.37531 z m 654.71531,-0.37531 c -1.443,-1.27917 -2.4666,-3.36023 -2.8298,-5.75155 -0.5103,-3.36057 -0.2893,-4.02685 2.1428,-6.45881 2.2005,-2.20041 3.4511,-2.71167 6.6338,-2.71167 5.5033,0 7.796,2.55231 7.796,8.6787 0,3.85975 -0.3582,4.83685 -2.347,6.40141 -3.2087,2.5238 -8.4528,2.45107 -11.3958,-0.15832 z m -416.54621,-1.81534 c -1.69915,-0.85516 -2.29476,-1.94089 -2.51186,-4.57898 -0.56496,-6.86013 1.6844,-9.41858 8.2796,-9.41858 6.09815,0 9.03954,8.43643 4.51774,12.95805 -2.45036,2.45037 -6.6408,2.8739 -10.28548,1.03951 z m 361.91111,-15.02607 c -1.5091,-1.50914 -1.4037,-6.52709 0.1649,-7.82857 0.7009,-0.5816 2.8054,-0.93135 4.6772,-0.77724 l 3.4027,0.28021 v 4.45435 4.45435 l -3.5674,0.26321 c -2.0034,0.14784 -4.0539,-0.22321 -4.677,-0.84631 z m -273.7152,-9.35809 c -3.28596,-1.31877 -4.45429,-3.28505 -4.45429,-7.49595 0,-5.56194 0.57272,-6.85151 3.77971,-8.50986 3.3139,-1.71375 8.30599,-0.96301 11.14204,1.67554 2.77241,2.57922 2.77164,8.581 -0.002,11.80468 -2.02683,2.35666 -7.56002,3.69187 -10.4663,2.52559 z M 534.94891,272.65042 v -3.56345 h 4.00903 4.00885 v 3.56345 3.56347 h -4.00885 -4.00903 z m -342.78569,-2.27768 c -2.64126,-1.84993 -2.75378,-7.639 -0.19769,-10.19447 2.32929,-2.32912 8.05901,-2.41561 10.10698,-0.15249 2.03498,2.24852 1.94283,8.36128 -0.15326,10.25946 -2.0538,1.85866 -7.15978,1.90448 -9.7537,0.0875 z m 777.01187,-11.39677 c -0.2745,-0.7154 -0.3707,-2.64173 -0.2134,-4.28081 0.2819,-2.94417 0.3392,-2.98012 4.7397,-2.98012 h 4.4545 v 4.0089 4.00888 l -4.2409,0.27191 c -3.0836,0.19773 -4.3769,-0.083 -4.7399,-1.02876 z M 128.71307,246.81526 v -3.56349 h 3.56368 3.56336 v 3.56349 3.56345 h -3.56336 -3.56368 z m 95.32301,-1.33631 v -4.00892 h 4.00904 4.00864 v 4.00892 4.0089 h -4.00864 -4.00904 z m 853.86612,3.2068 c -2.725,-1.17293 -3.8379,-2.90707 -4.4921,-6.99812 -0.5318,-3.32575 -0.3158,-3.9791 2.1196,-6.41459 2.2014,-2.2015 3.4369,-2.7061 6.5665,-2.68205 5.8106,0.0448 7.8634,2.18947 7.8634,8.21562 0,3.64505 -0.4231,5.22465 -1.7125,6.39147 -1.9859,1.7972 -7.7129,2.62079 -10.3449,1.48767 z m 25.1132,-1.71794 c -1.8652,-2.06104 -1.9058,-6.72086 -0.074,-8.55219 1.5907,-1.59059 6.7747,-1.85552 9.3492,-0.47771 2.3169,1.24002 2.3772,7.11851 0.093,9.1847 -2.2017,1.99253 -7.5046,1.90489 -9.3686,-0.15482 z m -103.92421,-6.38864 v -4.45433 h 4.45431 4.4543 v 4.45433 4.45433 h -4.4543 -4.45431 z m -475.15782,0.8262 c -1.7882,-1.40648 -2.34734,-2.63995 -2.34734,-5.17722 0,-4.77344 2.56327,-7.23025 7.54333,-7.23025 5.16088,0 6.71064,1.6369 6.71064,7.0881 0,3.57476 -0.36552,4.52765 -2.19601,5.72702 -3.00387,1.96838 -6.89805,1.80492 -9.71062,-0.40765 z m 432.75422,-1.17796 c -0.2621,-0.68344 -0.3499,-2.78811 -0.1953,-4.67703 0.277,-3.37276 0.3525,-3.43948 4.2024,-3.71498 4.3145,-0.30865 5.3978,0.57885 5.4201,4.43928 0.023,4.36019 -0.7803,5.19535 -5.0095,5.19535 -2.5497,0 -4.11,-0.43879 -4.4184,-1.24262 z m 336.08251,-2.16828 c -2.3035,-2.54525 -1.9908,-9.4892 0.5058,-11.2379 2.6228,-1.83714 6.004,-1.75919 7.4703,0.17209 0.6509,0.85747 1.1835,3.36304 1.1835,5.56795 0,2.20488 -0.5326,4.71045 -1.1835,5.56792 -1.5503,2.04221 -6.1004,2.00221 -7.9761,-0.07 z m -215.2827,-10.82601 c 0,-3.9902 0.2245,-4.49368 2.2273,-4.99636 1.225,-0.30743 3.2293,-0.30743 4.4543,0 2.0029,0.50268 2.2272,1.00616 2.2272,4.99636 v 4.43737 h -4.4543 -4.4545 z m -973.66255,2.41978 c -2.42267,-1.22792 -4.052466,-5.93533 -3.21295,-9.28029 0.95694,-3.81274 3.64975,-5.62862 8.347,-5.62862 5.62301,0 8.17293,2.46262 8.17293,7.89303 0,6.82868 -6.70332,10.36287 -13.30698,7.01588 z m 194.71871,-0.71967 c -1.95989,-1.54168 -2.34695,-2.56012 -2.34695,-6.1714 0,-3.61132 0.38706,-4.62972 2.34695,-6.17144 2.94935,-2.31979 8.08443,-2.3745 10.79321,-0.11505 1.59011,1.32655 2.00432,2.59602 2.00432,6.14176 0,3.76751 -0.36862,4.75966 -2.34714,6.31604 -1.29114,1.01551 -3.64255,1.84638 -5.22529,1.84638 -1.58255,0 -3.93396,-0.83087 -5.2251,-1.84638 z m -110.36493,-3.57018 c -2.04332,-1.1901 -2.15216,-8.11677 -0.15909,-10.11 1.5905,-1.59059 6.77466,-1.85552 9.34899,-0.47771 2.12675,1.13811 2.43988,8.28785 0.45069,10.27729 -1.46284,1.46274 -7.33749,1.65192 -9.64059,0.31042 z M 457.64185,212.4663 c -1.53676,-1.07614 -1.98007,-2.26577 -1.98007,-5.3105 0,-4.94989 2.45831,-7.55656 7.12678,-7.55656 4.425,0 7.12718,2.64025 7.12718,6.96341 0,5.05092 -2.00723,7.29048 -6.53389,7.29048 -2.06815,0 -4.65121,-0.62405 -5.74,-1.38683 z m -67.68161,-10.78445 c -0.65498,-0.26428 -1.11362,-2.06986 -1.11362,-4.384 v -3.93468 h 4.00904 4.00884 v 3.91359 c 0,2.74686 -0.42022,4.07481 -1.40929,4.45435 -1.61921,0.62143 -3.88313,0.60112 -5.49497,-0.0493 z m 818.26206,-2.5009 c -2.1093,-2.90098 -1.9787,-7.71642 0.2874,-10.59742 1.5449,-1.9639 2.5578,-2.3473 6.2013,-2.3473 3.3329,0 4.7816,0.45759 6.1715,1.94971 2.1764,2.33626 2.3724,6.86315 0.4573,10.56666 -1.2683,2.45245 -1.7005,2.6265 -6.4588,2.60038 -4.3433,-0.0239 -5.3309,-0.34588 -6.6587,-2.17203 z m -40.9799,-11.23436 c -1.8311,-1.06646 -2.1657,-6.98336 -0.4899,-8.65913 0.5881,-0.58798 2.5125,-1.06905 4.276,-1.06905 1.7642,0 3.6884,0.48107 4.2764,1.06905 1.5248,1.52483 1.3218,6.5687 -0.331,8.22142 -1.5815,1.58156 -5.3968,1.79753 -7.7315,0.43771 z M 392.41021,175.84963 c -3.41284,-1.36969 -4.45449,-3.25317 -4.45449,-8.05476 0,-6.37372 2.53495,-9.17558 8.30133,-9.17558 5.44724,0 8.62514,3.14472 8.62514,8.53507 0,5.16568 -2.73788,8.37112 -7.5736,8.86659 -1.95912,0.20085 -4.16366,0.12358 -4.89838,-0.17132 z m -256.87739,-7.27821 c -1.48869,-1.64484 -1.87673,-5.24438 -0.94144,-8.72994 0.98358,-3.66476 7.54591,-5.06323 11.52507,-2.456 1.82147,1.19355 2.19577,2.15693 2.19577,5.65256 0,5.3901 -1.80177,7.16255 -7.28155,7.16255 -2.76645,0 -4.48411,-0.50897 -5.49785,-1.62917 z M 1145.1937,147.48346 v -4.00892 h 4.0088 4.0089 v 4.00892 4.00891 h -4.0089 -4.0088 z m 81.6345,-5.85532 c -2.0207,-1.58949 -2.3476,-2.51913 -2.3476,-6.68149 0,-6.54123 1.8373,-8.39859 8.3081,-8.39859 6.1135,0 8.6186,2.30246 8.6186,7.92105 0,7.62121 -8.6143,11.85116 -14.5791,7.15903 z M 177.52415,132.73283 c -2.29515,-1.33803 -2.99223,-6.61577 -1.22887,-9.30673 1.15553,-1.76356 2.20144,-2.22323 5.05825,-2.22323 5.66686,0 7.04783,1.16509 7.04783,5.94647 0,2.86199 -0.47126,4.45984 -1.55888,5.28555 -1.83592,1.39363 -7.14755,1.56345 -9.31833,0.29794 z m 656.27051,-9.2623 c -2.69306,-2.69307 -2.9123,-7.41034 -0.48367,-10.40951 2.21677,-2.73775 8.73708,-2.96662 11.56653,-0.40605 3.31002,2.99564 1.94826,11.40434 -2.01965,12.46913 -3.9163,1.05103 -6.90348,0.50602 -9.06321,-1.65357 z m -685.86287,-11.6841 c -2.0083,-2.00835 -2.6749,-5.5155 -1.52743,-8.03432 1.88784,-4.143596 7.8257,-5.011966 11.19974,-1.63795 1.79207,1.79209 1.79828,6.54037 0.0213,9.09091 -1.68518,2.40587 -7.50996,2.75556 -9.68422,0.58136 z M 810.22701,99.376614 v -4.00892 h 4.00904 4.00884 v 4.00892 4.008856 h -4.00884 -4.00904 z m -294.84583,-1.27776 c -1.30957,-2.44734 -1.14136,-5.894527 0.34844,-7.13086 0.69864,-0.579918 3.00387,-0.92968 5.12247,-0.777227 3.5017,0.251943 3.87866,0.509589 4.14426,2.834671 0.15909,1.406656 0.0524,3.511326 -0.2396,4.677056 -0.46078,1.83453 -1.06473,2.11953 -4.49271,2.11953 -3.00406,0 -4.18345,-0.41621 -4.88286,-1.72317 z m 100.81495,0.65413 c -0.58805,-0.58799 -1.069,-2.51224 -1.069,-4.276151 0,-4.081345 1.29851,-5.345228 5.49206,-5.345228 3.7477,0 5.19832,1.674312 5.19832,5.999339 0,3.39854 -1.47274,4.69108 -5.345,4.69108 -1.76414,0 -3.68833,-0.48105 -4.27638,-1.06904 z m -375.45689,-3.36968 c -4.40017,-3.461243 -3.93454,-12.009956 0.77099,-14.153949 3.16257,-1.440976 8.06522,-1.241378 10.61937,0.432333 1.91702,1.256064 2.19601,2.096325 2.19601,6.616852 0,4.532885 -0.29257,5.408145 -2.34733,7.024464 -3.03414,2.38667 -8.25943,2.42399 -11.23904,0.0803 z m 543.99962,-0.39626 c -0.26813,-0.699333 -0.35582,-2.202703 -0.19537,-3.340769 0.24659,-1.741091 0.89342,-2.112661 4.07927,-2.343184 l 3.78631,-0.273924 v 3.614691 3.614706 h -3.59153 c -2.28913,0 -3.76827,-0.46102 -4.07946,-1.27152 z m 130.809,-0.11544 c -1.57731,-1.104754 -1.98007,-2.254364 -1.98007,-5.652559 0,-5.294901 1.81904,-7.214482 6.83655,-7.214482 4.26144,0 6.37344,1.930834 7.11592,6.505567 0.42275,2.604866 0.10865,3.567683 -1.77927,5.455698 -2.66357,2.663536 -7.11845,3.059436 -10.19313,0.905776 z M 661.07042,88.622443 c -1.60563,-1.605633 -1.82331,-5.053125 -0.47766,-7.56731 0.66119,-1.235208 1.87201,-1.723184 4.27619,-1.723184 4.19335,0 5.49206,1.263883 5.49206,5.345209 0,1.763906 -0.48115,3.688182 -1.069,4.27617 -1.52492,1.524847 -6.56882,1.321834 -8.22159,-0.330885 z m -98.32618,-3.232587 c -0.58805,-0.587969 -1.06919,-2.712696 -1.06919,-4.72158 0,-4.595202 1.19549,-5.790657 5.79063,-5.790657 4.59534,0 5.79064,1.195455 5.79064,5.790657 0,4.595202 -1.1953,5.790637 -5.79064,5.790637 -2.00898,0 -4.13359,-0.481069 -4.72144,-1.069057 z M 705.30292,72.599914 c -1.6293,-1.14121 -1.97988,-2.236556 -1.97988,-6.185547 0,-3.948971 0.35058,-5.044336 1.97988,-6.185546 2.81005,-1.968239 9.8216,-1.822886 11.6905,0.242319 2.10773,2.328982 2.00801,10.08394 -0.15327,12.041236 -2.08988,1.89143 -8.88646,1.943037 -11.53568,0.0875 z M 519.18321,70.247825 c -1.92304,-0.928982 -3.83346,-4.843885 -3.83346,-7.855164 0,-0.840765 0.83095,-2.58496 1.84679,-3.875965 1.54161,-1.96009 2.55978,-2.347297 6.17226,-2.347297 5.62087,0 7.12582,1.50496 7.12582,7.125916 0,3.612402 -0.38706,4.630628 -2.34715,6.172451 -2.5361,1.994837 -5.85272,2.283448 -8.96426,0.780059 z M 412.90007,66.414367 v -4.111339 l 3.78631,0.273924 c 3.77758,0.273342 3.78593,0.281975 3.78593,3.837415 0,3.55544 0,3.564093 -3.78593,3.837416 l -3.78631,0.273923 z"
       id="path852-5-6" />
  </g>
</svg>
