<?xml version="1.0" encoding="UTF-8" standalone="no"?>
<svg
   xmlns:dc="http://purl.org/dc/elements/1.1/"
   xmlns:cc="http://creativecommons.org/ns#"
   xmlns:rdf="http://www.w3.org/1999/02/22-rdf-syntax-ns#"
   xmlns:svg="http://www.w3.org/2000/svg"
   xmlns="http://www.w3.org/2000/svg"
   xmlns:sodipodi="http://sodipodi.sourceforge.net/DTD/sodipodi-0.dtd"
   xmlns:inkscape="http://www.inkscape.org/namespaces/inkscape"
   version="1.1"
   id="svg2"
   width="1366"
   height="768"
   viewBox="0 0 1366 768"
   sodipodi:docname="star03.svg"
   inkscape:version="1.0.2-2 (e86c870879, 2021-01-15)">
  <metadata
     id="metadata8">
    <rdf:RDF>
      <cc:Work
         rdf:about="">
        <dc:format>image/svg+xml</dc:format>
        <dc:type
           rdf:resource="http://purl.org/dc/dcmitype/StillImage" />
        <dc:title />
      </cc:Work>
    </rdf:RDF>
  </metadata>
  <defs
     id="defs6" />
  <sodipodi:namedview
     pagecolor="#808080"
     bordercolor="#666666"
     borderopacity="1"
     objecttolerance="10"
     gridtolerance="10"
     guidetolerance="10"
     inkscape:pageopacity="0"
     inkscape:pageshadow="2"
     inkscape:window-width="1920"
     inkscape:window-height="1009"
     id="namedview4"
     showgrid="false"
     inkscape:zoom="0.54456539"
     inkscape:cx="701.94405"
     inkscape:cy="383.41442"
     inkscape:window-x="-8"
     inkscape:window-y="-8"
     inkscape:window-maximized="1"
     inkscape:current-layer="g10"
     inkscape:document-rotation="0" />
  <g
     inkscape:groupmode="layer"
     inkscape:label="Image"
     id="g10">
    <path
       style="fill:#cfd2d8;fill-opacity:1;stroke-width:0.543436"
       d="m 652.08325,743.24678 c -1.59819,-2.2819 -1.15073,-7.61624 0.7324,-8.72861 5.11445,-3.02108 9.37832,1.5425 7.08271,7.58036 -1.04815,2.75688 -6.16193,3.50828 -7.81511,1.14825 z m -83.13773,-3.99366 c -3.34919,-3.34918 1.62909,-8.65204 5.54642,-5.90819 1.63789,1.14723 1.74405,5.35003 0.15739,6.1996 -1.57038,0.84046 -4.73285,0.67885 -5.70312,-0.29141 z m -351.7424,-4.01545 c -4.37769,-1.85711 -2.6532,-8.7165 2.1914,-8.7165 3.24073,0 4.24897,0.91169 4.55745,4.12122 0.37231,3.87574 -3.01244,6.18039 -6.74885,4.59528 z M 115.42448,722.6809 c -2.61398,-1.09241 -3.2781,-6.7475 -0.98132,-8.35625 3.72567,-2.60955 8.03062,-0.53623 8.03062,3.86768 0,4.00668 -3.25031,6.07626 -7.0493,4.48857 z m 403.33533,-2.44006 c -2.10337,-1.47333 -1.75181,-6.43777 0.55826,-7.88298 4.96413,-3.10538 10.47809,2.73489 6.88948,7.29708 -1.33794,1.70102 -5.3995,2.02055 -7.44774,0.5859 z m 176.49599,-1.5995 c 0,-2.50795 0,-2.50795 2.30958,-2.34084 2.30423,0.16678 2.30956,0.172 2.30956,2.34084 0,2.16885 0,2.17413 -2.30956,2.34086 -2.30958,0.16712 -2.30958,0.16712 -2.30958,-2.34086 z m -478.08822,-7.06216 c -1.80041,-1.29471 -1.72254,-4.81262 0.13336,-6.0287 1.61019,-1.055 4.88143,-0.65944 5.38439,0.65107 1.64902,4.29748 -2.03161,7.88466 -5.51775,5.37763 z m 43.8729,-5.57256 c -2.43141,-3.09102 -0.37395,-7.20069 3.60499,-7.20069 2.96285,0 4.55627,1.52027 4.55627,4.34749 0,4.24959 -5.53952,6.18621 -8.16126,2.8532 z m 440.73647,-1.76634 c -2.88836,-2.88845 -0.72165,-7.60811 3.49283,-7.60811 2.77243,0 4.65866,1.76039 4.65866,4.34748 0,3.83598 -5.41141,6.00061 -8.15149,3.26063 z M 58.021255,702.93343 c -1.01964,-2.65702 -0.015,-4.39465 2.63667,-4.56486 2.58135,-0.16557 2.58135,-0.16557 2.58135,2.58132 0,2.80495 -4.27861,4.43143 -5.21802,1.98354 z m 646.608895,-31.1224 c -2.03517,-1.41954 -1.78335,-6.3804 0.38055,-7.49937 3.64711,-1.88607 7.09887,0.0154 7.08338,3.90127 -0.0174,3.98534 -4.09225,5.9502 -7.46393,3.5981 z m 13.57094,-10.26132 c -3.26406,-2.28616 -1.013,-7.84902 3.17621,-7.84902 2.65698,0 3.7674,1.32505 3.7674,4.49533 0,2.88757 -1.27323,4.19967 -4.07579,4.19967 -0.91303,0 -2.20381,-0.38071 -2.86782,-0.84598 z M 71.390782,653.3426 c -3.171097,-1.2727 -3.964997,-6.73308 -1.285347,-8.84089 3.672767,-2.88897 8.369517,-0.42611 8.337977,4.3722 -0.0221,3.40459 -3.77671,5.78342 -7.05263,4.46869 z m 597.114278,-8.07027 c -5.01654,-2.81334 -2.57477,-10.62621 3.0838,-9.86724 6.18024,0.82894 6.38266,9.59216 0.24117,10.44239 -1.09425,0.15156 -2.44623,-0.0824 -3.32497,-0.57515 z m 25.83519,-16.03007 c -3.88973,-1.56719 -2.6503,-7.60432 1.56127,-7.60432 3.45487,0 4.24509,0.70597 4.24509,3.79236 0,3.75022 -2.26656,5.23821 -5.80636,3.81196 z M 642.5637,603.60207 c -3.00004,-3.21993 0.58189,-9.39362 4.56354,-7.86576 0.54288,0.20833 0.83498,-0.14882 0.95218,-1.16413 0.31554,-2.73426 5.54448,-2.18084 5.7744,0.61118 0.18954,2.30405 -0.59187,3.63026 -2.13949,3.63026 -0.8038,0 -1.02035,0.40364 -1.02035,1.90203 0,3.84296 -5.44008,5.77426 -8.13028,2.88642 z m -194.21556,-8.49943 c -2.58791,-2.85965 0.064,-8.78806 3.92916,-8.78806 2.88053,0 4.72829,5.16632 2.93399,8.20356 -1.15613,1.95756 -5.30109,2.31054 -6.86315,0.5845 z m 68.66045,-6.61432 c 0,-2.17374 0,-2.17374 2.19083,-2.17374 2.41746,0 3.03888,0.75017 2.47674,2.99013 -0.66712,2.65745 -4.66757,1.95774 -4.66757,-0.81639 z M 39.436644,576.42403 c -0.843517,-0.84367 -0.843517,-4.37332 0,-5.21698 2.068599,-2.06855 5.869216,-0.37939 5.869216,2.60849 0,2.46888 -0.791795,3.26061 -3.260563,3.26061 -1.076086,0 -2.24997,-0.29345 -2.608653,-0.65212 z M 600.8636,568.91877 c -1.46974,-0.59192 -2.21358,-3.86719 -1.37995,-6.07576 0.55138,-1.46036 0.50615,-1.52651 -1.04245,-1.52651 -3.31838,0 -4.76006,-2.63797 -3.39142,-6.20508 0.40281,-1.04936 5.08133,-1.20894 6.08279,-0.20747 0.7756,0.77558 0.87351,4.88698 0.13337,5.62649 -0.32863,0.3286 0.37821,0.44687 1.93193,0.32328 3.28963,-0.26161 4.56413,0.87749 4.56413,4.07935 0,3.87373 -2.94813,5.57691 -6.89888,3.9857 z m -101.43257,-2.07482 c -1.44883,-1.60113 -1.20322,-5.81637 0.43468,-7.45417 4.35018,-4.35018 11.14251,2.15864 7.32164,7.01609 -1.43615,1.8257 -6.25411,2.09783 -7.75632,0.43808 z m -141.83048,-8.06349 c -0.77076,-0.77083 -0.37743,-4.94989 0.49735,-5.28564 3.30464,-1.26812 5.50118,0.44671 4.87164,3.80315 -0.33851,1.80428 -4.02844,2.82314 -5.36899,1.48249 z m -39.73057,-16.06171 c -2.12061,-3.02754 -0.35856,-7.48719 2.95809,-7.48719 1.53978,0 1.63044,-0.12079 1.63044,-2.17374 0,-2.17375 0,-2.17375 2.44536,-2.17375 2.44535,0 2.44535,0 2.44535,2.44547 0,2.09726 -0.15738,2.44545 -1.10597,2.44545 -0.92495,0 -1.01385,0.17198 -0.54335,1.05117 1.97331,3.68712 0.0242,7.10038 -4.05661,7.10038 -2.40893,0 -3.07703,-0.21387 -3.77331,-1.20779 z M 46.392684,534.95983 c 0,-2.44546 0,-2.44546 2.445475,-2.44546 2.445463,0 2.445463,0 2.445463,2.44546 0,2.44548 0,2.44548 -2.445463,2.44548 -2.445475,0 -2.445475,0 -2.445475,-2.44548 z m 321.214676,-1.22271 c -1.89552,-1.5492 -2.09378,-4.65652 -0.40484,-6.34547 2.95509,-2.95503 7.42566,-1.16684 7.42566,2.97016 0,3.83538 -4.0661,5.79023 -7.02082,3.37531 z M 30.153112,532.57789 c -2.828767,-2.82872 -0.770707,-7.67162 3.260173,-7.67162 3.479875,0 5.612752,4.45004 3.481579,7.26395 -1.214756,1.60394 -5.298538,1.85089 -6.741752,0.40767 z M 559.6992,531.30657 c -3.02453,-4.31807 2.25002,-9.6386 6.35477,-6.40995 1.76389,1.38762 2.13165,5.27229 0.6401,6.76379 -1.38094,1.38114 -5.94129,1.15047 -6.99487,-0.35384 z m 46.84041,-2.8093 c -1.33406,-1.01283 -1.30597,-5.27489 0.0426,-6.49568 3.79558,-3.43494 10.12225,2.98349 6.50573,6.60004 -0.87236,0.87224 -5.35618,0.80077 -6.54855,-0.10437 z m -326.46924,-5.22131 c -3.67346,-3.67334 1.55904,-9.22901 5.85682,-6.21871 2.94522,2.06284 0.88709,7.30557 -2.86802,7.30557 -1.17726,0 -2.31587,-0.41404 -2.9888,-1.08686 z m 285.42493,0.24091 c -1.67236,-1.17132 -1.74994,-6.21992 -0.12141,-7.84901 4.43066,-4.43063 11.48412,2.29755 7.84911,7.48717 -1.04863,1.49721 -5.79029,1.7192 -7.72823,0.36184 z m -255.69207,-0.0346 c -1.99189,-1.99198 0.23003,-5.78784 3.24296,-5.53976 3.55974,0.29312 3.20556,5.53157 -0.38993,5.76621 -1.35606,0.0885 -2.63984,-0.0137 -2.85303,-0.22645 z M 55.475565,514.78784 c -1.85792,-1.85798 -0.27685,-5.64108 2.35771,-5.64108 2.74552,0 2.74552,0 2.58134,2.85305 -0.16037,2.78402 -3.21738,4.50973 -4.93905,2.78803 z m 231.903755,-5.28503 c -0.77443,-3.08556 -0.20775,-3.88837 2.74454,-3.88837 2.71722,0 2.71722,0 2.71722,2.44545 0,3.01622 -4.75173,4.27157 -5.46176,1.44292 z m -24.34297,-1.89328 c -1.26588,-1.39872 -1.20718,-5.62388 0.0938,-6.8018 3.98407,-3.60557 9.80651,1.90339 6.82353,6.45611 -1.13028,1.72495 -5.4733,1.94198 -6.91796,0.34569 z m -36.11408,-16.50486 c -1.1479,-1.14789 -0.80175,-4.61582 0.55565,-5.56657 3.73913,-2.61905 7.2736,0.80789 5.52705,5.3591 -0.40263,1.04937 -5.08132,1.20897 -6.0827,0.20747 z m 47.81622,-0.99935 c -1.41669,-1.31985 -1.57873,-4.07209 -0.34346,-5.8357 1.04273,-1.48846 5.09479,-1.71068 6.45171,-0.35383 2.38608,2.38612 0.21773,7.29759 -3.22193,7.29759 -0.95662,0 -2.21582,-0.48339 -2.88632,-1.10806 z m -79.22998,-11.67418 c -1.11875,-1.70737 -0.72524,-5.60732 0.66877,-6.62655 4.14011,-3.02733 9.41534,1.6895 7.03583,6.29105 -1.22296,2.36476 -6.23204,2.5829 -7.7046,0.3355 z m 354.37237,-6.2555 c -0.19274,-0.60738 -0.94277,-1.69673 -1.66675,-2.42078 -4.37372,-4.37362 2.07043,-10.93255 6.75185,-6.87229 1.18171,1.02494 1.72786,7.22446 0.8401,9.53779 -0.53695,1.39979 -5.46786,1.19614 -5.9252,-0.24472 z m 91.05036,-1.03369 c -2.03062,-3.79431 2.75772,-7.61996 5.60259,-4.47628 2.1977,2.42837 0.72146,5.52744 -2.63287,5.52744 -1.82376,0 -2.54357,-0.2548 -2.96972,-1.05116 z M 241.595,469.91067 c -0.69047,-0.69053 -0.87554,-3.56752 -0.32223,-5.00952 0.23729,-0.61815 1.06046,-0.85959 2.93089,-0.85959 2.85117,0 3.26047,0.43533 3.26047,3.46809 0,2.26279 -0.84407,3.05313 -3.26047,3.05313 -1.07605,0 -2.24991,-0.29344 -2.60866,-0.65211 z M 64.492285,464.90371 c -3.70462,-3.18659 -1.18303,-9.01377 3.90053,-9.01377 3.155517,0 4.628337,1.73993 4.628337,5.4682 0,4.54057 -4.970067,6.6067 -8.528867,3.54557 z m 144.602075,-2.71838 c -0.89552,-2.33388 0,-3.84545 2.36708,-4.01707 2.30977,-0.1671 2.30977,-0.1671 2.30977,2.3096 0,2.57939 -3.80876,3.96988 -4.67685,1.70747 z m 463.54266,-10.06155 c -2.2221,-0.95344 -2.30968,-9.23714 -0.10951,-10.41428 1.80331,-0.96514 4.96248,-0.38143 5.67106,1.04783 0.34587,0.69765 0.9018,1.54136 1.23527,1.87485 3.52498,3.52507 -1.95683,9.56803 -6.79621,7.4916 z m -34.32122,-3.60107 c -2.99907,-2.10065 -1.04969,-7.30558 2.73621,-7.30558 2.61824,0 3.66417,1.1633 3.66417,4.07578 0,3.78551 -3.25904,5.43009 -6.40038,3.2298 z m 75.9602,-3.50153 c 0,-2.17374 0,-2.17374 2.17368,-2.17374 2.17387,0 2.17387,0 2.17387,2.17374 0,2.17376 0,2.17376 -2.17387,2.17376 -2.17368,0 -2.17368,0 -2.17368,-2.17376 z m -15.62384,1.2704 c -1.04931,-0.42344 -0.89482,-5.41885 0.18025,-5.83147 3.04324,-1.16777 5.11832,0.0204 5.11832,2.93076 0,2.87776 -2.27248,4.12178 -5.29857,2.90071 z M 115.7965,444.14044 c -0.63362,-0.63353 -0.43981,-4.28386 0.26471,-4.98844 2.39916,-2.39911 5.6571,-0.22359 5.23231,3.49385 -0.17792,1.55654 -4.31125,2.68036 -5.49702,1.49459 z m 27.35937,-8.04809 c -0.35476,-0.42748 -0.56813,-1.71135 -0.47408,-2.85304 0.23031,-2.7973 5.15405,-3.28448 6.09692,-0.60326 1.16689,3.31799 -3.40517,6.12839 -5.62284,3.4563 z m -45.324248,-0.76001 c -3.92896,-4.34152 2.287668,-10.79126 7.131328,-7.39866 1.61202,1.12913 1.75391,6.09942 0.21395,7.49307 -1.42066,1.28572 -6.151278,1.22491 -7.345278,-0.0942 z m 15.216278,0 c -1.2685,-1.40166 -1.22579,-6.15049 0.0659,-7.31937 4.6917,-4.24586 11.74574,2.48845 7.50966,7.16924 -1.3921,1.53828 -6.23244,1.63421 -7.5755,0.15013 z m 617.29029,-0.75744 c -1.94686,-2.77948 -0.53532,-5.85687 2.68632,-5.85687 2.30599,0 3.53235,1.21051 3.53235,3.48693 0,3.34649 -4.36857,5.01135 -6.21867,2.36994 z m -623.17396,-8.05039 c -2.17232,-1.26756 -1.88739,-7.00664 0.39962,-8.04867 5.32463,-2.426 9.88758,3.37148 6.17471,7.84521 -0.73251,0.8826 -5.17489,1.02009 -6.57433,0.20346 z m -19.905138,-1.17579 c -0.93599,-0.93601 -0.80465,-4.55201 0.20184,-5.55858 1.0066,-1.00656 4.62262,-1.13786 5.55861,-0.20185 1.00147,1.0015 0.84185,5.68001 -0.20746,6.08269 -1.46277,0.5613 -4.86699,0.36376 -5.55299,-0.32226 z m 57.514728,-2.02933 c -1.49184,-2.78757 -0.3204,-4.92666 2.69805,-4.92666 2.39896,0 3.26066,0.7898 3.26066,2.9889 0,2.98111 -4.59976,4.47694 -5.95871,1.93776 z m 587.29979,-13.99624 c -2.92488,-0.76432 -0.59468,-6.09661 2.6783,-6.12936 2.94279,-0.0294 4.36344,2.6673 2.87267,5.45281 -0.55266,1.03289 -3.03143,1.33499 -5.55097,0.67655 z m -564.92924,-3.53814 c -0.35875,-0.35866 -0.65221,-1.0923 -0.65221,-1.6303 0,-0.65564 -0.40814,-0.97819 -1.2377,-0.97819 -3.38281,0 -5.24432,-5.4564 -2.65949,-7.79561 2.68401,-2.42897 7.70111,-0.53259 7.70111,2.9109 0,0.89324 0.22722,1.6241 0.5048,1.6241 1.83838,0 3.01273,4.4168 1.5604,5.8691 -0.84378,0.84367 -4.37342,0.84367 -5.21691,0 z m -80.129788,-0.47828 c -1.11685,-0.65053 -1.3211,-4.25991 -0.29895,-5.28215 1.98686,-1.98684 5.86914,-0.39491 5.86914,2.40666 0,2.96648 -2.87016,4.44814 -5.57019,2.87549 z m -13.45006,-6.74942 c 0,-2.44547 0,-2.44547 2.44547,-2.44547 2.44548,0 2.44548,0 2.44548,2.44547 0,2.44546 0,2.44546 -2.44548,2.44546 -2.44547,0 -2.44547,0 -2.44547,-2.44546 z m 462.029588,-5.27133 c -2.33388,-2.33393 -0.37377,-6.95599 2.95016,-6.95599 2.95538,0 4.00576,1.05042 4.00576,4.0059 0,2.92961 -0.71023,3.60222 -3.80401,3.60222 -1.37484,0 -2.79326,-0.29347 -3.15191,-0.65213 z m -352.98639,-6.31949 c -2.86668,-3.16763 -0.62461,-7.9729 3.71985,-7.9729 4.36083,0 6.347,4.08434 3.77331,7.75892 -1.12921,1.61203 -6.09954,1.75397 -7.49316,0.21398 z m 519.71258,-0.49585 c -3.80877,-1.48106 -2.62841,-7.57252 1.57667,-8.13654 3.44712,-0.46236 4.94467,0.80158 4.94467,4.17355 0,3.68614 -2.82232,5.40132 -6.52134,3.96299 z m -205.4189,-2.85783 c 0,-2.17375 0,-2.17375 2.17369,-2.17375 2.17389,0 2.17389,0 2.17389,2.17375 0,2.17373 0,2.17373 -2.17389,2.17373 -2.17369,0 -2.17369,0 -2.17369,-2.17373 z m 14.91245,-1.29293 c -0.81396,-3.24334 -0.16417,-4.40043 2.56798,-4.57694 2.90724,-0.18776 3.5488,0.69267 2.92555,4.01508 -0.45986,2.45041 -4.90533,2.9051 -5.49353,0.56186 z M 98.019132,378.36126 c -2.82764,-1.12613 -3.88518,-6.02201 -1.72332,-7.97841 1.42064,-1.28572 6.151268,-1.2249 7.345178,0.0944 3.17437,3.50764 -1.20156,9.64439 -5.621858,7.88399 z m 45.493078,-3.23672 c -1.81416,-1.81422 -0.29464,-5.09763 2.35916,-5.09763 2.74695,0 2.74695,0 2.58133,2.58131 -0.16251,2.53139 -3.3181,4.13867 -4.94049,2.51632 z m 426.61726,-2.79251 c -1.76439,-1.09398 -2.12003,-4.9741 -0.64834,-7.07515 1.20457,-1.72012 5.68829,-1.73146 7.28425,-0.0184 3.93361,4.22224 -1.64642,10.1871 -6.63591,7.0936 z m -37.79982,-3.2251 c 0.2555,-3.99804 5.05789,-4.15652 5.05789,-0.1669 0,2.44545 0,2.44545 -2.61232,2.61236 -2.61254,0.16689 -2.61254,0.16689 -2.44557,-2.44546 z m -380.54363,-2.40306 c -0.3384,-0.6321 -0.45997,-1.91597 -0.27033,-2.85304 0.18974,-0.93706 0.53899,-2.88665 0.77639,-4.33241 0.48077,-2.92884 1.16854,-3.60035 3.70018,-3.61254 3.00179,-0.0145 4.84114,4.12619 2.64304,5.95033 -0.51051,0.42373 -0.68417,1.19636 -0.48863,2.17389 0.70432,3.52251 -4.69235,5.7911 -6.36065,2.67377 z m 569.46101,0.78279 c -2.14085,-0.56626 -2.62608,-5.11478 -0.74635,-6.9946 2.87441,-2.87424 7.36116,-1.16485 7.36116,2.80438 0,3.78522 -2.39955,5.30523 -6.61481,4.19022 z m -52.49888,-24.93411 c -1.47159,-1.03083 -1.78539,-5.13184 -0.39264,-5.13184 0.44853,0 0.81522,-0.24455 0.81522,-0.54344 0,-0.77409 4.93729,-0.67367 6.68036,0.13586 1.81447,0.84266 1.9579,2.90291 0.34482,4.9535 -1.33804,1.70105 -5.39951,2.02056 -7.44776,0.58592 z"
       id="path1099-7" />
  </g>
</svg>
