<?xml version="1.0" encoding="UTF-8" standalone="no"?>
<svg
   xmlns:dc="http://purl.org/dc/elements/1.1/"
   xmlns:cc="http://creativecommons.org/ns#"
   xmlns:rdf="http://www.w3.org/1999/02/22-rdf-syntax-ns#"
   xmlns:svg="http://www.w3.org/2000/svg"
   xmlns="http://www.w3.org/2000/svg"
   xmlns:sodipodi="http://sodipodi.sourceforge.net/DTD/sodipodi-0.dtd"
   xmlns:inkscape="http://www.inkscape.org/namespaces/inkscape"
   version="1.1"
   id="svg2"
   width="1366"
   height="768"
   viewBox="0 0 1366 768"
   sodipodi:docname="star07.svg"
   inkscape:version="1.0.2-2 (e86c870879, 2021-01-15)">
  <metadata
     id="metadata8">
    <rdf:RDF>
      <cc:Work
         rdf:about="">
        <dc:format>image/svg+xml</dc:format>
        <dc:type
           rdf:resource="http://purl.org/dc/dcmitype/StillImage" />
        <dc:title />
      </cc:Work>
    </rdf:RDF>
  </metadata>
  <defs
     id="defs6" />
  <sodipodi:namedview
     pagecolor="#808080"
     bordercolor="#666666"
     borderopacity="1"
     objecttolerance="10"
     gridtolerance="10"
     guidetolerance="10"
     inkscape:pageopacity="0"
     inkscape:pageshadow="2"
     inkscape:window-width="1920"
     inkscape:window-height="1009"
     id="namedview4"
     showgrid="false"
     inkscape:zoom="0.54456539"
     inkscape:cx="774.0316"
     inkscape:cy="634.26292"
     inkscape:window-x="-8"
     inkscape:window-y="-8"
     inkscape:window-maximized="1"
     inkscape:current-layer="g10"
     inkscape:document-rotation="0" />
  <g
     inkscape:groupmode="layer"
     inkscape:label="Image"
     id="g10">
    <path
       style="fill:#cfd2d8;fill-opacity:1;stroke-width:0.544895"
       d="m 1129.8827,587.99935 c -1.6329,-1.85465 -0.8531,-2.99919 2.0434,-2.99919 2.3923,0 2.7244,0.13751 2.7244,1.12871 0,2.34839 -3.2312,3.61596 -4.7678,1.87048 z m 82.2337,-0.0487 c -0.7371,-0.83402 -0.2811,-1.93783 1.2714,-3.07844 2.6331,-1.93467 8.7886,0.95269 6.6308,3.11046 -1.1331,1.13315 -6.8933,1.1098 -7.9022,-0.032 z m 43.8648,-10.71708 c -2.1322,-1.55909 -1.8189,-6.90103 0.4657,-7.94199 3.9029,-1.77827 6.8342,-0.29954 7.2126,3.63859 0.4091,4.25882 -4.2036,6.84413 -7.6783,4.3034 z m -222.115,-1.5994 c -2.7992,-3.00454 -0.6841,-7.52579 3.5206,-7.52579 3.0379,0 4.6316,1.50002 4.6316,4.35916 0,2.85914 -1.5937,4.35916 -4.6316,4.35916 -1.7772,0 -2.7011,-0.31303 -3.5206,-1.19253 z m 305.431,-2.93309 c -2.3338,-2.33395 -0.4845,-6.22736 2.9581,-6.22736 2.593,0 3.8142,1.13402 3.8142,3.54181 0,2.40776 -1.2212,3.54181 -3.8142,3.54181 -1.1841,0 -2.4755,-0.37384 -2.9581,-0.85626 z m -102.1115,-0.94977 c -2.9205,-3.10878 -0.7004,-8.00789 3.6225,-7.99374 3.534,0.0122 5.0008,1.36765 5.0008,4.62326 0,4.38142 -5.6128,6.57516 -8.6233,3.37048 z m -30.4146,-0.34359 c -3.0196,-1.28417 -4.0084,-6.4451 -1.6579,-8.6533 1.9461,-1.82819 6.4385,-1.6866 7.9626,0.25095 3.4068,4.33113 -1.2583,10.54845 -6.3047,8.40235 z m -137.0206,-8.26557 c -2.6762,-0.98219 -3.6124,-5.80103 -1.556,-8.00849 2.7814,-2.98537 8.6972,-0.79888 8.6972,3.21447 0,4.21014 -3.0864,6.28212 -7.1412,4.79402 z m -42.1409,-1.69374 c -3.6472,-5.2071 1.2526,-14.08616 6.0176,-10.90452 2.4089,1.60848 2.4089,10.09005 0,11.69855 -1.4009,0.93541 -5.1531,0.44032 -6.0176,-0.79403 z m 30.2108,-4.47903 c 0,-2.48335 0,-2.48335 2.4834,-2.48335 3.7809,0 3.6229,4.5249 -0.1676,4.79916 -2.3158,0.16755 -2.3158,0.16755 -2.3158,-2.31581 z m 254.3092,-0.0971 c -0.8462,-0.84615 -0.3937,-4.5004 0.6476,-5.2297 0.9113,-0.63836 0.9441,-0.85112 0.2724,-1.76974 -3.642,-4.98061 4.6461,-11.33246 8.4601,-6.48373 2.5072,3.18732 0.7137,8.37425 -2.8945,8.37148 -1.012,-5.4e-4 -1.1526,0.31512 -1.1526,2.58825 0,2.50867 -3.6301,4.22634 -5.333,2.52344 z m -107.7929,-5.47178 c -3.368,-0.90019 -2.4893,-8.01958 1.1316,-9.16883 0.6096,-0.19343 1.1083,-0.8193 1.1083,-1.3908 0,-2.19847 5.6291,-3.56235 7.8283,-1.89673 2.3449,1.77596 1.6352,7.44975 -1.0601,8.4745 -0.7364,0.27997 -1.5679,1.11153 -1.8479,1.84791 -0.8238,2.16686 -3.7614,3.04236 -7.1602,2.13395 z m -85.4883,-3.82548 c -3.5083,-1.44279 -1.9805,-7.25633 1.9073,-7.25633 2.8067,0 3.5439,0.73332 3.5334,3.51457 -0.014,3.31037 -2.4361,4.97726 -5.4407,3.74176 z m -129.32152,-0.53596 c -1.6819,-1.68181 -0.2845,-4.98921 2.22498,-5.26654 1.4236,-0.15733 3.39476,-0.45544 4.38074,-0.66249 3.08935,-0.64883 4.9584,2.26087 3.3649,5.23832 -0.5705,1.06591 -9.01069,1.6506 -9.97062,0.69071 z m 285.27042,-3.01508 c -1.963,-1.96305 -0.4015,-5.88485 2.3431,-5.88485 2.205,0 2.9969,0.8639 2.9969,3.26936 0,2.40546 -0.7919,3.26936 -2.9969,3.26936 -0.929,0 -1.9834,-0.29423 -2.3431,-0.65387 z m -383.35785,-4.15685 c -3.81486,-4.2155 2.7101,-10.64871 6.7268,-6.63206 1.4502,1.45026 1.50572,5.44852 0.0936,6.72673 -1.40242,1.26923 -5.63901,1.21041 -6.82004,-0.0947 z m -23.21084,-5.77669 c -1.81465,-2.18648 -0.46503,-4.94206 2.42044,-4.94206 2.82467,0 4.55109,3.85526 2.35109,5.25036 -1.14887,0.72854 -4.06747,0.53997 -4.77153,-0.3083 z m 66.79149,-0.35001 c -3.76735,-2.96344 -1.20533,-9.22367 3.77482,-9.22367 3.11771,0 4.59751,1.76491 4.59751,5.48288 0,3.19867 -1.68313,4.87013 -4.90387,4.87013 -1.2314,0 -2.5988,-0.44526 -3.46846,-1.12934 z m -87.7107,0.22117 c -0.94119,-0.94106 -0.36418,-8.14859 0.74777,-9.34209 3.70179,-3.97341 9.86189,0.0861 8.48078,5.58872 -0.66402,2.64622 -7.53945,5.44249 -9.22855,3.75337 z m 141.12141,-11.53109 c -1.24469,-1.37533 -1.18836,-5.11415 0.095,-6.27517 2.85045,-2.5797 7.1769,-0.47333 7.1769,3.49416 0,3.48208 -4.93061,5.36778 -7.27164,2.78101 z m 293.98099,-8.98299 c -1.8012,-1.91732 -1.6661,-5.90961 0.251,-7.41761 3.5492,-2.79187 8.7555,-0.11891 8.1646,4.19194 -0.5853,4.26997 -5.6211,6.20021 -8.4156,3.22567 z M 853.25124,499.14023 c -2.26801,-2.2682 -0.73392,-6.22734 2.41325,-6.22734 2.4917,0 3.26934,0.79419 3.26934,3.33941 0,2.43018 -1.14752,3.74421 -3.26934,3.74421 -0.85636,0 -1.94224,-0.38533 -2.41325,-0.85628 z m -18.96407,-5.68246 c -0.4577,-0.73267 -1.27089,-1.08978 -2.48152,-1.08978 -4.07791,0 -6.11395,-5.49501 -3.13821,-8.47064 2.87244,-2.87247 9.01544,-1.13477 9.01544,2.55029 0,0.55896 0.35033,1.01631 0.77844,1.01631 2.32828,0 3.40467,4.45303 1.49446,6.18183 -1.43147,1.29548 -4.81225,1.18337 -5.66861,-0.18801 z M 1216.6,492.13379 c -3.2677,-1.42244 -3.3821,-7.11895 -0.1765,-8.77672 5.4464,-2.8164 10.5634,4.23219 5.9132,8.14513 -1.8676,1.57134 -3.2326,1.72164 -5.7367,0.63159 z m 8.6367,-2.02958 c -2.1625,-2.16253 -0.268,-5.52961 2.9614,-5.26369 3.3547,0.27624 3.2632,5.53313 -0.1005,5.78135 -1.2252,0.0904 -2.4794,-0.13654 -2.8606,-0.51766 z m -433.63751,-7.76986 c -0.60484,-0.42374 -1.82416,-0.85284 -2.70943,-0.95356 -2.48613,-0.28287 -2.84787,-5.90453 -0.38006,-5.90453 0.85758,0 2.03509,-0.36 2.61686,-0.80002 1.56245,-1.18181 4.71899,-1.03956 6.13146,0.27635 3.93308,3.66427 -1.27212,10.45433 -5.65883,7.38176 z m 134.04034,-0.50985 c -1.07449,-2.79967 -0.0516,-4.44112 2.76833,-4.44112 4.20252,0 4.32618,4.80136 0.13031,5.07036 -1.88605,0.12095 -2.67712,-0.0509 -2.89905,-0.62924 z m -62.48283,-2.03274 c -1.11982,-0.65226 -1.32464,-4.27132 -0.2997,-5.29632 2.07418,-2.07408 5.88496,-0.38041 5.88496,2.61551 0,3.03051 -2.7329,4.3422 -5.58526,2.68081 z m 60.07474,-4.3155 c -1.59164,-1.59148 -1.51929,-5.63124 0.1208,-6.78028 3.24993,-2.27636 8.05213,-0.18249 8.05213,3.5109 0,3.84628 -5.42604,6.01671 -8.17334,3.26938 z m 44.92898,-3.51704 c -2.97723,-2.97725 -1.04951,-7.38085 3.23106,-7.38085 2.979,0 4.14972,1.19749 4.14972,4.24461 0,4.18746 -4.44209,6.07497 -7.38078,3.13624 z M 874.857,471.35865 c -1.85157,-1.29695 -1.76416,-6.29255 0.13167,-7.53497 3.61586,-2.36925 7.64763,-0.34964 7.64763,3.83093 0,4.00228 -4.37803,6.0867 -7.77971,3.70404 z m 406.1365,-2.7325 c -1.5559,-1.55598 -1.1152,-5.21251 0.8345,-6.92337 4.1394,-3.6323 9.5013,-0.29038 7.5919,4.73185 -0.9551,2.51186 -6.6301,3.98784 -8.4264,2.19152 z M 928.68028,458.58453 c 0,-2.72447 0,-2.72447 2.7245,-2.72447 2.72449,0 2.72449,0 2.72449,2.72447 0,2.72447 0,2.72447 -2.72449,2.72447 -2.7245,0 -2.7245,0 -2.7245,-2.72447 z m -29.16102,-0.10573 c -0.20184,-0.79817 -1.10285,-1.58954 -2.46998,-2.16958 -2.13228,-0.90454 -2.1525,-0.94095 -2.1525,-3.88781 0,-6.22947 7.88435,-6.85218 8.5804,-0.67768 0.15379,1.36492 0.5065,2.48167 0.78368,2.48167 0.27717,0 0.42919,1.16473 0.33784,2.58826 -0.19858,3.09254 -4.37266,4.46088 -5.07944,1.66514 z m 40.29259,-6.66609 c -0.62167,-2.47733 0.15732,-3.58114 2.52754,-3.58114 2.14286,0 2.14286,0 2.14286,2.45202 0,2.98429 -3.96417,3.9427 -4.6704,1.12912 z m -157.5992,-0.96565 c -0.84591,-0.84592 -0.84591,-4.38504 0,-5.23099 2.2486,-2.24856 6.73697,-0.0341 6.23258,3.07491 -0.43666,2.69104 -4.34545,4.04322 -6.23258,2.15608 z m 437.57235,-2.06321 c -2.0151,-3.22688 -0.2189,-7.09101 3.2963,-7.09101 3.5944,0 5.1738,3.07746 3.3699,6.56579 -1.0637,2.05706 -5.4915,2.40595 -6.6662,0.52522 z m 33.7615,-0.66127 c -2.1017,-2.10168 -0.3753,-5.88485 2.6855,-5.88485 3.2628,0 4.447,1.8949 3.2128,5.14102 -0.592,1.55692 -4.5819,2.06012 -5.8983,0.74383 z m -27.0504,-12.54483 c -1.9551,-2.79141 -0.673,-5.3277 2.6937,-5.3277 2.6266,0 3.5417,0.89577 3.5417,3.46707 0,2.99909 -4.4979,4.34126 -6.2354,1.86063 z m -435.31077,-6.23586 c -1.8699,-1.86981 -0.23157,-5.13505 2.4974,-4.97793 3.0903,0.17792 3.66311,0.97588 2.89552,4.03438 -0.32508,1.29476 -4.33934,1.99714 -5.39292,0.94355 z m 90.75532,-2.11966 c -3.63664,-2.54715 -0.99847,-8.41496 3.78337,-8.41496 3.19251,0 4.26875,1.25917 4.26875,4.99439 0,3.10444 -1.26329,4.26881 -4.63157,4.26881 -1.21525,0 -2.75449,-0.3817 -3.42055,-0.84824 z m -56.65684,-7.40975 c -0.93942,-0.93923 -0.8512,-3.99781 0.13886,-4.81946 0.44969,-0.37309 0.8174,-1.26132 0.8174,-1.97385 0,-1.17396 0.23238,-1.29554 2.47501,-1.29554 3.89263,0 3.60325,8.35122 -0.29821,8.6065 -1.43799,0.0942 -2.73576,-0.1204 -3.13306,-0.51765 z m 54.29857,-2.70207 c -2.95905,-1.08593 -3.64804,-6.10289 -1.17358,-8.54467 1.24972,-1.23345 1.47084,-1.87344 1.35533,-3.92573 -0.20008,-3.55512 1.7161,-5.44894 5.51264,-5.44894 4.23048,0 6.26611,6.14379 2.97886,8.9899 -1.08888,0.94268 -1.23764,1.51461 -1.09661,4.21541 0.22966,4.39827 -2.98592,6.39888 -7.57664,4.71403 z m 315.23702,-2.30246 c -1.1432,-2.97926 -0.028,-4.99143 2.7663,-4.99143 4.2033,0 4.3278,5.34615 0.1303,5.61526 -1.8787,0.12039 -2.6775,-0.0516 -2.8971,-0.62383 z m -356.0467,-1.99451 c -1.4502,-1.45027 -1.50585,-5.44853 -0.0937,-6.72674 2.81217,-2.54494 8.26672,-0.26368 8.26672,3.45737 0,3.84625 -5.42604,6.0167 -8.17334,3.26937 z m 451.958,-6.74535 c -0.8465,-3.37218 -0.1906,-4.42499 2.7565,-4.42499 2.7245,0 2.7245,0 2.8959,2.08137 0.2941,3.5723 -4.8126,5.68967 -5.6524,2.34362 z m -96.8747,-0.24496 c -1.0915,-1.20598 -1.1412,-3.4451 -0.1407,-6.31989 1.9496,-5.60052 9.047,-4.92757 9.047,0.85777 0,4.94234 -6.03,8.64043 -8.9063,5.46212 z m -233.35271,-0.30846 c -1.02928,-2.68222 0.0136,-4.95797 2.33412,-5.12721 2.73806,-0.19908 3.74848,1.07849 3.19345,4.03749 -0.38155,2.03369 -4.8288,2.91045 -5.52757,1.08972 z m 272.22821,-2.5392 c 0,-2.75433 0,-2.75433 2.5882,-2.58825 4.2231,0.27099 4.3808,5.34259 0.166,5.34259 -2.7542,0 -2.7542,0 -2.7542,-2.75434 z m -431.96512,1.39896 c -1.53476,-1.10912 -1.78194,-6.18442 -0.36988,-7.59646 1.77841,-1.77837 6.61523,-1.06267 7.78052,1.15126 2.51817,4.78384 -3.03125,9.61013 -7.41064,6.4452 z m 447.53352,-2.77026 c -1.0274,-1.02742 -1.1692,-5.69641 -0.2024,-6.66327 1.1939,-1.19398 5.7089,-0.8169 6.6713,0.55715 2.9179,4.16594 -2.909,9.66607 -6.4689,6.10612 z m 20.3946,-10.04162 c 0,-2.17958 0,-2.17958 2.452,-2.17958 2.4521,0 2.4521,0 2.4521,2.17958 0,2.17958 0,2.17958 -2.4521,2.17958 -2.452,0 -2.452,0 -2.452,-2.17958 z m -273.2646,-5.55519 c -2.22403,-1.26112 -2.78517,-6.01378 -0.91065,-7.71029 1.55689,-1.40887 5.80405,-1.21779 6.87365,0.30923 3.0393,4.33924 -1.47707,9.94484 -5.963,7.40106 z m 39.7361,-6.02384 c -4.0775,-4.76764 -3.2921,-9.67186 1.5489,-9.67186 4.1267,0 7.3033,7.80066 4.0925,10.04963 -1.786,1.25099 -4.398,1.07607 -5.6414,-0.37777 z m 37.2302,-0.45231 c -1.4065,-0.81928 -1.333,-5.16386 0.1005,-5.93104 1.802,-0.96448 4.8326,-0.69285 5.4655,0.48992 2.1828,4.07853 -1.5838,7.76056 -5.566,5.44112 z m 223.4068,-2.72448 c -1.4236,-0.82918 -1.348,-5.70069 0.1004,-6.4759 3.2832,-1.75717 6.5745,-0.13004 6.5745,3.25019 0,3.36526 -3.5172,5.06496 -6.6749,3.22571 z m -52.3098,-10.56519 c -3.9785,-5.47145 3.3523,-11.83461 8.13,-7.05688 1.7475,1.74737 1.5143,5.84504 -0.4236,7.44895 -1.8387,1.52166 -6.4868,1.28518 -7.7064,-0.39207 z m -466.52715,-2.77998 c -3.52887,-3.52892 1.23356,-9.15324 5.71828,-6.75311 3.02745,1.62016 0.85473,7.60937 -2.76019,7.60937 -1.18416,0 -2.47555,-0.37384 -2.95809,-0.85626 z m 188.57915,-0.6851 c -1.30904,-1.44632 -1.21131,-5.3383 0.15216,-6.06801 3.18898,-1.70667 6.5745,0.0295 6.5745,3.37145 0,3.18601 -4.61094,5.03442 -6.72666,2.69656 z m 56.4766,-4.72562 c -2.4604,-1.72325 -2.0113,-7.1321 0.6941,-8.3649 4.1914,-1.90965 8.2546,0.77007 7.6788,5.06402 -0.5,3.72643 -5.1489,5.55917 -8.3729,3.30088 z m 171.4773,-4.08601 c 0,-2.72448 0,-2.72448 2.7245,-2.72448 2.7245,0 2.7245,0 2.7245,2.72448 0,2.72446 0,2.72446 -2.7245,2.72446 -2.7245,0 -2.7245,0 -2.7245,-2.72446 z m -69.9455,-6.0334 c -4.1085,-3.23173 -1.456,-14.12771 3.4391,-14.12771 3.7482,0 6.5676,9.51637 3.9714,13.40458 -1.3514,2.02374 -5.2708,2.40622 -7.4105,0.72313 z m 43.1094,-8.3475 c -1.3378,-1.01553 -1.3095,-5.28905 0.042,-6.51309 2.9969,-2.71213 8.1546,0.0349 7.5111,4.00028 -0.4972,3.06356 -4.8994,4.52794 -7.554,2.51281 z m -63.0319,-2.31188 c -3.7296,-4.74126 3.3235,-11.00313 7.5888,-6.7377 1.4707,1.47068 1.5286,5.97285 0.094,7.27162 -1.7059,1.54396 -6.299,1.22476 -7.6822,-0.53392 z m -316.26646,-8.82394 c -1.54386,-1.70605 -1.22488,-6.29895 0.53385,-7.68231 4.77532,-3.7562 10.99935,2.46781 7.24313,7.24304 -1.44002,1.83061 -6.27099,2.10347 -7.77698,0.43927 z m -30.55958,-0.4047 c -3.78717,-3.78703 2.06671,-9.82034 6.36357,-6.55863 2.88819,2.19248 0.68153,7.41489 -3.13319,7.41489 -1.43188,0 -2.71404,-0.33987 -3.23038,-0.85626 z m 95.14,-4.76403 c -3.18301,-3.38831 -0.96495,-8.55405 3.66649,-8.53863 3.57746,0.0122 4.95694,1.37423 4.95694,4.89572 0,4.63841 -5.50368,6.9635 -8.62343,3.64291 z m 137.21846,-4.46025 c 0,-2.45203 0,-2.45203 2.4522,-2.45203 2.45193,0 2.45193,0 2.45193,2.45203 0,2.45202 0,2.45202 -2.45193,2.45202 -2.4522,0 -2.4522,0 -2.4522,-2.45202 z m 14.38208,-9.21719 c -0.8981,-2.34013 0,-3.85575 2.3736,-4.02784 2.3158,-0.16755 2.3158,-0.16755 2.3158,2.3158 0,2.5863 -3.819,3.98054 -4.6894,1.71204 z m -36.72258,-0.12718 c -4.47752,-1.767 -2.82847,-10.00375 2.00142,-9.99736 6.50678,0.008 7.34942,9.45762 0.90143,10.10917 -1.14697,0.11592 -2.45329,0.0656 -2.90285,-0.11184 z m 167.09458,-0.64289 c -1.2692,-1.40245 -1.2104,-5.63894 0.095,-6.82004 4.0775,-3.69006 10.059,2.05796 6.8736,6.6055 -1.1215,1.60119 -5.5889,1.73875 -6.9684,0.21454 z m -281.15921,-2.63613 c -0.61557,-0.61553 -0.40124,-4.28483 0.29061,-4.9767 1.96301,-1.96307 5.88483,-0.40161 5.88483,2.34305 0,2.53683 -4.39703,4.41206 -6.17544,2.63365 z m 184.71281,-3.35768 c -2.2619,-2.49954 -0.617,-6.63204 2.6401,-6.63204 2.4077,0 3.5418,1.22127 3.5418,3.81426 0,3.52768 -3.9217,5.31524 -6.1819,2.81778 z m 52.6192,-0.94156 c -0.9966,-0.69804 -1.2109,-1.36799 -1.2109,-3.78337 0,-4.62001 5.3576,-6.72511 8.1338,-3.19587 3.6359,4.62246 -2.072,10.37694 -6.9229,6.97924 z m -73.118,-2.9302 c -1.8981,-3.54644 -0.3566,-6.57456 3.3467,-6.57456 3.9144,0 5.6412,3.83716 3.1029,6.89547 -0.9935,1.19721 -5.7643,0.95983 -6.4496,-0.32091 z M 761.50668,284.10934 c -3.14025,-3.14029 1.33795,-8.02665 5.37582,-5.86568 2.90217,1.55319 1.00702,6.51956 -2.4879,6.51956 -1.22869,0 -2.52836,-0.29425 -2.88792,-0.65388 z m 36.02064,-1.20677 c -2.06292,-1.77534 -2.17938,-6.42726 -0.20089,-8.02923 1.71516,-1.38888 6.59391,-1.4005 7.84431,-0.0187 4.63022,5.11629 -2.42193,12.54162 -7.64342,8.04791 z m 197.08531,0.40928 c -3.26811,-1.30151 -4.00828,-6.81857 -1.14208,-8.51169 3.97421,-2.34752 7.68075,-0.39005 7.68075,4.05612 0,3.49055 -3.30571,5.74314 -6.53867,4.45557 z m 12.64147,-1.92697 c -1.1184,-1.1185 -0.8292,-5.75265 0.4002,-6.41059 4.7179,-2.52497 9.2839,2.32588 5.9596,6.33141 -0.7603,0.91593 -5.4645,0.9745 -6.3598,0.0792 z m 37.8665,-1.33471 c -3.1159,-0.89514 -2.608,-7.53411 0.6808,-8.89631 3.6846,-1.5263 6.57,0.50977 6.57,4.63632 0,3.78803 -2.9206,5.50397 -7.2508,4.25999 z m -16.6155,-0.84487 c -2.0838,-2.0838 -0.3787,-5.88487 2.6399,-5.88487 3.3133,0 4.7945,2.68246 2.9417,5.32771 -0.9534,1.36104 -4.4307,1.70814 -5.5816,0.55716 z m -161.04109,-7.42623 c -1.4088,-1.5568 -1.21769,-5.80402 0.30934,-6.8736 4.56073,-3.19442 10.15373,2.64448 6.39629,6.67754 -1.44654,1.55256 -5.37406,1.6674 -6.70563,0.19606 z m 319.64979,-0.75062 c -2.5495,-1.23102 -2.896,-7.22318 -0.5139,-8.89167 3.869,-2.71002 8.5339,-0.34151 8.5339,4.33293 0,4.46917 -3.7686,6.6113 -8.02,4.55874 z m -171.1412,-0.54146 c -1.0178,-1.01766 -0.8024,-4.49181 0.3424,-5.52797 2.4928,-2.25589 6.0871,-0.57745 6.0871,2.84242 0,2.60632 -0.7773,3.33942 -3.5416,3.33942 -1.2288,0 -2.5284,-0.29425 -2.8879,-0.65387 z m -220.11035,-1.8932 c -1.52106,-1.06103 -1.76036,-5.55904 -0.36975,-6.94967 1.45957,-1.45958 5.91008,-1.1493 6.98198,0.48681 2.97479,4.53998 -2.16593,9.56447 -6.61223,6.46286 z m 56.32306,-1.52047 c -2.1168,-3.23068 -0.28328,-6.83034 3.47918,-6.83034 3.74237,0 5.15552,2.4879 3.56958,6.28378 -1.05086,2.51505 -5.53137,2.86247 -7.04876,0.54656 z m 58.27203,-8.04139 c -2.97411,-4.24623 1.59041,-8.90337 6.27126,-6.39831 1.45849,0.78065 1.49812,5.40367 0.057,6.70756 -1.52648,1.38139 -5.27279,1.19833 -6.32868,-0.30925 z m 65.64798,-2.5674 c -1.91551,-3.57906 1.14493,-6.67659 5.09797,-5.1597 1.11493,0.42783 1.68529,3.61289 0.90739,5.06651 -0.85215,1.5924 -5.16706,1.65935 -6.00536,0.0932 z m 136.77058,-6.13241 c -1.9007,-2.04007 -1.102,-6.56281 1.2712,-7.1997 4.19,-1.12443 6.3361,0.34637 6.3361,4.34232 0,3.92124 -4.9011,5.76214 -7.6073,2.85738 z m -167.36504,-3.22795 c -2.32109,-2.32093 -0.7437,-5.90797 2.6049,-5.92416 3.01483,-0.0145 3.45014,0.40182 3.45014,3.30015 0,3.76695 -3.42706,5.25208 -6.05504,2.62401 z m 8.03692,-4.02859 c -3.20391,-3.20379 -0.87984,-8.44264 3.74509,-8.44264 4.01629,0 6.25186,5.13303 3.51501,8.07067 -1.35898,1.45858 -5.93898,1.69324 -7.2601,0.37197 z m -93.18316,-7.64282 c -1.13123,-2.94788 -2.7e-4,-5.16384 2.62866,-5.15063 4.30269,0.0216 4.52299,5.59827 0.23211,5.87631 -1.92949,0.12504 -2.59935,-0.0449 -2.86077,-0.72568 z m 153.72788,-1.60056 c -1.5649,-2.15206 -1.3002,-6.47602 0.4823,-7.87804 5.0544,-3.97578 11.7637,2.73356 7.788,7.78794 -1.6088,2.04506 -6.8076,2.1017 -8.2703,0.0901 z m 135.1889,-3.05868 c -4.9297,-1.89171 -2.6704,-9.21806 2.8426,-9.21806 3.3156,0 4.3223,1.10071 4.3223,4.72629 0,4.0467 -3.161,6.0283 -7.1649,4.49177 z m -282.36223,-1.4962 c -2.47868,-2.73903 -0.59371,-6.63207 3.21124,-6.63207 3.71292,0 5.36455,3.92661 2.90067,6.89547 -0.92083,1.10948 -5.02969,0.9324 -6.11191,-0.2634 z m 188.57023,-11.54235 c -3.4367,-4.01375 1.5726,-9.41929 6.1974,-6.68746 1.9627,1.15946 2.3166,5.31545 0.586,6.88169 -1.4645,1.32541 -5.5831,1.20748 -6.7834,-0.19423 z m 15.7411,-0.28372 c -2.9601,-2.96015 -1.0956,-7.5013 3.1942,-7.7798 4.6791,-0.30379 6.9008,4.13089 3.7909,7.56715 -1.1995,1.3255 -5.7341,1.46355 -6.9851,0.21265 z m -299.66145,-3.34268 c -1.67566,-1.67556 -0.275,-5.08568 2.08884,-5.08568 2.45193,0 2.45193,0 2.45193,2.72448 0,2.63619 -2.80647,4.09554 -4.54077,2.3612 z m 365.15185,-1.56581 c -1.4581,-3.20015 2.6121,-6.28364 5.3237,-4.0332 0.9472,0.78608 1.0282,3.86082 0.1249,4.76352 -1.2729,1.27297 -4.7487,0.80715 -5.4491,-0.73032 z M 847.43075,210.8697 c -2.19865,-0.65834 -2.88208,-6.27156 -1.00824,-8.2828 4.22871,-4.53909 11.65279,2.18558 7.97122,7.22038 -0.72537,0.99192 -5.0134,1.64616 -6.96298,1.06242 z M 1079.75,208.93883 c -2.0627,-2.06271 -0.2799,-5.55103 2.6912,-5.26584 2.9163,0.27992 2.8227,5.5366 -0.1031,5.78348 -1.0501,0.0886 -2.2148,-0.14431 -2.5882,-0.51764 z m -286.17721,-5.25475 c -2.27819,-2.27819 -2.38705,-5.99864 -0.22519,-7.6991 2.20924,-1.73788 6.30656,-1.57668 7.78785,0.30638 4.06868,5.17255 -2.93583,12.01963 -7.56266,7.39272 z m 308.49301,-1.3089 c -0.3596,-0.35963 -0.6539,-1.07872 -0.6539,-1.59795 0,-0.51927 -0.4532,-1.08795 -1.0071,-1.26374 -2.038,-0.64686 -2.838,-4.13822 -1.414,-6.1713 1.7658,-2.52106 7.2996,-1.24843 7.3425,1.6886 0.014,0.6529 0.3774,1.66305 0.8174,2.2448 2.5443,3.36402 -2.1313,8.05322 -5.0849,5.09959 z m -326.70456,-2.90546 c -1.13136,-2.94789 -4.1e-4,-5.16383 2.62853,-5.15064 4.30255,0.0216 4.52285,5.59828 0.23224,5.87632 -1.92962,0.12501 -2.59961,-0.0449 -2.86077,-0.72568 z m 313.87496,-7.79012 c -1.2446,-1.37533 -1.1881,-5.11415 0.095,-6.27515 2.8002,-2.53427 7.1769,-0.53432 7.1769,3.27957 0,3.68657 -4.8414,5.68098 -7.2717,2.99558 z"
       id="path1163-0-9" />
  </g>
</svg>
