<?xml version="1.0" encoding="UTF-8" standalone="no"?>
<svg
   xmlns:dc="http://purl.org/dc/elements/1.1/"
   xmlns:cc="http://creativecommons.org/ns#"
   xmlns:rdf="http://www.w3.org/1999/02/22-rdf-syntax-ns#"
   xmlns:svg="http://www.w3.org/2000/svg"
   xmlns="http://www.w3.org/2000/svg"
   xmlns:sodipodi="http://sodipodi.sourceforge.net/DTD/sodipodi-0.dtd"
   xmlns:inkscape="http://www.inkscape.org/namespaces/inkscape"
   version="1.1"
   id="svg2"
   width="1366"
   height="768"
   viewBox="0 0 1366 768"
   sodipodi:docname="star02.svg"
   inkscape:version="1.0.2-2 (e86c870879, 2021-01-15)">
  <metadata
     id="metadata8">
    <rdf:RDF>
      <cc:Work
         rdf:about="">
        <dc:format>image/svg+xml</dc:format>
        <dc:type
           rdf:resource="http://purl.org/dc/dcmitype/StillImage" />
        <dc:title />
      </cc:Work>
    </rdf:RDF>
  </metadata>
  <defs
     id="defs6" />
  <sodipodi:namedview
     pagecolor="#808080"
     bordercolor="#666666"
     borderopacity="1"
     objecttolerance="10"
     gridtolerance="10"
     guidetolerance="10"
     inkscape:pageopacity="0"
     inkscape:pageshadow="2"
     inkscape:window-width="1920"
     inkscape:window-height="1009"
     id="namedview4"
     showgrid="false"
     inkscape:zoom="0.54456539"
     inkscape:cx="695.83071"
     inkscape:cy="490.72525"
     inkscape:window-x="-8"
     inkscape:window-y="-8"
     inkscape:window-maximized="1"
     inkscape:current-layer="g10"
     inkscape:document-rotation="0" />
  <g
     inkscape:groupmode="layer"
     inkscape:label="Image"
     id="g10">
    <path
       style="fill:#cfd2d8;stroke-width:0.581655;fill-opacity:1"
       d="m 1054.2088,12.64915 c 4.394,5.58623 -3.394,12.53373 -8.4183,7.50952 -3.5576,-3.5576 -1.0718,-9.04202 4.0981,-9.04202 2.672,0 3.2859,0.21778 4.3202,1.5325 z m 28.737,8.74339 c 1.1366,1.1364 0.3669,5.4632 -1.0897,6.12692 -3.416,1.55642 -6.7076,-2.78829 -4.3053,-5.68287 0.6953,-0.83779 4.6739,-1.16529 5.395,-0.44405 z m 54.3363,8.62047 c 1.8043,1.30387 1.897,6.68965 0.1453,8.44134 -4.6519,4.65206 -12.4253,-2.49213 -8.5211,-7.83148 1.1068,-1.51364 6.5743,-1.91173 8.3758,-0.60986 z m 157.6573,7.97596 c 2.2516,2.25172 0.399,6.28189 -2.8878,6.28189 -2.4469,0 -3.3941,-1.09316 -3.3941,-3.91703 0,-2.21885 0.9615,-3.06276 3.4899,-3.06276 1.1516,0 2.408,0.31407 2.792,0.6979 z m -29.7747,23.39839 c 0.8676,2.2608 0,3.52743 -2.5362,3.71104 -2.472,0.17889 -2.472,0.17889 -2.472,-2.18113 0,-2.51535 4.1443,-3.78128 5.0082,-1.52991 z m -374.504,1.46356 c 1.8806,1.56891 1.8907,6.53915 0.016,7.85222 -1.8114,1.26875 -5.8416,1.17836 -7.0511,-0.15827 -4.1504,-4.58618 2.3017,-11.64257 7.0351,-7.69395 z m 462.4159,17.62796 c 3.9115,4.19044 1.5145,9.74267 -4.2061,9.74267 -4.6123,0 -6.9086,-3.91612 -4.8917,-8.34252 1.3173,-2.89129 6.9035,-3.75099 9.0978,-1.40015 z M 735.18074,89.7693 c 3.34935,4.78187 -3.09131,10.99679 -7.16968,6.91842 -1.52208,-1.52206 -1.71251,-5.90191 -0.31729,-7.29712 1.47826,-1.47826 6.35921,-1.2314 7.48697,0.3787 z m 25.73313,5.6641 c 4.68556,1.98771 2.83982,9.32949 -2.34546,9.32949 -3.35203,0 -4.50735,-0.97778 -4.86083,-4.11379 -0.47667,-4.22883 3.22213,-6.90588 7.20629,-5.2157 z m -35.13039,3.29224 c 2.13211,2.13209 -0.24621,6.19489 -3.47096,5.92937 -3.81006,-0.31373 -3.43094,-5.9206 0.41728,-6.17172 1.45151,-0.0946 2.82567,0.0143 3.05368,0.24235 z m 87.28171,20.47898 c 1.61786,1.78774 1.29121,6.15492 -0.56996,7.6189 -4.84199,3.80869 -11.00908,-2.30862 -7.45007,-7.38986 1.2085,-1.72541 6.52839,-1.87732 8.02003,-0.22904 z m 52.36151,7.35713 c 1.3118,0.99356 1.9445,5.42551 1.0209,7.15138 -1.354,2.5299 -7.5281,2.39132 -8.7068,-0.19542 -2.3901,-5.24562 3.2292,-10.33125 7.6859,-6.95596 z m 448.8236,4.05287 c 0,2.6493 0,2.6493 2.2364,2.6493 3.994,0 6.0464,5.59385 2.869,7.81936 -3.9353,2.75642 -8.8703,-1.00108 -6.9242,-5.27217 0.8852,-1.94303 0.9375,-1.87196 -1.5258,-2.07583 -3.8591,-0.3194 -3.3369,-5.34126 0.5816,-5.5927 2.763,-0.17727 2.763,-0.17727 2.763,2.47204 z m -351.4206,0.5056 c 3.4255,3.64615 1.1842,9.12992 -3.725,9.11465 -4.9498,-0.0153 -6.975,-3.55597 -4.6291,-8.09266 1.4584,-2.82009 6.1283,-3.3914 8.3541,-1.02199 z m 317.5683,15.63808 c 2.4012,2.40118 0.397,6.86352 -3.0828,6.86352 -3.4797,0 -5.4839,-4.46234 -3.0828,-6.86352 0.384,-0.3839 1.7712,-0.69799 3.0828,-0.69799 1.3117,0 2.6989,0.31409 3.0828,0.69799 z m -314.5586,3.37359 c 0,2.90827 0,2.90827 -2.9082,2.90827 -2.9083,0 -2.9083,0 -2.9083,-2.90827 0,-2.90828 0,-2.90828 2.9083,-2.90828 2.9082,0 2.9082,0 2.9082,2.90828 z m 27.5385,3.97196 c 2.2879,2.52819 0.5046,6.49781 -2.9192,6.49781 -3.2834,0 -5.0325,-4.41201 -2.616,-6.59888 1.4118,-1.27769 4.3357,-1.22431 5.5352,0.101 z m -51.3863,3.58953 c 0,2.97201 0,2.97201 -2.7628,2.79472 -2.7628,-0.17728 -2.7628,-0.17728 -2.7628,-2.79472 0,-2.61743 0,-2.61743 2.7628,-2.79472 2.7628,-0.17728 2.7628,-0.17728 2.7628,2.79472 z m 186.9689,8.27259 c 1.2268,1.75143 1.1473,4.70625 -0.1582,5.88778 -2.5721,2.32776 -7.0795,0.34836 -7.0795,-3.10894 0,-3.67896 5.207,-5.67813 7.2377,-2.77884 z m 89.1714,-0.32586 c 2.4979,1.00791 0.7215,5.43131 -2.1812,5.43131 -2.9083,0 -2.9083,0 -2.9083,-2.55521 0,-3.01726 1.9745,-4.13303 5.0895,-2.8761 z m -195.3432,3.49217 c 1.6013,1.80689 1.4812,6.10855 -0.2206,7.90109 -4.6826,4.93246 -12.0673,-1.95255 -8.1274,-7.57748 1.1454,-1.63542 6.985,-1.86179 8.348,-0.32361 z m 54.3021,1.79374 c 1.3397,1.48656 1.797,3.9485 1.1032,5.93881 -0.3745,1.07433 -0.3977,1.87199 -0.061,2.08039 1.0384,0.64183 0.6387,6.40414 -0.5169,7.44989 -4.403,3.9847 -11.3537,-1.3231 -8.6413,-6.59888 0.5213,-1.01394 0.5808,-1.9047 0.1967,-2.94256 -0.8876,-2.39815 0.015,-5.73979 1.7251,-6.39019 2.2986,-0.87392 5.1834,-0.65848 6.1936,0.46254 z m 87.8409,-0.0758 c 1.9418,1.94181 0.3155,5.45616 -2.525,5.45616 -2.9401,0 -2.9401,0 -2.7628,-2.76287 0.1738,-2.70941 3.5514,-4.42971 5.2878,-2.69329 z m 129.2185,2.67735 c 2.4164,3.44989 0.51,7.43209 -3.558,7.43209 -3.7249,0 -5.62,-3.93601 -3.6592,-7.59976 0.9211,-1.72102 5.9766,-1.60358 7.2172,0.16767 z m -75.3117,-0.16767 c 1.5209,2.84163 -0.1603,5.85478 -3.2665,5.85478 -2.4951,0 -3.8995,-3.08556 -2.7582,-6.0598 0.5461,-1.42284 5.239,-1.26313 6.0247,0.20502 z m 32.9419,2.66248 c 2.0489,3.12698 0.1408,6.68223 -3.5861,6.68223 -3.8063,0 -5.9965,-4.64285 -3.4101,-7.22914 1.5485,-1.54853 5.8431,-1.2128 6.9962,0.54691 z m -64.447,3.89028 c 2.214,2.21402 0.406,6.28186 -2.792,6.28186 -3.198,0 -5.0059,-4.06784 -2.7919,-6.28186 0.3839,-0.38388 1.6403,-0.69798 2.7919,-0.69798 1.1517,0 2.4081,0.3141 2.792,0.69798 z m -312.2319,15.5564 c 0,0.33744 0.2804,0.61353 0.6231,0.61353 2.0259,0 3.257,5.77532 1.5872,7.44516 -0.9917,0.99172 -5.9799,0.8902 -6.8342,-0.13905 -2.1998,-2.65055 -0.9695,-8.17425 1.861,-8.35588 1.6619,-0.10665 2.7629,0.0672 2.7629,0.43624 z m -95.50758,11.19964 c 1.01859,1.01858 0.87225,5.44284 -0.21604,6.53113 -3.58356,3.58354 -9.09485,-1.49286 -6.62699,-6.10406 0.70234,-1.3123 5.64906,-1.62105 6.84303,-0.42707 z m 5.60906,8.73788 c 1.95442,2.79035 0.3907,6.26878 -2.81811,6.26878 -3.34934,0 -5.25008,-4.32128 -2.92392,-6.64746 1.3902,-1.39023 4.65381,-1.17499 5.74203,0.37868 z m -88.13308,7.48019 c 2.27504,1.89391 2.4629,6.90001 0.32218,8.58389 -4.22605,3.32422 -9.58315,1.08525 -9.58315,-4.00518 0,-5.21511 5.33074,-7.85066 9.26097,-4.57871 z m 101.2328,14.455 c 2.06795,3.86395 -2.67049,8.16608 -5.67973,5.1568 -1.06182,-1.0618 -0.89558,-5.49992 0.22207,-5.92881 2.00177,-0.76814 4.84896,-0.3654 5.45766,0.77201 z m 150.5754,7.32233 c 2.8174,3.58164 0.786,7.83892 -3.7403,7.83892 -3.8964,0 -5.2326,-1.50484 -4.7212,-5.31759 0.5556,-4.14189 5.9277,-5.74265 8.4615,-2.52133 z m -47.4015,3.66773 c 1.3286,1.46809 1.2684,5.45914 -0.1011,6.69848 -2.7535,2.49186 -7.6611,0.31399 -7.6611,-3.39978 0,-3.78181 5.2903,-6.03004 7.7622,-3.2987 z m 312.483,0.29717 c 1.0975,2.85993 0.013,5.32392 -2.4216,5.50236 -2.9399,0.21546 -3.8709,-0.75318 -3.6226,-3.76896 0.2013,-2.44418 5.2192,-3.8833 6.0442,-1.7334 z m 44.9913,9.47817 c 2.756,3.50365 0.7924,7.74707 -3.5931,7.76498 -3.2384,0.0132 -4.7277,-1.70942 -4.3529,-5.03479 0.4903,-4.34947 5.3569,-6.02163 7.946,-2.73019 z m -131.4116,14.74261 c 0,3.18181 -1.1766,4.06173 -4.3624,3.26215 -3.278,-0.82274 -2.0181,-6.15934 1.4542,-6.15934 2.9082,0 2.9082,0 2.9082,2.89719 z m -26.8724,-0.45425 c 1.1074,1.10745 0.8672,5.36683 -0.3657,6.48255 -3.758,3.40094 -8.9437,-1.447 -6.4773,-6.05545 0.7023,-1.31231 5.649,-1.62104 6.843,-0.4271 z m 215.5504,5.28718 c 2.528,1.84855 1.0132,5.33622 -2.4033,5.53291 -3.0537,0.17582 -3.0537,0.17582 -3.0537,-2.69502 0,-3.46863 2.6848,-4.86488 5.457,-2.83789 z m -23.812,2.28743 c 2.887,4.12177 -2.7998,9.46028 -6.3237,5.9364 -1.0883,-1.0883 -1.2346,-5.51255 -0.2161,-6.53116 1.2539,-1.25382 5.5165,-0.86616 6.5398,0.59476 z m -609.63059,3.26088 c 1.32862,1.46809 1.26843,5.45915 -0.10099,6.69848 -2.98923,2.70521 -7.66114,0.57036 -7.66114,-3.50082 0,-3.93528 5.168,-6.06422 7.76217,-3.19766 z m 6.9457,-0.12164 c 1.9418,1.94181 0.31543,5.45614 -2.525,5.45614 -2.94016,0 -2.94016,0 -2.76287,-2.76285 0.17385,-2.70942 3.55141,-4.42972 5.28787,-2.69329 z m 624.52989,6.61946 c 0,2.90825 0,2.90825 -2.9083,2.90825 -2.9083,0 -2.9083,0 -2.9083,-2.90825 0,-2.90828 0,-2.90828 2.9083,-2.90828 2.9083,0 2.9083,0 2.9083,2.90828 z m 15.1229,3.48992 c 0,2.32661 0,2.32661 -2.6174,2.32661 -2.6174,0 -2.6174,0 -2.6174,-2.32661 0,-2.32663 0,-2.32663 2.6174,-2.32663 2.6174,0 2.6174,0 2.6174,2.32663 z m -629.68189,32.32332 c 2.36058,2.36064 0.54105,6.64749 -2.82149,6.64749 -4.61229,0 -6.79681,-2.00742 -5.9324,-5.45149 0.53545,-2.13351 6.94116,-3.00868 8.75389,-1.196 z m -17.93274,26.07173 c 1.04866,2.73278 -0.0158,5.29268 -2.27881,5.479 -3.37935,0.27826 -4.84499,-1.94989 -3.5325,-5.37026 0.46363,-1.20827 5.35425,-1.29979 5.81131,-0.10877 z m 16.52014,2.38777 c 0,2.61745 0,2.61745 -2.61746,2.61745 -2.61743,0 -2.61743,0 -2.61743,-2.61745 0,-2.61743 0,-2.61743 2.61743,-2.61743 2.61746,0 2.61746,0 2.61746,2.61743 z m 347.50519,1.00192 c 3.6686,5.2375 -3.0812,11.64131 -7.5549,7.16768 -3.4478,-3.44779 -1.3644,-8.46041 3.5164,-8.46041 2.5783,0 3.2934,0.22892 4.0385,1.29273 z m -288.50032,4.07157 c 2.32583,3.32051 0.593,6.85598 -3.35305,6.84152 -3.24395,-0.0118 -3.91331,-0.54305 -4.2979,-3.41024 -0.58584,-4.36755 5.18301,-6.95474 7.65095,-3.43128 z m -93.58049,2.23427 c 1.54808,1.71177 1.50288,6.54185 -0.0758,8.10759 -4.78857,4.74908 -12.3944,-0.99675 -9.20485,-6.95383 1.43571,-2.68142 7.24584,-3.40375 9.2807,-1.15376 z m 640.07741,7.08167 c 1.7042,0.89164 2.3246,4.9619 1.1039,7.2428 -0.9432,1.76232 -5.6133,1.94556 -7.1212,0.27941 -3.6424,-4.02482 1.1798,-10.05312 6.0173,-7.52221 z m 44.7194,1.53807 c 3.3003,3.30044 0.7523,8.5707 -3.8908,8.04735 -5.982,-0.67426 -5.982,-8.30461 0,-8.97886 2.1811,-0.24586 2.8809,-0.0783 3.8908,0.93151 z m -205.6368,5.78492 c 1.2191,1.34719 1.2476,4.96631 0.049,6.16544 -2.5332,2.53312 -7.2292,0.39792 -7.2292,-3.28699 0,-3.40095 4.9221,-5.37406 7.1806,-2.87845 z m -119.4357,6.64322 c 0,0.71979 0.1711,3.07549 0.375,5.23488 0.3456,3.65987 -3.5561,6.20356 -5.2678,3.43417 -2.124,-3.43682 -0.8806,-9.97777 1.8968,-9.97777 2.7138,0 2.9923,0.12168 2.996,1.30872 z m -166.6066,1.26675 c 0.6637,2.64443 -0.1679,3.82272 -2.6981,3.82272 -2.2873,0 -2.2873,0 -2.2873,-2.61743 0,-3.18564 4.2316,-4.20869 4.9854,-1.20529 z m 192.0499,1.29967 c 2.5279,1.02009 0.7168,6.01297 -2.1812,6.01297 -2.9083,0 -2.9083,0 -2.9083,-2.84603 0,-3.31927 1.8536,-4.47266 5.0895,-3.16694 z m -328.81295,12.54059 c 2.39282,3.41618 0.31961,7.43208 -3.83677,7.43208 -3.98636,0 -5.99977,-4.08984 -3.65878,-7.43208 1.3089,-1.86871 6.18664,-1.86871 7.49555,0 z m 151.23005,9.30645 c 2.5721,3.67223 -0.3749,8.25878 -4.6216,7.19291 -3.0761,-0.77203 -4.2374,-4.41599 -2.2923,-7.19291 1.293,-1.84603 5.6209,-1.84603 6.9139,0 z"
       id="path1083-3-7-5" />
  </g>
</svg>
