<?xml version="1.0" encoding="UTF-8" standalone="no"?>
<svg
   xmlns:dc="http://purl.org/dc/elements/1.1/"
   xmlns:cc="http://creativecommons.org/ns#"
   xmlns:rdf="http://www.w3.org/1999/02/22-rdf-syntax-ns#"
   xmlns:svg="http://www.w3.org/2000/svg"
   xmlns="http://www.w3.org/2000/svg"
   xmlns:sodipodi="http://sodipodi.sourceforge.net/DTD/sodipodi-0.dtd"
   xmlns:inkscape="http://www.inkscape.org/namespaces/inkscape"
   version="1.1"
   id="svg2"
   width="507"
   height="488"
   viewBox="0 0 507 488"
   sodipodi:docname="University Tracker Logo.svg"
   inkscape:version="1.0.2-2 (e86c870879, 2021-01-15)">
  <metadata
     id="metadata8">
    <rdf:RDF>
      <cc:Work
         rdf:about="">
        <dc:format>image/svg+xml</dc:format>
        <dc:type
           rdf:resource="http://purl.org/dc/dcmitype/StillImage" />
        <dc:title></dc:title>
      </cc:Work>
    </rdf:RDF>
  </metadata>
  <defs
     id="defs6" />
  <sodipodi:namedview
     pagecolor="#ffffff"
     bordercolor="#666666"
     borderopacity="1"
     objecttolerance="10"
     gridtolerance="10"
     guidetolerance="10"
     inkscape:pageopacity="0"
     inkscape:pageshadow="2"
     inkscape:window-width="1920"
     inkscape:window-height="1009"
     id="namedview4"
     showgrid="false"
     inkscape:zoom="1.4142136"
     inkscape:cx="524.11838"
     inkscape:cy="253.15444"
     inkscape:window-x="-8"
     inkscape:window-y="-8"
     inkscape:window-maximized="1"
     inkscape:current-layer="g10" />
  <g
     inkscape:groupmode="layer"
     inkscape:label="Image"
     id="g10">
    <path
       style="fill:#2f0f3c;stroke:none;stroke-width:0.984728"
       d="m 444.8468,74.260606 c 0.94436,-10.407499 10.97382,-16.88583 18.2037,-6.877935 11.14121,15.421342 -8.06492,37.508119 -23.12734,40.260729 -8.834,1.61426 -22.18594,-1.48743 -27.82647,-9.08521 -2.40962,-3.246844 -1.60707,-7.841489 -3.22498,-11.481736 C 406.03569,80.696989 398.81961,77.01115 392.65618,74.455878 374.54604,66.94742 353.64321,63.310719 334.5572,59.071758 311.34123,53.915523 286.55759,47.287905 262.67201,46.702583 c -28.79444,-0.705459 -57.7169,6.16056 -85.67138,12.369175 -19.08601,4.238961 -39.98886,7.875662 -58.09899,15.38412 -6.16244,2.555173 -13.3795,6.24121 -16.21533,12.620576 -1.61811,3.640247 -0.81526,8.234892 -3.22548,11.481736 -4.76855,6.42368 -16.185098,9.93956 -23.88725,9.57905 C 59.114531,107.36679 37.52544,85.480111 47.861348,68.355976 54.55701,57.262911 65.70857,63.211852 66.711022,74.260606 76.762049,73.138015 76.748065,63.758476 76.543834,55.550762 76.188248,41.2591 66.399652,25.969024 50.955365,26.038546 14.843929,26.201026 8.202456,76.635772 19.747936,101.83301 c 4.137535,9.02996 15.685645,17.7714 18.216791,26.58768 0.910973,3.17279 -2.489788,6.50708 -4.163137,8.86255 -4.063384,5.71931 -7.597576,12.18799 -10.214196,18.70985 -7.41872,18.48926 -9.747859,40.43591 -6.892412,60.06844 3.070975,21.11357 22.147237,38.98738 34.360726,55.14481 11.642053,15.40115 19.74696,33.37147 26.880925,51.20588 5.74983,14.37409 12.748297,28.09529 5.840721,43.32806 -2.933999,6.46968 -7.723817,12.23821 -15.096874,13.45828 -6.28306,1.03889 -15.959496,-4.00193 -15.232176,-11.47011 0.248447,-2.55045 2.615045,-4.8429 5.248111,-3.78529 3.082299,1.2378 3.369347,5.67695 7.086107,5.95464 7.636274,0.57114 11.370562,-12.17124 10.265204,-17.94371 -3.829412,-19.99788 -31.489847,-37.37342 -44.375908,-13.78621 -16.68986,30.55021 7.448883,96.80374 48.825405,86.75459 12.101327,-2.93843 21.819817,-11.60404 28.553197,-21.76251 1.43376,-2.16246 5.24762,-11.68084 8.59667,-10.49129 3.63661,1.29196 6.97582,9.44354 9.26138,12.46075 6.56716,8.66955 14.53558,16.21947 22.51976,23.5488 20.91563,19.20123 48.04982,33.13711 74.83937,42.1001 10.30913,3.44852 20.49416,7.21905 31.51131,7.21905 11.01714,0 21.2022,-3.77053 31.51132,-7.21905 26.78954,-8.96299 53.92373,-22.89887 74.83937,-42.1001 7.98418,-7.32933 15.95261,-14.87925 22.51977,-23.5488 2.28554,-3.01721 5.62475,-11.16879 9.26136,-12.46075 3.34907,-1.18955 7.16292,8.32883 8.59669,10.49129 6.73356,10.15847 16.45185,18.82408 28.55319,21.76251 41.37632,10.04915 65.51497,-56.20438 48.82579,-86.75459 -12.88616,-23.58721 -40.54719,-6.21167 -44.37581,13.78621 -1.10585,5.77247 2.62824,18.51485 10.26482,17.94371 3.71635,-0.27769 4.0039,-4.71684 7.0861,-5.95464 2.63316,-1.05761 4.99947,1.23484 5.24762,3.78529 0.72772,7.46818 -8.94922,12.509 -15.23178,11.47011 -7.37266,-1.22007 -12.16337,-6.9886 -15.09688,-13.45828 -6.91477,-15.2495 0.0867,-28.94314 5.84043,-43.32806 7.13435,-17.83441 15.23966,-35.80473 26.88112,-51.20588 12.21359,-16.15743 31.28975,-34.03124 34.36111,-55.14481 2.85474,-19.63253 0.52585,-41.57918 -6.8931,-60.06844 -2.61642,-6.52186 -6.15061,-12.99054 -10.21359,-18.70985 -1.67405,-2.35547 -5.07431,-5.68878 -4.16344,-8.86255 2.53075,-8.81628 14.07965,-17.55772 18.21649,-26.58768 11.54595,-25.197337 4.90493,-75.631984 -31.20703,-75.794464 -15.44448,-0.06952 -25.23268,15.220554 -25.58817,29.512216 -0.20483,8.207812 -0.21861,17.587253 9.83251,18.709844 M 234.11981,96.263481 c 5.46524,-1.142089 15.29381,-1.489697 17.82457,4.638759 3.49382,8.45675 0.88034,22.38309 0.88034,31.45737 v 71.88518 c 0,8.15455 4.31607,33.58024 -5.95071,35.95933 -4.59179,1.06449 -14.73154,1.88478 -17.6552,-2.75329 -3.97337,-6.30227 -1.01231,-21.91514 -1.01231,-29.26712 v -76.80883 c 0,-8.14667 -4.31112,-32.97483 5.91331,-35.111399 m 31.51131,0 c 4.69125,-0.978723 14.84577,-1.642627 17.1264,3.731529 3.41701,8.05528 0.5938,22.65123 0.5938,31.37987 v 73.85464 c 0,8.14666 4.31114,32.97462 -5.9133,35.11149 -4.89509,1.02312 -15.16384,1.64548 -17.71133,-3.74197 -3.78529,-8.00782 -0.9936,-22.60543 -0.9936,-31.36952 v -73.85464 c 0,-8.64888 -4.40074,-32.75416 6.89803,-35.111399 M 158.33411,119.28929 c 3.92611,-0.62431 8.59767,2.17823 12.75814,2.23435 10.4588,0.14181 37.12428,-4.62527 44.68501,4.44508 3.26537,3.91725 -4.25008,14.88319 -4.3072,20.17708 -0.0749,6.92856 8.01373,18.62418 5.30671,24.30409 -1.78433,3.74394 -9.75473,1.19251 -13.18848,1.96946 -4.26683,0.96601 -7.61786,4.01177 -11.81674,4.94039 -8.48836,1.87491 -22.86638,1.77546 -31.45321,0.43722 -4.57997,-0.71394 -5.96155,-10.25694 -2.41849,-12.89897 3.18363,-2.3732 26.50691,6.27272 23.14801,-6.82909 -3.20529,-12.50015 -23.72506,2.78579 -26.37792,-7.99896 -2.81141,-11.42777 15.59908,-5.35002 21.34201,-6.00093 3.27128,-0.37026 7.66415,-2.70505 6.48149,-6.74637 -3.47116,-11.86205 -22.31197,1.25848 -28.27747,-6.47263 -2.87737,-3.72819 -0.80452,-10.77785 4.11814,-11.56072 m 193.93344,-0.0581 c 5.47608,-0.0226 8.19393,7.57552 5.0743,11.61881 -5.96549,7.73111 -24.8063,-5.38942 -28.27746,6.47263 -1.18266,4.04132 3.21021,6.37611 6.48148,6.74637 5.74294,0.65091 24.15341,-5.42684 21.34201,6.00093 -2.65285,10.78475 -23.17262,-4.50119 -26.37791,7.99896 -3.35892,13.10181 19.96439,4.45589 23.148,6.82909 3.10585,2.31609 2.33087,11.52724 -1.52139,12.73156 -13.62668,4.26092 -30.63294,-1.53225 -43.18232,-4.96697 -3.56079,-0.97389 -12.39676,1.51353 -14.17321,-2.21269 -2.70701,-5.67991 5.38155,-17.37553 5.30671,-24.30409 -0.0571,-5.29389 -7.57256,-16.25983 -4.30721,-20.17708 2.82421,-3.38846 10.06196,-4.06595 14.15843,-4.35251 10.79362,-0.75725 21.69653,0.48745 32.49604,-0.13097 3.39732,-0.19497 6.51694,-2.24025 9.83253,-2.25404 M 99.20707,288.93145 c -9.540842,-4.5465 -21.820703,-23.72014 -20.496933,-34.4655 0.953711,-7.74193 6.390594,-14.42136 8.977279,-21.66403 5.877744,-16.45875 6.958284,-43.79482 -4.757224,-58.05565 -7.346174,-8.94232 -19.915545,-5.12651 -22.587213,5.86504 -3.325428,13.68084 7.00595,24.45278 6.324715,37.41969 -0.327422,6.23332 -5.127186,12.63997 -11.733926,8.26876 -18.830277,-12.46076 -8.758769,-44.36497 3.085646,-57.50125 5.049393,-5.60016 11.149,-10.06591 16.151519,-15.75567 4.85412,-5.52138 10.387705,-10.51001 15.473827,-15.8433 1.69748,-1.7794 4.41966,-5.36775 7.2798,-4.91773 3.19338,0.5032 2.28152,6.76508 2.28251,8.94035 v 27.57241 120.13688 m 313.14369,0 V 168.79457 141.22216 c 9.5e-4,-2.17527 -0.91087,-8.43715 2.2826,-8.94035 2.85966,-0.45002 5.58243,3.13833 7.2801,4.91773 5.08612,5.33329 10.61931,10.32192 15.47304,15.8433 5.00341,5.68976 11.10282,10.15551 16.15152,15.75567 11.8453,13.13628 21.91612,45.04049 3.08614,57.50125 -6.60655,4.37121 -11.40612,-2.03544 -11.73403,-8.26876 -0.68143,-12.96691 9.65035,-23.73885 6.32492,-37.41969 -2.67158,-10.99155 -15.24163,-14.80736 -22.58771,-5.86504 -11.71532,14.26083 -10.63507,41.5969 -4.75722,58.05565 2.58687,7.24267 8.02356,13.9221 8.97777,21.66403 1.32347,10.74536 -10.9561,29.919 -20.49713,34.4655 m -200.7773,-38.96177 c 7.9123,-2.43721 19.20517,-0.42737 27.46507,-0.42737 18.94126,0 41.47085,-3.38157 60.02512,0.22451 5.99502,1.16592 7.07428,12.10528 2.43326,15.51834 -5.39238,3.96649 -16.77387,1.98227 -23.06924,1.98227 h -44.31279 c -7.03785,0 -15.73497,1.2831 -22.46265,-1.20926 -5.61787,-2.08171 -6.11614,-14.2303 -0.0788,-16.08849 m 19.68965,27.73881 c 14.48141,-5.88867 26.35036,5.56175 19.27902,20.08552 -5.60705,11.51542 -22.09633,22.40947 -31.19817,31.51131 -3.31558,3.31559 -8.88028,7.24564 -10.44502,11.81674 -1.85622,5.42094 4.95811,9.3756 8.47556,12.04422 8.69121,6.59473 17.61482,13.05357 26.58767,19.26523 3.89361,2.69422 8.77295,6.32196 13.7862,5.22989 12.37311,-2.69225 26.48624,-16.94618 36.43496,-24.49512 3.33133,-2.52681 9.49672,-6.02161 8.72765,-11.05948 -0.69916,-4.58785 -6.63707,-8.74046 -9.71238,-11.81675 -8.74439,-8.74537 -17.49075,-17.39916 -26.58275,-25.77035 -4.64792,-4.27864 -13.28596,-25.32328 -1.91628,-27.25926 4.17525,-0.71096 12.73747,-1.3087 16.47648,0.86658 4.37712,2.5465 7.48491,9.11562 11.05259,12.77389 10.04128,10.29829 20.34056,20.3563 30.51182,30.52658 6.62723,6.62723 17.1776,12.92753 15.54394,23.63349 -1.30082,8.52578 -11.3549,13.60698 -17.5134,18.51389 -17.32728,13.8059 -39.06123,37.35567 -61.05317,42.97552 -8.13189,2.07777 -16.14463,-3.44655 -22.64877,-7.66907 -16.19976,-10.5169 -31.18438,-23.278 -46.28223,-35.30645 -6.45687,-5.14423 -16.82803,-10.3495 -17.61778,-19.49862 -0.76317,-8.84188 6.08956,-13.16089 11.7094,-18.71379 10.89406,-10.76504 21.69161,-21.63547 32.49506,-32.49209 4.03542,-4.05512 8.64002,-13.02697 13.8896,-15.16188 z"
       id="path16" />
  </g>
</svg>
