<?xml version="1.0" encoding="UTF-8" standalone="no"?>
<svg
   xmlns:dc="http://purl.org/dc/elements/1.1/"
   xmlns:cc="http://creativecommons.org/ns#"
   xmlns:rdf="http://www.w3.org/1999/02/22-rdf-syntax-ns#"
   xmlns:svg="http://www.w3.org/2000/svg"
   xmlns="http://www.w3.org/2000/svg"
   xmlns:sodipodi="http://sodipodi.sourceforge.net/DTD/sodipodi-0.dtd"
   xmlns:inkscape="http://www.inkscape.org/namespaces/inkscape"
   version="1.1"
   id="svg2"
   width="1366"
   height="768"
   viewBox="0 0 1366 768"
   sodipodi:docname="star05.svg"
   inkscape:version="1.0.2-2 (e86c870879, 2021-01-15)">
  <metadata
     id="metadata8">
    <rdf:RDF>
      <cc:Work
         rdf:about="">
        <dc:format>image/svg+xml</dc:format>
        <dc:type
           rdf:resource="http://purl.org/dc/dcmitype/StillImage" />
        <dc:title />
      </cc:Work>
    </rdf:RDF>
  </metadata>
  <defs
     id="defs6" />
  <sodipodi:namedview
     pagecolor="#808080"
     bordercolor="#666666"
     borderopacity="1"
     objecttolerance="10"
     gridtolerance="10"
     guidetolerance="10"
     inkscape:pageopacity="0"
     inkscape:pageshadow="2"
     inkscape:window-width="1920"
     inkscape:window-height="1009"
     id="namedview4"
     showgrid="false"
     inkscape:zoom="0.5445654"
     inkscape:cx="702.56494"
     inkscape:cy="357.70755"
     inkscape:window-x="-8"
     inkscape:window-y="-8"
     inkscape:window-maximized="1"
     inkscape:current-layer="g10"
     inkscape:document-rotation="0" />
  <g
     inkscape:groupmode="layer"
     inkscape:label="Image"
     id="g10">
    <path
       style="fill:#cfd2d8;fill-opacity:1;stroke-width:0.396734"
       d="m 100.09072,255.52163 c 0.72425,0.72423 0.61079,3.75139 -0.151443,4.04391 -2.30267,0.88361 -4.13341,7.4e-4 -4.13341,-1.99223 0,-2.1551 2.82752,-3.50897 4.284853,-2.05168 z m 216.6166,3.57061 c 1.40077,1.40071 0.22551,4.28473 -1.74608,4.28473 -2.68279,0 -3.75459,-1.69526 -2.52465,-3.99342 0.47699,-0.89142 3.46665,-1.09533 4.27073,-0.29131 z m -10.78876,6.82998 c 0.65065,1.69539 0,2.81064 -1.62898,2.81064 -1.58336,0 -1.58724,-0.004 -1.70893,-1.68611 -0.1278,-1.76765 2.72253,-2.72797 3.33791,-1.12453 z m 183.0506,0.62861 c 0.91918,0.9192 1.03888,2.89267 0.26524,4.37493 -0.28781,0.55147 -0.44478,1.67526 -0.34872,2.49728 0.23315,1.99733 -0.70568,3.04613 -2.72676,3.04613 -2.09763,0 -2.87608,-0.8846 -2.58755,-2.94022 0.281,-2.0013 0.28088,-2.03191 -0.0117,-4.10707 -0.45783,-3.30462 3.08735,-5.18801 5.40426,-2.87105 z m -146.91162,-0.3186 c 1.90587,0.9208 2.21343,4.23741 0.54742,5.90339 -2.68408,2.6841 -6.37835,1.11728 -6.37835,-2.70526 0,-3.12177 2.80483,-4.66016 5.83093,-3.19813 z m 203.74373,0.94226 c 1.59619,0.86594 1.62487,4.45305 0.0459,5.69529 -2.60131,2.04621 -5.81964,0.55138 -5.86761,-2.72532 -0.0471,-3.18864 2.77026,-4.62557 5.82188,-2.96997 z m -399.6351,0.12302 c 1.03535,1.93476 -0.0682,4.01413 -2.13102,4.01413 -3.09782,0 -3.24173,-4.48299 -0.15025,-4.68234 1.52245,-0.0982 1.93595,0.0229 2.28127,0.66821 z m 20.87161,3.40099 c 2.11997,2.12001 0.4228,5.71025 -2.47679,5.23972 -1.97877,-0.32111 -2.89725,-1.2805 -2.89725,-3.02633 0,-2.98037 3.26302,-4.32432 5.37404,-2.21339 z m 114.35134,1.62746 c 1.0718,0.75072 1.22712,3.34444 0.25831,4.31325 -1.69,1.68998 -4.93079,0.38617 -4.93079,-1.98367 0,-2.51408 2.57568,-3.79824 4.67248,-2.32958 z m -161.67989,-0.18908 c 1.12471,0.65518 0.95117,3.9393 -0.27865,5.26621 -2.27516,2.45497 -4.97805,1.02302 -4.97805,-2.63731 0,-2.85598 2.61848,-4.1655 5.2567,-2.6289 z m 414.80501,2.42797 c 0.93188,0.93199 0.59104,4.19103 -0.51403,4.91517 -2.35629,1.54387 -5.16253,-0.15369 -4.84931,-2.93337 0.26172,-2.32156 3.73871,-3.60637 5.36334,-1.9818 z m -287.4122,1.29029 c 2.43671,2.25827 0.69662,6.1683 -2.74522,6.1683 -2.1904,0 -3.34626,-1.21419 -3.34626,-3.51501 0,-3.32368 3.65172,-4.91432 6.09148,-2.65329 z m -14.02614,4.383 c 0,1.82878 0,1.82878 -1.88447,1.70786 -1.88458,-0.12093 -1.88458,-0.12093 -1.88458,-1.70786 0,-1.58693 0,-1.58693 1.88458,-1.70784 1.88447,-0.12093 1.88447,-0.12093 1.88447,1.70784 z m 213.98437,3.40105 c 1.75231,1.37837 1.49447,5.25373 -0.41633,6.25955 -2.78367,1.46518 -6.07631,-0.1462 -6.07631,-2.97366 0,-3.49113 3.79197,-5.41023 6.49264,-3.28589 z m 86.18241,2.78997 c 2.08952,2.30886 0.49993,5.90937 -2.60883,5.90937 -3.18318,0 -4.59336,-2.72161 -2.8976,-5.59225 0.89298,-1.51184 4.25017,-1.70518 5.50643,-0.31712 z m -21.73813,2.83467 c -0.11992,2.08286 -0.11992,2.08286 -1.90528,2.08286 -1.78522,0 -1.78522,0 -1.90515,-2.08286 -0.11992,-2.08284 -0.11992,-2.08284 1.90515,-2.08284 2.02521,0 2.02521,0 1.90528,2.08284 z m 52.18739,9.35449 c 1.66155,1.83591 0.41938,4.43202 -2.12044,4.43202 -2.54393,0 -3.63771,-2.16554 -2.15959,-4.2758 0.79468,-1.13458 3.31146,-1.22646 4.28003,-0.15622 z m 4.40312,23.56351 c 2.15512,3.07697 -2.1797,7.10309 -4.67683,4.34375 -0.77399,-0.85531 -0.89497,-4.03502 -0.18048,-4.74941 0.86922,-0.86932 4.15657,-0.59478 4.85731,0.40566 z m -10.57031,2.37148 c 0.75529,0.75536 0.59151,3.66059 -0.24949,4.4216 -1.95337,1.76779 -4.82874,0.35653 -4.82874,-2.36999 0,-2.03449 0.5419,-2.52769 2.7772,-2.52769 1.00372,0 2.03919,0.21423 2.30103,0.47608 z m -208.05198,5.82245 c 2.10021,2.32079 0.63513,5.60348 -2.50078,5.60348 -2.81118,0 -4.19208,-2.88911 -2.56663,-5.36986 0.83301,-1.27139 3.9962,-1.41723 5.06741,-0.23362 z m 14.35782,5.73923 c 1.00161,2.61043 -0.85629,4.8586 -3.30404,3.99781 -2.33631,-0.82163 -1.55668,-4.30513 0.99631,-4.452 1.53845,-0.0885 2.14524,0.031 2.30773,0.45419 z m 50.06765,0.87858 c 2.38274,1.669 0.73931,5.73015 -2.31902,5.73015 -1.9396,0 -2.75027,-0.96735 -2.75027,-3.28181 0,-2.10805 0.92965,-3.06593 2.97543,-3.06593 0.66664,0 1.60887,0.27792 2.09386,0.61759 z m -63.08079,0.79348 c 1.15211,0.80694 1.2484,3.68846 0.15626,4.67681 -1.00137,0.90621 -3.72354,0.86513 -4.5689,-0.0689 -2.50114,-2.76371 1.33164,-6.76597 4.41276,-4.60789 z m 12.51933,3.61423 c 1.18784,1.18778 0.21339,3.30611 -1.52081,3.30611 -1.78535,0 -1.78535,0 -1.78535,-1.7853 0,-1.73419 2.11844,-2.70861 3.30616,-1.52081 z m -298.674433,4.57876 c 3.36518,1.92988 1.8292,7.05958 -2.11338,7.05826 -3.44631,-7.4e-4 -4.96078,-3.89648 -2.4795,-6.37777 1.25203,-1.25216 3.11487,-1.52815 4.59288,-0.68049 z m -20.68362,0.73981 c 1.63192,1.2837 1.38784,4.66456 -0.39551,5.47712 -2.85868,1.30252 -4.90693,0.0796 -4.90693,-2.92979 0,-3.05167 2.89395,-4.44192 5.30244,-2.54733 z m 534.368843,0.65139 c 0.44537,2.32968 -0.0964,3.68388 -1.47449,3.68388 -1.63262,0 -2.20944,-0.62145 -2.20944,-2.3804 0,-2.51484 3.23374,-3.65901 3.68393,-1.30348 z m -194.41371,-0.64841 c 0.70121,0.4084 0.94717,2.41814 0.45348,3.70474 -0.29252,0.76233 -3.31968,0.8757 -4.04393,0.15146 -2.02308,-2.02307 1.05734,-5.33157 3.59045,-3.8562 z m 183.36182,23.99896 c 1.67095,1.67088 0.47746,4.53409 -1.88988,4.53409 -2.12666,0 -2.64411,-0.51753 -2.64411,-2.64416 0,-2.36736 2.86316,-3.56083 4.53399,-1.88993 z M 90.569157,386.44377 c 1.6378,1.63781 0.27065,4.68146 -2.10268,4.68146 -2.48738,0 -3.29112,-1.57332 -2.11844,-4.14704 0.51239,-1.12437 3.28053,-1.47486 4.22112,-0.53442 z M 340.9875,407.88336 c 2.82282,1.47854 1.63827,5.5567 -1.678,5.77629 -2.36946,0.15691 -3.08289,-0.5544 -3.08289,-3.07423 0,-2.68652 2.29914,-3.99142 4.76089,-2.70206 z M 91.221097,411.0502 c 1.45262,2.07411 0.26795,4.27579 -2.30102,4.27579 -2.10398,0 -2.63577,-0.52028 -2.63577,-2.57877 0,-2.66256 3.43374,-3.8429 4.93679,-1.69702 z m 282.663423,15.68189 c 2.36792,1.93532 0.9748,5.65345 -2.11832,5.65345 -2.93804,0 -4.22347,-2.13169 -2.95908,-4.90687 0.70602,-1.54944 3.57822,-1.97177 5.0774,-0.74658 z m -271.74321,19.3259 c 1.69647,2.04402 0.31192,5.37078 -2.235073,5.37078 -0.7955,0 -1.83026,0.34135 -2.40507,0.79346 -3.70075,2.91102 -8.27658,-2.20787 -4.94843,-5.5359 1.29777,-1.29783 8.634003,-1.77858 9.588573,-0.62834 z m 187.44867,8.68932 c 1.66154,1.53985 1.18784,5.45308 -0.72214,5.96566 -3.24584,0.87105 -5.40684,-0.39371 -5.40684,-3.16446 0,-3.31304 3.73483,-5.02001 6.12898,-2.8012 z m -184.65912,5.01287 c 0,1.98366 0,1.98366 -1.98358,1.98366 -1.98382,0 -1.98382,0 -1.98382,-1.98366 0,-1.98368 0,-1.98368 1.98382,-1.98368 1.98358,0 1.98358,0 1.98358,1.98368 z m 110.22274,-0.66871 c 1.21101,1.28899 1.16504,3.5764 -0.0976,4.83875 -0.52814,0.52806 -1.0216,1.27869 -1.09649,1.66808 -0.28512,1.48044 -3.67134,0.96512 -3.82043,-0.58141 -0.0682,-0.70916 -0.29158,-1.28937 -0.49592,-1.28937 -0.72755,0 -0.42456,-4.19319 0.35389,-4.8977 1.13294,-1.02524 4.08838,-0.87529 5.1563,0.26165 z m -15.96845,5.9599 c 0.80902,2.10817 0.0247,3.63187 -1.93596,3.75711 -1.9061,0.1218 -1.9061,0.1218 -1.78547,-1.98367 0.12521,-2.18412 3.03233,-3.56945 3.72143,-1.77344 z m 88.24324,1.05654 c 2.09539,2.09536 0.52779,5.55427 -2.51724,5.55427 -2.73194,0 -4.21489,-3.3742 -2.4848,-5.65345 0.77034,-1.01466 3.95129,-0.95158 5.00204,0.0992 z m -36.9192,0.96415 c 1.32129,1.59195 0.3385,3.59829 -1.76242,3.59829 -2.05659,0 -3.31357,-2.807 -1.71187,-3.82276 0.83666,-0.53044 2.96168,-0.39314 3.47429,0.22447 z m 124.10146,7.63483 c 1.29636,0.90428 1.30365,4.5571 0.0117,5.46258 -2.63317,1.84434 -5.46599,0.37277 -5.46599,-2.83943 0,-2.97251 2.93263,-4.38271 5.45505,-2.62315 z m -142.01081,-0.18823 c 1.86835,1.86849 0.29946,7.06186 -2.13348,7.06186 -2.33772,0 -2.71678,-0.61325 -2.38427,-3.85758 0.35719,-3.48702 2.62587,-5.0961 4.51775,-3.20428 z m 159.28351,15.63948 c 0.15555,0.15552 0.28276,0.79422 0.28276,1.41931 0,0.64426 0.25772,1.23543 0.59504,1.36488 0.40562,0.15563 0.59515,0.79042 0.59515,1.99296 0,2.37112 -3.66147,2.62888 -3.89026,0.27385 -0.0835,-0.85549 -0.37189,-1.31443 -0.91696,-1.45696 -1.87506,-0.49036 -0.83218,-3.62338 1.25146,-3.75934 0.98996,-0.0647 1.92725,0.009 2.08281,0.1653 z m -70.19092,0.97278 c 1.47296,1.15866 1.51199,4.30131 0.0705,5.74189 -1.40383,1.40378 -4.0772,1.36884 -5.51819,-0.0721 -3.37741,-3.37743 1.67484,-8.63666 5.44659,-5.66975 z m 18.25326,1.76927 c 0.90273,2.35267 -0.0894,3.87309 -2.40191,3.68263 -2.624,-0.21606 -2.33442,-4.03905 0.31898,-4.21099 1.40488,-0.091 1.8927,0.0328 2.08293,0.52836 z m 194.17173,47.07955 c 1.52459,1.52456 0.21222,4.28473 -2.03731,4.28473 -2.0654,0 -2.6441,-0.52104 -2.6441,-2.38041 0,-1.84625 0.5787,-2.3804 2.57874,-2.3804 0.89461,0 1.84084,0.21423 2.10267,0.47608 z"
       id="path1131-3-3-4" />
  </g>
</svg>
