<?xml version="1.0" encoding="UTF-8" standalone="no"?>
<svg
   xmlns:dc="http://purl.org/dc/elements/1.1/"
   xmlns:cc="http://creativecommons.org/ns#"
   xmlns:rdf="http://www.w3.org/1999/02/22-rdf-syntax-ns#"
   xmlns:svg="http://www.w3.org/2000/svg"
   xmlns="http://www.w3.org/2000/svg"
   xmlns:sodipodi="http://sodipodi.sourceforge.net/DTD/sodipodi-0.dtd"
   xmlns:inkscape="http://www.inkscape.org/namespaces/inkscape"
   version="1.1"
   id="svg2"
   width="1366"
   height="768"
   viewBox="0 0 1366 768"
   sodipodi:docname="star06.svg"
   inkscape:version="1.0.2-2 (e86c870879, 2021-01-15)">
  <metadata
     id="metadata8">
    <rdf:RDF>
      <cc:Work
         rdf:about="">
        <dc:format>image/svg+xml</dc:format>
        <dc:type
           rdf:resource="http://purl.org/dc/dcmitype/StillImage" />
        <dc:title />
      </cc:Work>
    </rdf:RDF>
  </metadata>
  <defs
     id="defs6" />
  <sodipodi:namedview
     pagecolor="#808080"
     bordercolor="#666666"
     borderopacity="1"
     objecttolerance="10"
     gridtolerance="10"
     guidetolerance="10"
     inkscape:pageopacity="0"
     inkscape:pageshadow="2"
     inkscape:window-width="1920"
     inkscape:window-height="1009"
     id="namedview4"
     showgrid="false"
     inkscape:zoom="0.5445654"
     inkscape:cx="519.8738"
     inkscape:cy="305.69485"
     inkscape:window-x="-8"
     inkscape:window-y="-8"
     inkscape:window-maximized="1"
     inkscape:current-layer="g10"
     inkscape:document-rotation="0" />
  <g
     inkscape:groupmode="layer"
     inkscape:label="Image"
     id="g10">
    <path
       style="fill:#cfd2d8;fill-opacity:1;stroke-width:0.463658"
       d="m 382.12607,569.13893 c -1.46722,-0.72666 -1.4959,-4.20022 -0.0457,-5.45856 1.54421,-1.33922 5.21125,-1.18959 6.67309,0.27229 1.51379,1.51372 1.65936,4.8895 0.21086,4.8895 -0.51013,0 -0.92731,0.20864 -0.92731,0.46364 0,0.61828 -4.58786,0.48877 -5.9117,-0.16687 z m 300.45094,-0.0631 c -2.74311,-3.11563 3.63563,-6.2612 6.62815,-3.26861 1.26613,1.2661 1.52412,3.03486 0.44265,3.03486 -0.38246,0 -0.69552,0.20863 -0.69552,0.46365 0,0.74398 -5.69883,0.53847 -6.37528,-0.2299 z m 91.08697,-1.05726 c -1.41169,-1.56003 -1.49827,-4.40362 -0.18055,-5.93556 2.79262,-3.24651 8.19484,-0.92656 7.52957,3.23349 -0.44279,2.76969 -1.34276,3.52559 -4.19731,3.52559 -1.71645,0 -2.62011,-0.23613 -3.15171,-0.82352 z m -165.83571,-0.53698 c -1.56238,-2.91959 -0.0502,-6.05806 2.91819,-6.05806 3.09626,0 4.67453,3.29809 2.83498,5.9244 -0.98895,1.41193 -5.01883,1.50554 -5.75317,0.13366 z m -166.84082,-1.05054 c -0.58904,-0.58918 -0.74694,-3.0438 -0.27489,-4.27412 0.40987,-1.06815 4.27554,-1.00904 5.10066,0.0779 2.12448,2.79853 -2.34074,6.6811 -4.82577,4.19612 z m 109.98228,-1.34694 c -1.15745,-1.27903 -1.2232,-5.14214 -0.10594,-6.25888 3.89782,-3.89777 10.24606,1.68315 6.84003,6.01321 -1.29005,1.64 -5.33792,1.78769 -6.73345,0.24567 z m 250.0505,-0.66136 c -0.63009,-0.86574 -1.25701,-1.14458 -2.5733,-1.14458 -2.17716,0 -2.85302,-0.65901 -2.85302,-2.78196 0,-2.51149 3.23629,-3.99679 4.9578,-2.27534 0.36636,0.36638 0.76856,0.36638 1.45312,0 4.39594,-2.35262 8.69149,2.82486 5.37978,6.48425 -1.27442,1.40821 -5.26274,1.23124 -6.36438,-0.28237 z m -319.01977,-0.60152 c -1.43233,-1.58279 -0.62621,-5.64332 1.12037,-5.64332 0.2369,0 0.43059,-0.70212 0.43059,-1.56028 0,-4.93932 7.54798,-5.8372 8.18423,-0.97357 0.33096,2.53004 -0.45653,4.32894 -2.15407,4.9207 -0.80311,0.27997 -1.39361,0.81582 -1.39361,1.26463 0,2.59846 -4.36641,4.00407 -6.18751,1.99184 z m 148.88205,0.20506 c -2.10339,-1.59702 -0.82412,-10.7168 1.50347,-10.7168 2.0864,0 2.0864,0 2.22896,1.97056 0.0886,1.22413 0.36868,1.97054 0.73964,1.97054 2.48959,0 3.28996,5.54733 1.01899,7.0637 -0.84749,0.56586 -4.6275,0.3676 -5.49106,-0.288 z m -214.72154,-0.66873 c -0.94374,-1.04269 -1.04137,-4.8388 -0.14365,-5.58379 2.65097,-2.20013 6.31016,-0.55783 6.32404,2.83835 0.0128,3.18847 -4.11864,5.02378 -6.18039,2.74544 z m 181.45056,-1.69337 c 0,-2.28678 1.02411,-2.98431 3.47745,-2.36857 2.59636,0.65168 1.60713,4.4462 -1.15909,4.4462 -2.31836,0 -2.31836,0 -2.31836,-2.07763 z m -231.52579,-1.08858 c -3.11325,-3.44011 1.57717,-8.39756 5.50833,-5.82182 1.45854,0.95565 1.68101,4.99984 0.33141,6.0243 -1.24374,0.94418 -4.91736,0.81681 -5.83974,-0.20248 z m 452.78386,0.29153 c -1.84408,-1.84406 -0.32903,-5.47117 2.2851,-5.47117 2.9601,0 4.19933,2.99372 2.22431,5.37344 -0.66235,0.79808 -3.74224,0.86484 -4.50942,0.0977 z M 381.64049,558.0594 c -1.52493,-1.8375 -0.91845,-5.57923 0.98713,-6.0904 4.21691,-1.1311 7.04678,2.2747 4.68833,5.64209 -0.82713,1.18082 -4.80659,1.49518 -5.67546,0.44831 z m 16.01805,0.0814 c -0.54914,-0.31984 -0.81133,-1.04625 -0.81133,-2.24741 0,-3.70548 4.75372,-4.19283 5.01582,-0.51421 0.20411,2.86497 -1.78439,4.17112 -4.20449,2.76162 z m 121.22369,-4.22849 c -1.0832,-1.0832 -0.68676,-4.04065 0.62146,-4.63673 2.72293,-1.2407 5.34687,2.22262 3.43188,4.52999 -0.66895,0.80596 -3.28521,0.87486 -4.05334,0.10674 z m 295.74857,-2.42503 c -1.54405,-1.86052 -0.39575,-4.20529 2.05963,-4.20529 2.40367,0 3.87265,3.28051 2.0006,4.46761 -0.97767,0.61994 -3.46117,0.45948 -4.06023,-0.26232 z m -205.58243,-0.5733 c -0.3863,-0.38634 -0.40457,-3.07527 -0.0274,-4.05774 0.34192,-0.8909 3.87974,-1.02342 4.72614,-0.17701 0.59388,0.59389 0.73881,2.60173 0.27497,3.81044 -0.28758,0.74945 -4.3054,1.09223 -4.97334,0.42431 z m 113.12741,-0.5388 c -1.20229,-1.32858 -1.03544,-5.0392 0.27598,-6.13315 3.93417,-3.28211 9.09364,2.2815 5.64723,6.08973 -1.10018,1.21573 -4.83746,1.24312 -5.92321,0.0434 z m 52.63935,-0.0165 c -0.39407,-0.24983 -0.55799,-1.1085 -0.46366,-2.42712 0.21571,-3.01503 4.68226,-3.2592 4.92843,-0.26942 0.22159,2.69182 -2.18245,4.14381 -4.46477,2.69654 z m -357.08694,-1.88702 c -1.30338,-2.43528 -0.20255,-4.66707 2.30193,-4.66707 1.98786,0 2.78202,0.84212 2.78202,2.95019 0,2.424 -3.98522,3.76985 -5.08395,1.71688 z m 224.48385,-2.92835 c 0.14228,-1.96611 0.14676,-1.97055 1.99718,-1.97055 1.85051,0 1.85489,0.005 1.99717,1.97055 0.14265,1.97055 0.14265,1.97055 -1.99717,1.97055 -2.13983,0 -2.13983,0 -1.99718,-1.97055 z m -119.9825,0.41747 c -0.92219,-2.40304 -0.0484,-3.77407 2.498,-3.92006 2.46065,-0.14107 2.46065,-0.14107 2.31828,2.08647 -0.14996,2.34634 -4.0497,3.83106 -4.81628,1.83359 z m 238.89367,-0.22215 c -2.11581,-2.33789 -0.31132,-6.10697 2.92385,-6.10697 3.19745,0 4.85992,3.27691 3.00549,5.9244 -0.95425,1.36248 -4.75564,1.47953 -5.92934,0.18257 z m -272.83204,-0.80119 c -1.15818,-0.81118 -1.45352,-3.77 -0.47407,-4.74939 0.93964,-0.93966 4.43362,-0.70134 4.99116,0.34045 1.2863,2.40351 -0.0603,5.13073 -2.5338,5.13073 -0.52402,0 -1.41653,-0.32481 -1.98329,-0.72179 z m 43.46818,-1.15646 c -1.23672,-2.31065 -0.18567,-4.21411 2.24055,-4.05777 3.2549,0.20974 3.46951,4.68287 0.23598,4.91799 -1.59607,0.11606 -2.0358,-0.0366 -2.47653,-0.86022 z m 145.69427,0.39454 c -0.30612,-0.30601 -0.55644,-1.30752 -0.55644,-2.22556 0,-0.91804 0.25032,-1.91955 0.55644,-2.22556 0.30594,-0.30602 1.3074,-0.5564 2.22558,-0.5564 0.91799,0 1.91946,0.25038 2.22548,0.5564 0.30603,0.30601 0.55635,1.30752 0.55635,2.22556 0,0.91804 -0.25032,1.91955 -0.55635,2.22556 -0.30602,0.30601 -1.30749,0.55639 -2.22548,0.55639 -0.91818,0 -1.91964,-0.25038 -2.22558,-0.55639 z M 373.49563,541.6549 c -2.71709,-2.71711 -0.67434,-7.58714 3.18247,-7.58714 4.1992,0 5.97107,5.61946 2.59024,8.21519 -1.37288,1.05403 -4.42239,0.72224 -5.77271,-0.62805 z m 165.31506,0.36891 c -1.75352,-1.14684 -0.43726,-4.00716 1.91316,-4.15733 2.22887,-0.14239 2.22887,-0.14239 2.08649,2.08647 -0.14776,2.312 -2.09188,3.31859 -3.99965,2.07086 z m -79.74053,-3.87582 c -1.71709,-1.7171 -0.25462,-5.00752 2.22557,-5.00752 2.03216,0 2.78202,0.84154 2.78202,3.1224 0,1.76879 -0.76648,2.4415 -2.78202,2.4415 -0.91799,0 -1.91945,-0.25037 -2.22557,-0.55638 z m 242.51687,-1.14167 c -0.89534,-0.36128 -0.76347,-4.62335 0.15388,-4.97539 3.53655,-1.35714 6.06167,1.18829 4.35052,4.38563 -0.46776,0.87414 -2.98339,1.2035 -4.5044,0.58976 z m 94.00689,-1.8765 c -2.89037,-1.06278 -3.41715,-5.96958 -0.81144,-7.55834 2.15597,-1.31452 3.87155,-1.17903 5.4837,0.43307 3.47327,3.47332 -0.0391,8.82903 -4.67226,7.12527 z M 674.6948,532.36405 c -1.2674,-0.88406 -1.44622,-4.00593 -0.32147,-5.61169 1.03298,-1.47478 4.28605,-1.4504 5.68861,0.0426 3.1654,3.36942 -1.53243,8.24401 -5.36714,5.56907 z m -227.93236,-5.1718 c -1.31379,-1.4517 -1.04219,-5.35985 0.45425,-6.53698 4.09463,-3.22078 9.38396,2.06866 6.16322,6.16321 -1.22521,1.55769 -5.336,1.78986 -6.61747,0.37377 z m 53.93927,-15.49607 c -1.94886,-3.19636 -0.76576,-6.37531 2.37261,-6.37531 3.44266,0 5.02741,1.46064 5.04477,4.64934 0.0192,3.51512 -5.5381,4.80822 -7.41738,1.72597 z m -29.28512,-3.61021 c -1.85343,-1.0815 -1.61014,-5.97806 0.34101,-6.86711 4.54293,-2.06988 8.4361,2.87654 5.26823,6.69351 -0.62484,0.75303 -4.41517,0.87033 -5.60924,0.1736 z m -74.89157,-2.28164 c -2.49398,-1.06521 -1.84804,-6.48311 0.85343,-7.15683 3.64905,-0.91011 5.70595,0.6199 5.38074,4.00274 -0.30255,3.14938 -3.02284,4.52567 -6.23417,3.15409 z m 383.18859,-0.37136 c -1.50546,-0.93338 -1.8089,-4.24389 -0.55327,-6.0365 1.02797,-1.46761 4.85337,-1.4773 6.21505,-0.0157 3.3561,3.60241 -1.4047,8.69163 -5.66178,6.05225 z m 77.65008,-5.47046 c -1.46763,-1.02795 -1.47733,-4.85341 -0.0164,-6.21505 1.01473,-0.94538 1.01473,-0.94538 -0.27621,-0.94538 -4.164,0 -5.88626,-5.91242 -2.2759,-7.8128 4.46517,-2.35028 8.79592,2.9439 5.28229,6.45749 -1.35526,1.35531 -1.35526,1.35531 0.14453,1.35531 3.21208,0 4.93937,4.61729 2.6018,6.95489 -1.13279,1.13275 -3.9838,1.24006 -5.46075,0.20554 z m -393.29735,-0.93122 c -1.05023,-2.76218 -0.0429,-4.37457 2.73371,-4.37457 2.56019,0 3.63535,2.02864 2.56019,4.83049 -0.52275,1.36229 -4.74075,0.99903 -5.2939,-0.45592 z m 348.0594,-1.97687 c -0.98978,-1.09364 -1.01361,-4.40356 -0.0391,-5.37836 2.08068,-2.08071 6.22628,-0.25048 6.22628,2.74882 0,3.07948 -4.17473,4.85363 -6.18743,2.62954 z m -411.53559,-0.83743 c -3.2338,-4.11099 2.03745,-9.40855 6.14595,-6.17678 1.94585,1.53061 2.04786,5.83798 0.16667,7.03419 -1.44329,0.91768 -5.3318,0.38953 -6.31262,-0.85741 z m 307.89006,-13.09755 c -2.60988,-2.60991 -0.60128,-6.83221 3.05407,-6.42019 2.57699,0.29044 2.96969,0.67795 3.23992,3.19597 0.38128,3.55275 -3.81554,5.70265 -6.29399,3.22422 z m 25.64328,-4.3846 c -0.97288,-2.5351 -0.0237,-4.2473 2.35389,-4.2473 3.57654,0 3.68247,4.54913 0.11096,4.77811 -1.59855,0.1025 -2.27828,-0.0439 -2.46513,-0.53081 z m -311.34706,-2.58882 c -0.79672,-0.79672 -1.35526,-1.84775 -1.35526,-2.55012 0,-1.11958 -0.14155,-1.19482 -2.24649,-1.19482 -3.42585,0 -5.35134,-3.92745 -3.05261,-6.22627 2.02384,-2.02375 6.18093,-0.53877 6.21153,2.21887 0.0128,1.08429 0.1621,1.26077 0.82621,0.97258 4.69992,-2.03941 8.59172,1.50787 6.55609,5.97567 -1.12393,2.46668 -4.84567,2.89794 -6.93947,0.80409 z m 37.4761,-0.0728 c -0.95927,-0.55871 -1.14027,-4.08519 -0.25497,-4.97037 0.92347,-0.92351 4.41334,-0.68692 5.47116,0.37092 2.94028,2.94034 -1.43736,6.80042 -5.21619,4.59945 z m 274.13835,-5.7586 c 0,-2.08646 0,-2.08646 2.0865,-2.08646 2.08649,0 2.08649,0 2.08649,2.08646 0,2.08647 0,2.08647 -2.08649,2.08647 -2.0865,0 -2.0865,0 -2.0865,-2.08647 z m -14.82068,-6.22891 c -1.61873,-3.02447 1.16256,-5.80574 4.18713,-4.1871 1.0359,0.55446 1.26521,3.60276 0.34037,4.52755 -0.92484,0.92479 -3.97307,0.69557 -4.5275,-0.34045 z m 145.05747,-15.17474 c -1.80902,-0.48351 -2.37037,-4.47311 -0.85785,-6.09663 1.24289,-1.33415 4.57301,-1.41846 5.7256,-0.14493 3.08495,3.40876 -0.11477,7.51183 -4.86775,6.24156 z m -211.61221,-1.55788 c -0.76421,-2.40785 0.13991,-3.69885 2.59023,-3.69885 2.28147,0 2.28147,0 2.28147,2.3183 0,2.59731 -4.11535,3.76354 -4.8717,1.38055 z m 114.38795,-4.7189 c -0.77032,-0.77038 -0.6989,-3.84837 0.10475,-4.51543 2.53152,-2.10096 6.35537,0.90946 4.98258,3.92258 -0.58558,1.28493 -3.99764,1.68256 -5.08742,0.59285 z m -70.91658,-2.53827 c -1.38621,-0.96701 -1.51498,-5.14422 -0.19534,-6.33849 1.95599,-1.77012 6.29463,-0.76131 6.80961,1.58333 0.97078,4.41995 -3.0012,7.27551 -6.61427,4.75516 z m -179.8416,-1.37522 c -0.60347,-2.40478 0.28713,-3.64416 2.61901,-3.64416 2.07544,0 2.07544,0 2.21553,2.43421 0.1674,2.90822 -4.13791,3.98572 -4.83454,1.20995 z m 153.14261,-0.0126 c -0.17005,-0.16999 -0.30603,-0.95242 -0.3021,-1.73871 0.0192,-3.70192 4.30202,-3.84777 4.53901,-0.15456 0.13525,2.10791 -2.73827,3.39195 -4.23691,1.89327 z m -66.81794,-1.64872 c -2.59818,-3.70925 1.74494,-8.22023 5.52787,-5.74161 1.28174,0.8399 1.65955,4.06158 0.68896,5.87527 -0.74192,1.38626 -5.21975,1.29001 -6.21683,-0.13366 z m 181.51246,-2.18463 c -1.28325,-2.39789 -0.41253,-4.20342 2.02707,-4.20342 2.20214,0 3.05696,0.61784 3.05696,2.20968 0,2.04839 -0.81056,2.89058 -2.78202,2.89058 -1.32675,0 -1.95242,-0.24375 -2.30201,-0.89684 z m -216.99239,-4.17293 c -1.778,-3.32233 1.3284,-6.42883 4.65088,-4.65077 1.04165,0.55755 1.28,4.05156 0.34037,4.99121 -0.93973,0.93966 -4.43372,0.70133 -4.99125,-0.34044 z m -26.7926,0.12612 c -0.35462,-0.14308 -0.57964,-1.12872 -0.57964,-2.53893 0,-3.43059 4.30531,-3.41348 4.55088,0.018 0.18274,2.55447 -1.39918,3.55866 -3.97124,2.52083 z m 79.35432,-1.2716 c -0.82694,-2.15521 -8.2e-4,-3.74991 2.01782,-3.89598 1.97051,-0.14258 1.97051,-0.14258 1.97051,2.20237 0,2.39788 -3.197,3.7555 -3.98833,1.69361 z m 37.67556,-0.66022 c -0.97343,-1.07549 -1.05562,-5.29057 -0.11863,-6.06833 0.44411,-0.3686 0.57133,-1.11681 0.4032,-2.37064 -0.32694,-2.43784 0.39279,-3.23192 2.92951,-3.23192 2.3706,0 3.22357,1.06015 2.82567,3.51234 -0.16457,1.01429 -0.0256,1.7157 0.41324,2.07964 0.93544,0.77636 0.88722,5.24408 -0.0667,6.19822 -1.0716,1.07166 -5.38129,0.99114 -6.38614,-0.11931 z m -159.1524,-0.72615 c -0.83589,-2.17839 0.0128,-4.21898 1.81663,-4.36752 2.69371,-0.22181 3.86211,1.55435 2.81581,4.28085 -0.3695,0.96317 -4.26805,1.03611 -4.63244,0.0867 z m 409.67537,-0.99103 c -1.03858,-1.25144 -1.13014,-4.95236 -0.15147,-6.12264 3.51073,-4.19793 10.0074,1.30785 6.62178,5.61183 -1.1522,1.46485 -5.40021,1.80022 -6.47031,0.51081 z m -28.64135,-0.30918 c -1.91408,-1.91408 -0.31642,-5.47118 2.4574,-5.47118 2.39169,0 3.0137,0.62219 3.0137,3.01378 0,2.39162 -0.62201,3.01379 -3.0137,3.01379 -1.04564,0 -2.15131,-0.25038 -2.4574,-0.55639 z m -79.0747,-12.34664 c -3.26706,-3.61013 2.28411,-9.08315 5.72396,-5.64332 1.23393,1.23404 1.28123,4.63622 0.0795,5.72386 -1.19345,1.08001 -4.79825,1.02996 -5.80328,-0.0806 z m -318.91819,-1.69436 c -1.0137,-2.2249 -0.0466,-3.71713 2.41024,-3.71713 2.07526,0 2.07526,0 2.07526,2.3183 0,2.85905 -3.34485,3.9022 -4.4855,1.39883 z m 180.54727,0.42949 c -1.46759,-1.02794 -1.47736,-4.85338 -0.0164,-6.21502 2.56421,-2.38885 6.40386,-0.58182 6.40386,3.01378 0,3.50301 -3.47271,5.24326 -6.38815,3.20124 z m 255.83658,-1.13284 c 0,-1.85465 0,-1.85465 2.08649,-1.85465 2.08648,0 2.08648,0 2.08648,1.85465 0,1.85463 0,1.85463 -2.08648,1.85463 -2.08649,0 -2.08649,0 -2.08649,-1.85463 z m -144.01155,0.74424 c -0.8822,-2.29912 0,-4.21872 2.01608,-4.36426 1.97048,-0.14258 1.97048,-0.14258 1.97048,-2.20238 0,-3.49216 4.26112,-5.41556 7.21402,-3.25632 3.11182,2.27542 0.82166,7.45591 -3.29607,7.45591 -2.70585,0 -2.99062,0.0906 -2.99062,0.95051 0,1.90057 -4.25718,3.12781 -4.91389,1.41654 z M 508.8927,408.9592 c -2.5191,-2.78352 2.05142,-7.2757 4.70385,-4.62327 0.72064,0.72067 0.72064,4.19412 0,4.91479 -0.86603,0.86593 -3.82221,0.68274 -4.70385,-0.29152 z m 395.02426,0.1383 c -0.85319,-2.22339 0.0202,-3.93179 2.00464,-3.91988 3.26428,0.0197 3.45081,4.29965 0.19775,4.53736 -1.42929,0.10443 -1.98509,-0.0513 -2.20239,-0.61748 z m -441.69382,-2.18348 c -1.42996,-0.74862 -1.94567,-4.96442 -0.75325,-6.15685 2.25124,-2.25112 6.3171,-0.38403 6.3171,2.90081 0,3.23876 -2.64284,4.78537 -5.56385,3.25604 z m 27.80803,-6.6421 c -1.17598,-3.09303 -0.31589,-4.83824 2.38449,-4.83824 3.28439,0 4.69325,2.28691 3.00037,4.87048 -1.12786,1.72124 -4.72641,1.6997 -5.38486,-0.0322 z m 250.44092,-2.81649 c -1.21169,-1.36866 -1.22228,-4.54265 -0.0192,-5.66383 2.53663,-2.36312 5.9929,-0.7974 5.9929,2.71477 0,3.28215 -3.95179,5.23298 -5.97381,2.94906 z M 421.86145,393.7828 c -0.8179,-0.98545 -1.17206,-5.54725 -0.46466,-5.98445 0.34849,-0.21535 -0.0128,-0.61227 -0.99078,-1.10302 -3.31179,-1.65399 -2.24613,-7.55585 1.478,-8.18504 3.56914,-0.603 5.31198,1.2143 5.02997,5.24511 -0.13178,1.88252 0.0256,2.34854 1.17425,3.48296 1.44439,1.4262 1.60749,4.98244 0.30055,6.55716 -0.82512,0.99409 -5.69966,0.98459 -6.52733,-0.0127 z m 52.14355,-3.21751 c -0.7021,-2.79739 0.95334,-4.4528 3.7507,-3.7507 2.60713,0.65434 1.61014,4.90985 -1.15033,4.90985 -2.07671,0 -2.33882,-0.11679 -2.60037,-1.15915 z m 384.44721,-0.6595 c -2.51465,-2.77869 -0.83779,-6.99086 2.78303,-6.99086 2.76007,0 3.90749,1.14742 3.90749,3.90744 0,3.44797 -4.48851,5.51657 -6.69052,3.08342 z m 80.67781,-0.30024 c -2.42637,-2.4265 -0.89064,-6.22698 2.51641,-6.22698 2.89943,0 4.33036,3.13434 2.76562,6.05807 -0.61393,1.14717 -4.18935,1.26151 -5.28203,0.16891 z m -13.16058,-8.56332 c -2.37517,-2.21278 -0.71812,-6.0095 2.62273,-6.0095 2.23151,0 3.31739,1.11224 3.31739,3.39802 0,3.2137 -3.59649,4.79486 -5.94012,2.61148 z m -50.62623,-3.92305 c 0,-2.08645 0,-2.08645 2.08649,-2.08645 2.08635,0 2.08635,0 2.08635,2.08645 0,2.08648 0,2.08648 -2.08635,2.08648 -2.08649,0 -2.08649,0 -2.08649,-2.08648 z m -435.4764,-0.0845 c -3.51856,-2.25457 -1.6475,-7.56589 2.66539,-7.56589 2.90531,0 3.69472,0.83046 3.69472,3.88716 0,3.88706 -3.17188,5.72166 -6.36011,3.67873 z m 25.68985,-3.48085 c 0.15863,-2.20401 2.28394,-3.14633 3.57846,-1.58663 1.30338,1.57056 0.44457,3.2851 -1.72393,3.44127 -1.99855,0.14394 -1.99855,0.14394 -1.85453,-1.85464 z m 391.70387,-3.15772 c 0,-2.31829 0,-2.31829 2.08649,-2.31829 2.08648,0 2.08648,0 2.08648,2.31829 0,2.31829 0,2.31829 -2.08648,2.31829 -2.08649,0 -2.08649,0 -2.08649,-2.31829 z m -404.42647,-5.60104 c -1.15671,-0.67372 -1.13142,-4.6299 0.0365,-5.68674 2.47143,-2.23657 6.10705,-0.44967 6.10705,3.00161 0,2.9936 -3.20722,4.39537 -6.14358,2.68513 z m 434.40428,-9.6203 c -1.31377,-1.4517 -1.04211,-5.35984 0.45439,-6.53699 4.09453,-3.22077 9.38401,2.06867 6.16323,6.16322 -1.22523,1.55769 -5.33602,1.78986 -6.61762,0.37377 z m -478.79063,-3.43191 c -4.13445,-2.18186 -2.61234,-8.23895 2.0706,-8.23895 3.38138,0 4.41161,0.9625 4.41161,4.12156 0,3.77006 -3.24019,5.8282 -6.48221,4.11739 z m 461.3775,-1.46059 c -1.5607,-1.88055 -0.42779,-4.22824 2.04058,-4.22824 2.31828,0 2.31828,0 2.31828,2.31829 0,2.50454 -2.83461,3.74657 -4.35886,1.90995 z m -17.47455,-5.15556 c -0.61571,-2.45336 0.082,-3.47744 2.3686,-3.47744 2.07754,0 2.07754,0 2.07754,2.31828 0,2.76635 -3.79449,3.75559 -4.44614,1.15916 z m -40.04874,-2.05597 c -1.37405,-2.56757 -0.1854,-4.66709 2.6424,-4.66709 1.7688,0 2.44151,0.76652 2.44151,2.78196 0,2.74842 -3.85654,4.17844 -5.08391,1.88513 z m -22.86871,-1.70921 c -0.4037,-0.40361 -0.43573,-3.07153 -0.0492,-4.0791 0.36158,-0.94237 3.5613,-0.99432 4.32821,-0.0704 1.94953,2.34902 -2.12683,6.30172 -4.27928,4.14939 z m 25.2044,-7.88884 c -2.32333,-2.95359 -0.65468,-6.66051 2.99818,-6.66051 4.15453,0 5.80061,5.4617 2.21475,7.34914 -1.83678,0.9668 -4.15128,0.66106 -5.21293,-0.68863 z m -446.49086,-3.90865 c -1.65672,-1.37955 -1.95115,-5.15902 -0.52046,-6.68184 1.97727,-2.10478 6.7287,-1.80904 7.60459,0.47331 1.9243,5.0147 -3.16329,9.47345 -7.08413,6.20853 z m 423.11429,0.10947 c -1.3342,-1.47423 -1.05245,-5.81542 0.45427,-7.00063 4.30085,-3.38306 10.00993,2.32601 6.62696,6.62688 -1.23331,1.56788 -5.78324,1.80805 -7.08123,0.37375 z M 638.20792,314.65386 c -2.30129,-3.28562 2.23188,-7.54114 5.04093,-4.73214 0.8674,0.86754 0.98411,4.39426 0.17214,5.20623 -0.99945,0.99948 -4.39736,0.69046 -5.21307,-0.47409 z m 333.88006,-3.99036 c -2.3256,-2.56978 -0.55782,-6.57063 2.90322,-6.57063 3.4551,0 5.53099,5.24744 2.76802,6.9972 -1.20077,0.76049 -4.84504,0.4864 -5.67124,-0.42657 z M 680.49052,300.34647 c -0.95297,-0.55505 -1.12712,-3.63455 -0.25507,-4.50673 1.69526,-1.69518 5.0076,-0.33694 5.0076,2.05335 0,2.531 -2.44877,3.79514 -4.75253,2.45338 z m -42.29694,-1.33082 c -2.32941,-4.50463 2.0664,-8.64875 6.14431,-5.79248 1.37544,0.96337 1.49645,5.204 0.18256,6.39308 -1.56713,1.41818 -5.47472,1.04723 -6.32687,-0.6006 z m -136.01506,-2.4871 c -1.33288,-1.41895 -1.42987,-5.35628 -0.16009,-6.50541 1.45169,-1.31378 5.35983,-1.04214 6.53682,0.45433 3.28476,4.17581 -2.75453,9.90667 -6.37673,6.05108 z m 161.2725,-4.95447 c 0,-1.85463 0,-1.85463 1.8547,-1.85463 1.85471,0 1.85471,0 1.85471,1.85463 0,1.85464 0,1.85464 -1.85471,1.85464 -1.8547,0 -1.8547,0 -1.8547,-1.85464 z m 15.10205,0.66238 c -1.99288,-1.99292 -0.53287,-4.83531 2.48376,-4.83531 2.46896,0 2.81517,0.36395 2.81517,2.95897 0,2.51337 -3.44275,3.73244 -5.29893,1.87634 z m -60.16978,-3.69485 c -1.24074,-2.72303 2.22256,-5.34683 4.53006,-3.4319 0.80584,0.66889 0.87489,3.28523 0.10721,4.05335 -1.08329,1.08319 -4.04074,0.68682 -4.63673,-0.62145 z m 165.92288,-1.98837 c -1.21816,-1.34595 -1.04942,-5.3932 0.26309,-6.31251 4.16855,-2.9198 9.04979,1.96135 6.12992,6.12995 -0.96328,1.37536 -5.20397,1.49646 -6.39301,0.18256 z m -163.48488,-4.4518 c -1.40878,-1.69739 -0.40612,-4.19468 1.74612,-4.34954 3.01453,-0.2169 4.22769,1.53671 2.84732,4.11582 -0.5843,1.09175 -3.74769,1.2527 -4.59344,0.23372 z m 338.46049,-2.08835 c -1.41174,-2.63779 -0.087,-5.13073 2.72692,-5.13073 2.88669,0 4.50314,3.35157 2.55576,5.29896 -1.09318,1.09328 -4.66835,0.97941 -5.28268,-0.16823 z m -380.67205,-3.13198 c -2.1938,-0.93582 -3.07636,-4.75326 -1.57042,-6.7923 1.61206,-2.18264 6.41025,-1.91351 7.30167,0.40956 1.54311,4.02104 -2.00484,7.9723 -5.73125,6.38274 z m 248.86067,-3.74128 c -1.85393,-1.14949 -1.88634,-5.12787 -0.053,-6.56968 2.93865,-2.31155 6.6605,-0.51672 6.6605,3.21196 0,3.66059 -3.36242,5.36939 -6.60703,3.35772 z m -17.15533,-4.00315 c -1.15157,-0.87419 -1.11348,-4.50135 0.058,-5.56192 3.59775,-3.25594 8.6128,1.19956 5.827,5.17687 -0.84335,1.20403 -4.49205,1.44274 -5.88539,0.38505 z m -134.69296,-4.6808 c -1.6412,-1.18599 -1.52567,-5.81846 0.17844,-7.15891 4.18751,-3.29384 10.07027,2.36194 6.73756,6.47759 -1.12996,1.39553 -5.35216,1.81145 -6.916,0.68132 z m 281.12636,-14.87604 c -2.17741,-2.17739 -0.61142,-5.76263 2.51705,-5.76263 2.63093,0 3.24563,0.57471 3.24563,3.03466 0,3.07871 -3.67305,4.81751 -5.76268,2.72797 z m -368.57012,-1.97395 c -2.16467,-2.39192 -0.2937,-6.57063 2.94192,-6.57063 3.28485,0 5.22568,4.51149 2.86138,6.6512 -1.19343,1.08 -4.79828,1.02995 -5.8033,-0.0806 z m 260.82908,-0.17214 c -1.91408,-1.9141 -0.31643,-5.47117 2.45739,-5.47117 2.39157,0 3.0137,0.62218 3.0137,3.01378 0,2.7738 -3.55701,4.37148 -5.47109,2.45739 z m -6.23624,-0.87172 c -0.95295,-0.55504 -1.12724,-3.63453 -0.25502,-4.50673 0.71989,-0.7198 3.73131,-0.7198 4.45106,0 2.41262,2.41262 -1.17528,6.26615 -4.19604,4.50673 z M 728.6537,244.4978 c -1.05507,-2.74954 0.10338,-4.52644 2.80695,-4.30385 3.06667,0.25249 2.72823,4.7204 -0.37279,4.92135 -1.64183,0.10644 -2.21197,-0.0382 -2.43416,-0.6175 z m 185.90327,-6.86324 c -2.77509,-2.77509 -0.82985,-7.6787 3.05948,-7.71237 3.78137,-0.0327 6.06119,4.51538 3.71541,7.41219 -1.36472,1.68544 -5.21886,1.8562 -6.77489,0.30018 z m -28.28468,-1.03717 c -1.11008,-1.11011 -0.99254,-5.12508 0.16824,-5.74631 2.92251,-1.56411 5.5943,-0.24802 5.5943,2.75566 0,3.29775 -3.59144,5.16169 -5.76254,2.99065 z m -103.6272,-0.95674 c -3.39243,-4.31277 2.27667,-9.58515 6.62695,-6.16321 3.11434,2.44978 0.98712,7.38489 -3.18307,7.38489 -2.12999,0 -2.61946,-0.17361 -3.44388,-1.22168 z m 117.46503,-0.79874 c -0.80879,-2.10798 -0.0366,-3.31165 2.12533,-3.31165 3.20779,0 3.31259,3.62061 0.11224,3.85205 -1.41049,0.10202 -2.04978,-0.0524 -2.23707,-0.5404 z m -186.0309,-1.80476 c 0.14228,-1.96611 0.14676,-1.97056 1.99718,-1.97056 1.8505,0 1.85489,0.006 1.99717,1.97056 0.14265,1.97054 0.14265,1.97054 -1.99717,1.97054 -2.13983,0 -2.13983,0 -1.99718,-1.97054 z m -81.22958,-2.06767 c -2.54778,-0.93676 -3.40796,-5.8101 -1.28786,-7.29514 2.56183,-1.79435 6.59335,-0.4843 7.1181,2.31306 0.68667,3.66072 -2.35498,6.25994 -5.83024,4.98208 z m 254.54875,-5.23496 c 0,-1.85465 0,-1.85465 1.85455,-1.85465 1.85468,0 1.85468,0 1.85468,1.85465 0,1.85464 0,1.85464 -1.85468,1.85464 -1.85455,0 -1.85455,0 -1.85455,-1.85464 z m 73.81451,0.37092 c -0.85445,-0.85446 -0.71837,-4.84617 0.17694,-5.18973 2.79563,-1.07278 5.29427,0.19847 5.29427,2.6936 0,2.54868 -3.72109,4.24631 -5.47121,2.49613 z m -152.7525,-3.19001 c -0.95925,-0.55872 -1.1401,-4.08522 -0.25502,-4.97038 0.72077,-0.72069 4.19416,-0.72069 4.9148,0 2.62512,2.62501 -1.37002,6.88644 -4.65978,4.97038 z"
       id="path1147-1-3" />
  </g>
</svg>
