<?xml version="1.0" encoding="UTF-8" standalone="no"?>
<svg
   xmlns:dc="http://purl.org/dc/elements/1.1/"
   xmlns:cc="http://creativecommons.org/ns#"
   xmlns:rdf="http://www.w3.org/1999/02/22-rdf-syntax-ns#"
   xmlns:svg="http://www.w3.org/2000/svg"
   xmlns="http://www.w3.org/2000/svg"
   xmlns:sodipodi="http://sodipodi.sourceforge.net/DTD/sodipodi-0.dtd"
   xmlns:inkscape="http://www.inkscape.org/namespaces/inkscape"
   version="1.1"
   id="svg2"
   width="1366"
   height="768"
   viewBox="0 0 1366 768"
   sodipodi:docname="star04.svg"
   inkscape:version="1.0.2-2 (e86c870879, 2021-01-15)">
  <metadata
     id="metadata8">
    <rdf:RDF>
      <cc:Work
         rdf:about="">
        <dc:format>image/svg+xml</dc:format>
        <dc:type
           rdf:resource="http://purl.org/dc/dcmitype/StillImage" />
        <dc:title />
      </cc:Work>
    </rdf:RDF>
  </metadata>
  <defs
     id="defs6" />
  <sodipodi:namedview
     pagecolor="#808080"
     bordercolor="#666666"
     borderopacity="1"
     objecttolerance="10"
     gridtolerance="10"
     guidetolerance="10"
     inkscape:pageopacity="0"
     inkscape:pageshadow="2"
     inkscape:window-width="1920"
     inkscape:window-height="1009"
     id="namedview4"
     showgrid="false"
     inkscape:zoom="0.5445654"
     inkscape:cx="529.62673"
     inkscape:cy="317.02178"
     inkscape:window-x="-8"
     inkscape:window-y="-8"
     inkscape:window-maximized="1"
     inkscape:current-layer="g10"
     inkscape:document-rotation="0" />
  <g
     inkscape:groupmode="layer"
     inkscape:label="Image"
     id="g10">
    <path
       style="fill:#cfd2d8;stroke-width:0.545561;fill-opacity:1"
       d="m 1033.3953,335.50578 c 2.4734,2.81932 0.8025,6.74423 -2.871,6.74423 -3.048,0 -3.76,-0.6868 -3.76,-3.62665 0,-3.77317 4.2875,-5.78893 6.631,-3.11758 z m -76.0299,4.63861 c 1.8818,1.94123 0.4064,5.98441 -2.1838,5.98441 -3.276,0 -4.6531,-2.5091 -3.0613,-5.57755 0.6424,-1.23812 4.1738,-1.51205 5.2451,-0.40686 z m 42.676,0.48768 c 1.0657,0.64031 1.2847,3.79689 0.384,5.53316 -0.7012,1.35157 -4.3404,1.48263 -5.5827,0.20105 -3.0402,-3.13615 1.39,-8.02264 5.1987,-5.73421 z m 82.3203,10.06901 c 3.7803,3.35427 1.4284,9.28051 -3.6829,9.28051 -3.1778,0 -4.646,-1.74416 -4.646,-5.51925 0,-4.67569 4.8368,-6.85994 8.3289,-3.76126 z m -39.8555,3.57331 c 2.2251,0.59489 2.6604,5.61368 0.6654,7.67177 -2.7569,2.84389 -7.8131,0.8885 -7.8131,-3.02154 0,-4.18517 2.5885,-5.86917 7.1477,-4.65023 z m -80.3333,12.73024 c 1.5907,1.14467 1.7347,5.61271 0.2263,7.02092 -1.3712,1.28008 -5.042,1.20768 -6.2089,-0.12245 -3.7527,-4.27764 1.3878,-10.20494 5.9826,-6.89847 z m 89.8371,5.98802 c 0,2.7329 -1.1864,3.5665 -4.0286,2.83063 -3.008,-0.77879 -1.8618,-5.31358 1.3428,-5.31358 2.6858,0 2.6858,0 2.6858,2.48295 z m -57.0567,1.1502 c 1.8481,1.33535 1.7135,5.83875 -0.2215,7.40887 -3.1982,2.59526 -7.0102,1.02742 -7.5442,-3.10292 -0.554,-4.28509 4.1697,-6.90427 7.7657,-4.30595 z m -31.9747,2.12521 c 1.4386,1.1265 1.2773,5.01733 -0.2538,6.12363 -2.8475,2.05746 -6.3262,0.39889 -6.3262,-3.0162 0,-3.34785 3.9131,-5.19584 6.58,-3.10743 z m -153.8765,3.97001 c 1.6171,1.16849 1.6884,5.27657 0.1195,6.89499 -2.5359,2.616 -7.52,0.68634 -7.52,-2.91148 0,-4.25005 4.0297,-6.41911 7.4005,-3.98351 z m -26.6033,1.39825 c 1.212,0.7282 1.2753,4.51753 0.096,5.73421 -2.1811,2.24995 -6.1388,0.39735 -6.1388,-2.87355 0,-2.99105 3.2586,-4.53361 6.0429,-2.86066 z m 44.5828,8.86579 c 1.3213,0.79385 1.2927,4.99563 -0.042,6.24202 -2.4208,2.25999 -6.5377,0.53233 -6.5377,-2.74354 0,-3.48359 3.504,-5.34664 6.5799,-3.49848 z m 55.3256,1.10822 c 0.6009,0.36101 0.9401,1.23825 0.9401,2.43133 0,3.18203 -0.3896,3.61951 -3.2229,3.61951 -2.8183,0 -3.2228,-0.44389 -3.2228,-3.53622 0,-2.87604 2.7862,-4.14861 5.5056,-2.51462 z m -31.8257,4.93206 c 0,2.39376 -1.3363,3.29759 -3.7212,2.51676 -2.5667,-0.84042 -1.4948,-4.72265 1.3042,-4.72265 2.417,0 2.417,0 2.417,2.20589 z m -65.3775,-1.30844 c 1.8205,1.878 0.2767,5.75189 -2.2921,5.75189 -2.995,0 -3.9108,-1.38183 -2.8974,-4.37218 0.4905,-1.44774 4.1742,-2.42709 5.1895,-1.37971 z m 79.2238,1.07336 c 1.8701,1.35126 1.7302,6.37923 -0.2215,7.96299 -2.0925,1.69795 -4.7629,1.50964 -6.6832,-0.47128 -4.4773,-4.61874 1.6619,-11.2799 6.9047,-7.49171 z m 486.4294,9.70575 c 2.3081,1.87289 2.1063,7.28671 -0.3304,8.86281 -3.8963,2.52028 -8.477,0.003 -8.4429,-4.63956 0.035,-4.73226 5.1259,-7.18297 8.7733,-4.22325 z m -594.02124,1.24478 c 2.70599,4.26036 1.49983,9.79723 -2.13433,9.79723 -2.93642,0 -3.31987,-0.54715 -3.78326,-5.39854 -0.52863,-5.53473 3.36,-8.4253 5.91759,-4.39869 z m 93.63824,-0.066 c 1.269,1.30907 0.8117,5.92002 -0.624,6.29173 -4.3992,1.13901 -7.226,-2.0007 -4.9821,-5.53358 0.998,-1.57111 4.3753,-2.02784 5.6061,-0.75815 z m -116.57204,0.19765 c 3.19873,2.31125 0.99161,8.00321 -3.10332,8.00321 -3.17781,0 -4.29711,-1.25074 -4.29711,-4.80183 0,-2.78932 1.34782,-4.06396 4.29711,-4.06396 1.05022,0 2.4467,0.38816 3.10332,0.86258 z m 285.54464,2.75019 c 2.3596,2.43402 0.5622,5.9612 -2.9077,5.70624 -3.6447,-0.2678 -3.8104,-6.16494 -0.1809,-6.43845 1.5017,-0.11318 2.4981,0.12303 3.0886,0.73221 z m -59.1539,5.85151 c 0.6699,0.4025 0.94,1.26547 0.94,3.00323 0,1.73775 -0.2701,2.60073 -0.94,3.00322 -0.7626,0.45817 -0.5669,0.56798 1.0359,0.58165 3.1944,0.0273 5.2142,4.57461 2.9856,6.72216 -0.396,0.38164 -0.5973,1.53141 -0.4835,2.76226 0.3576,3.867 -3.3366,6.08321 -7.1514,4.29022 -2.1913,-1.03 -2.5741,-6.48088 -0.5618,-7.99889 0.45,-0.33935 0.818,-1.29163 0.818,-2.11616 0,-0.82453 0.2503,-1.98145 0.5561,-2.57094 0.432,-0.83275 0.3806,-1.07179 -0.2302,-1.07179 -1.3379,0 -2.4744,-1.65425 -2.4744,-3.60173 0,-3.09248 2.808,-4.62416 5.5057,-3.00323 z m -240.87741,5.08114 c -0.16478,2.34967 -0.17001,2.35497 -2.31379,2.35497 -2.14368,0 -2.14891,-0.005 -2.31369,-2.35497 -0.16519,-2.35497 -0.16519,-2.35497 2.31369,-2.35497 2.47897,0 2.47897,0 2.31379,2.35497 z m 498.40721,-0.46355 c 1.2515,1.11044 1.5071,1.77658 1.5071,3.92676 0,5.10655 -5.9639,7.38398 -9.1399,3.49026 -4.1653,-5.10656 2.7088,-11.78631 7.6328,-7.41702 z m -141.507,1.8534 c 1.7405,1.1132 2.1781,5.98099 0.6769,7.52961 -3.0547,3.15117 -8.3312,0.9225 -8.3312,-3.51889 0,-4.26646 3.9876,-6.3559 7.6543,-4.01072 z M 932.392,424.6465 c 1.914,0.51172 2.6339,5.05723 1.1476,7.24624 -1.1168,1.64496 -5.5101,1.76736 -6.8921,0.19202 -3.6158,-4.12162 0.1091,-8.94489 5.7445,-7.43826 z m 46.5086,7.14232 c 2.5226,3.30836 0.8186,8.12169 -3.1183,8.80783 -4.694,0.8181 -7.8825,-3.66542 -5.6565,-7.95405 1.4562,-2.8057 6.8838,-3.33378 8.7748,-0.85378 z m 121.5865,2.48805 c 1.2119,0.72819 1.2753,4.51753 0.095,5.7342 -2.1858,2.25489 -5.6016,0.64526 -5.6016,-2.63965 0,-3.44254 2.5454,-4.87323 5.5057,-3.09455 z m -106.7955,0.82637 c 3.0239,3.1194 -1.2136,7.90464 -5.0998,5.75909 -1.2068,-0.66631 -1.4829,-4.84194 -0.3944,-5.96491 0.9252,-0.95441 4.4993,-0.82052 5.4942,0.20582 z m 83.4087,1.7736 c 3.5162,2.83488 1.5087,8.43788 -3.0232,8.43788 -3.3289,0 -4.61,-1.3339 -4.61,-4.79978 0,-4.0321 4.4901,-6.17216 7.6332,-3.6381 z m -153.5063,1.58621 c 2.8319,3.71396 0.5763,8.60723 -4.0451,8.77496 -2.0931,0.0759 -2.9657,0.41246 -4.0975,1.58013 -2.2139,2.28381 -5.3648,2.09726 -7.6989,-0.45581 -1.3207,-1.44458 -2.2278,-1.9441 -3.5549,-1.95783 -4.2823,-0.0443 -6.3989,-6.57415 -2.91,-8.97739 1.6338,-1.12533 5.9492,-0.44144 6.9496,1.10133 1.4502,2.23648 5.5594,2.23554 6.9279,-0.002 1.3709,-2.24124 6.7375,-2.28187 8.4289,-0.0638 z m 45.4842,4.92397 c 1.1059,1.74091 0.7168,5.71748 -0.6609,6.75673 -4.2604,3.21371 -9.7522,-2.22507 -6.8541,-6.78792 1.2938,-2.03688 6.2145,-2.01646 7.515,0.0312 z m 130.9425,0.9801 c 2.3058,1.73934 0.9314,5.10343 -2.0851,5.10343 -2.6857,0 -2.6857,0 -2.8465,-2.56022 -0.1965,-3.12681 2.3898,-4.46055 4.9316,-2.54321 z m -278.4448,3.1944 c 0,2.80091 0,2.80091 -2.5514,2.63204 -4.2995,-0.2846 -4.1624,-5.43295 0.1445,-5.43295 2.4069,0 2.4069,0 2.4069,2.80091 z m 187.8802,0.27812 c 1.4713,1.06303 1.6909,5.19482 0.3498,6.57833 -2.5371,2.61726 -7.213,0.40773 -7.213,-3.40838 0,-3.48318 3.9225,-5.29486 6.8632,-3.16995 z m -209.2121,3.91364 c 1.7932,1.84986 0.2913,5.19778 -2.3318,5.19778 -2.7151,0 -2.7151,0 -2.5515,-2.63203 0.1606,-2.58112 3.2797,-4.21997 4.8833,-2.56575 z m 111.706,4.9606 c 2.0923,1.17092 2.1886,6.20307 0.1588,8.29698 -2.7864,2.87445 -7.8587,1.18887 -8.5942,-2.856 -0.9105,-5.0068 3.7918,-8.03983 8.4354,-5.44098 z m 13.2943,1.89951 c 0,2.28018 0,2.28018 -2.2828,2.10978 -2.2194,-0.16565 -2.2828,-0.22427 -2.2828,-2.10978 0,-1.8855 0.063,-1.94412 2.2828,-2.10978 2.2828,-0.17038 2.2828,-0.17038 2.2828,2.10978 z m -66.9126,1.97898 c 2.3792,2.45429 0.4712,6.33269 -3.1153,6.33269 -2.8405,0 -3.5605,-0.72836 -3.5605,-3.60172 0,-3.47887 4.2611,-5.22203 6.6758,-2.73097 z m 150.8922,10.67071 c 1.3888,1.58313 1.2004,5.9022 -0.3048,6.98987 -4.3459,3.14011 -9.4497,-2.04532 -6.533,-6.63741 1.1171,-1.75882 5.4099,-1.98009 6.8378,-0.35246 z m 320.3568,21.23675 c 2.1318,2.19911 0.2644,5.62316 -2.9192,5.35273 -3.307,-0.2809 -3.2168,-5.62671 0.099,-5.87914 1.2079,-0.092 2.4443,0.13885 2.82,0.52641 z m -307.233,2.99342 c 1.6367,1.18271 1.7109,5.80728 0.1194,7.44909 -4.1912,4.32363 -10.6584,-2.01746 -7.2209,-7.08015 1.0261,-1.51138 5.2189,-1.72921 7.1015,-0.36894 z m -41.0025,5.91005 c 2.9136,4.2911 -1.8674,9.22317 -6.027,6.21757 -2.9877,-2.15877 -0.9746,-7.44909 2.8346,-7.44909 1.826,0 2.5445,0.27716 3.1924,1.23152 z m -215.87621,3.45325 c 3.92984,4.05404 1.1211,7.53978 -5.93307,7.36314 -5.96203,-0.1493 -8.92298,-4.81828 -3.35708,-5.2935 1.35214,-0.11544 2.01429,-0.44346 2.01429,-0.99796 0,-2.21768 5.39468,-3.01227 7.27586,-1.07168 z m 559.83901,10.38707 c 2.0794,2.14509 0.3685,5.9844 -2.6668,5.9844 -2.2806,0 -3.1344,-1.0413 -3.1344,-3.82285 0,-2.49131 4.027,-3.99179 5.8012,-2.16155 z m -365.2568,15.51512 c 0.3545,0.36571 0.6446,1.81195 0.6446,3.21385 0,5.28604 -6.8426,5.8493 -7.8513,0.64629 -0.7031,-3.62623 4.6526,-6.4949 7.2067,-3.86014 z m -198.314,1.21618 c 1.03917,2.79367 0,5.0415 -2.41664,5.21976 -2.6533,0.19583 -3.25503,-0.3516 -3.26779,-2.97274 -0.0131,-2.73939 4.79427,-4.63984 5.68443,-2.24702 z m 108.4117,18.93765 c 2.2919,2.3643 0.2389,6.88681 -3.1262,6.88681 -1.5055,0 -1.8816,0.2457 -2.166,1.41491 -0.3164,1.30022 -0.5497,1.40127 -2.8782,1.24675 -3.6042,-0.23917 -4.071,-5.02393 -0.5198,-5.32714 1.8788,-0.16041 2.0143,-0.29272 2.0143,-1.96709 0,-3.03553 4.459,-4.5412 6.6759,-2.25424 z M 885.796,569.114 c 1.408,1.06209 1.4925,6.46745 0.1232,7.88005 -1.5282,1.57647 -5.9416,1.36271 -7.3272,-0.35487 -3.8304,-4.74809 2.3404,-11.19394 7.204,-7.52518 z m -50.0691,14.63373 c 1.7628,2.00938 1.1233,6.56772 -1.09,7.7695 -4.8278,2.62144 -9.4618,-2.91863 -6.3163,-7.55131 1.116,-1.64369 6.0288,-1.78842 7.4063,-0.21819 z m 300.9074,14.19956 c 2.0959,2.16207 1.7222,6.88558 -0.6323,7.99225 -4.1081,1.93089 -7.4492,-0.0193 -7.4492,-4.34804 0,-4.7116 4.9034,-6.92271 8.0815,-3.64421 z m 41.046,3.17728 c 3.6499,4.04136 -2.4697,10.51423 -6.4378,6.80963 -1.4261,-1.33131 -1.5069,-6.16589 -0.1212,-7.25099 1.5523,-1.21557 5.2898,-0.96407 6.559,0.44136 z M 809.407,617.54853 c 2.3666,2.69782 0.7668,7.29835 -2.5381,7.29835 -3.599,0 -5.3905,-3.66707 -3.537,-7.23987 0.7599,-1.46469 4.8072,-1.50364 6.0751,-0.0585 z m 172.9953,5.12442 c 4.3436,5.32523 -2.851,12.33849 -7.4883,7.29946 -1.8615,-2.02278 -1.6722,-6.36231 0.3475,-7.9644 2.1342,-1.6929 5.4709,-1.38218 7.1408,0.66494 z m -135.8085,4.63781 c 0.7517,3.08982 -0.076,4.2625 -2.8782,4.07656 -2.534,-0.16815 -2.534,-0.16815 -2.534,-2.66166 0,-3.12099 4.6983,-4.34926 5.4122,-1.4149 z m 41.9906,1.68545 c 1.8379,1.36944 1.7621,6.43133 -0.1154,7.70034 -4.5204,3.05549 -9.7529,-2.59437 -6.5663,-7.09006 0.9974,-1.40701 5.1085,-1.7825 6.6817,-0.61028 z m 334.7483,2.92126 c 3.6473,3.04673 1.3308,8.99865 -3.5024,8.99865 -3.9664,0 -5.0662,-1.13593 -5.0662,-5.23264 0,-4.4581 5.0717,-6.68714 8.5686,-3.76601 z m -446.1015,1.36438 c 2.0914,3.08015 0.4057,6.52604 -3.1924,6.52604 -2.63875,0 -4.0286,-1.33815 -4.0286,-3.87878 0,-2.54062 1.38985,-3.87878 4.0286,-3.87878 1.826,0 2.5444,0.27716 3.1924,1.23152 z m 126.424,1.67756 c -0.2693,3.84068 -4.1936,4.00161 -4.1936,0.17198 0,-2.52695 0,-2.52695 2.1793,-2.52695 2.1795,0 2.1795,0 2.0143,2.35497 z m 62.1678,7.3168 c 4.3889,4.52754 -1.6473,11.47708 -7.0029,8.06256 -2.1699,-1.38341 -2.725,-5.72151 -1.0482,-8.19113 1.2616,-1.85805 6.2018,-1.77915 8.0511,0.12857 z m -126.6288,-0.14105 c 0.3545,0.36572 0.6445,0.9891 0.6445,1.38529 0,0.4834 0.7882,0.72034 2.3962,0.72034 4.398,0 6.9026,8.69311 3.5124,12.19046 -3.279,3.38256 -8.3391,0.70318 -8.2722,-4.38017 0.043,-3.29288 0.01,-3.3774 -1.3742,-3.3774 -1.9352,0 -2.7079,-0.95581 -2.7079,-3.34961 0,-3.20433 3.7748,-5.27932 5.8012,-3.18891 z m 65.5314,3.87878 c 0.9193,0.94844 0.7969,4.08569 -0.1996,5.11367 -1.2204,1.25905 -4.3528,1.13424 -5.0455,-0.20105 -1.5635,-3.01349 -0.3375,-5.57754 2.6667,-5.57754 1.0635,0 2.2239,0.29921 2.5784,0.66492 z m -40.5811,6.5524 c 2.2492,1.42448 0.8556,7.18957 -1.7379,7.18957 -0.9328,0 -1.7786,0.39204 -2.0919,0.9697 -1.8224,3.35924 -8.1217,0.6386 -8.1217,-3.50772 0,-4.07284 7.9682,-7.17409 11.9515,-4.65155 z m 28.4685,1.90863 c 3.2686,4.63714 -2.3671,9.98062 -6.9977,6.63481 -1.5783,-1.1405 -1.714,-5.68346 -0.2115,-7.08615 1.6002,-1.49386 6.0337,-1.21628 7.2092,0.45134 z m 41.6972,-0.0646 c 2.2823,2.83691 1.2665,9.22438 -1.467,9.22438 -2.5528,0 -2.7646,-0.10092 -2.7646,-1.31744 0,-0.72458 -0.3625,-1.62784 -0.8057,-2.00723 -0.9741,-0.834 -1.087,-5.02921 -0.1612,-5.98441 0.8743,-0.90185 4.4517,-0.84356 5.1985,0.0847 z m -21.5275,3.23998 c 2.2525,2.32368 0.3603,6.5385 -2.9354,6.5385 -2.6293,0 -3.4029,-0.93212 -3.4029,-4.0999 0,-2.77615 4.3782,-4.46063 6.3383,-2.4386 z m -11.1726,4.16106 c 2.6955,1.02241 3.7111,5.60758 1.8496,8.34938 -1.3099,1.92919 -6.1839,1.78491 -7.7192,-0.22849 -3.2592,-4.27429 0.8871,-10.01082 5.8696,-8.12089 z m -119.5525,1.03175 c 2.256,2.3273 0.368,6.3327 -2.9851,6.3327 -2.43,0 -3.1537,-0.82649 -3.1537,-3.60172 0,-3.45951 3.7957,-5.1481 6.1388,-2.73098 z m 81.2959,3.3165 c 3.0161,2.17931 0.985,7.44909 -2.8711,7.44909 -2.2393,0 -3.4552,-1.49625 -3.4552,-4.25211 0,-3.66448 3.3419,-5.35331 6.3263,-3.19698 z m 107.841,4.9304 c 4.1795,4.31152 -1.4265,10.99267 -6.7551,8.05077 -1.5769,-0.87061 -2.447,-4.51873 -1.5879,-6.65823 1.2137,-3.02263 5.99,-3.81985 8.343,-1.39254 z m -82.8105,7.1102 c 3.0129,2.2727 -0.2142,7.47545 -3.8281,6.17182 -3.2779,-1.18238 -2.0544,-6.88455 1.4771,-6.88455 0.7733,0 1.8313,0.32073 2.351,0.71273 z m -57.8926,8.37184 c 0.9683,2.60339 -0.014,5.04206 -2.1044,5.21956 -3.1208,0.26508 -4.4743,-1.85756 -3.2622,-5.11597 0.4281,-1.15106 4.9445,-1.23824 5.3666,-0.10361 z m 33.9216,2.92548 c 1.6491,1.18671 1.7319,5.73582 0.1343,7.38386 -2.8651,2.95557 -7.7886,0.67876 -7.7886,-3.60173 0,-4.17444 4.2149,-6.25711 7.6543,-3.78213 z m -45.0931,0.29122 c 3.3712,3.47772 -1.4967,8.91495 -5.8364,6.51903 -3.0617,-1.69032 -0.9809,-7.18395 2.721,-7.18395 1.3589,0 2.7608,0.29922 3.1154,0.66492 z m 152.4442,0.67355 c 0.9244,2.48489 0.019,3.92558 -2.4667,3.92558 -2.6105,0 -3.1139,-0.68874 -2.4619,-3.36849 0.3833,-1.57501 4.3818,-2.02699 4.9286,-0.55709 z m -269.4527,0.84155 c 1.87514,3.61449 -1.34691,6.93834 -4.85067,5.00393 -1.20023,-0.66263 -1.46575,-4.3056 -0.39441,-5.41079 1.07133,-1.10521 4.60274,-0.83128 5.24508,0.40686 z m 194.0597,6.90156 c 2.6176,2.05001 1.8018,6.22613 -1.6697,8.54666 -4.2795,2.86063 -8.1313,1.70424 -8.1313,-2.44117 0,-1.66977 1.2782,-4.10488 2.1547,-4.10488 0.2652,0 1.0865,-0.62338 1.825,-1.38529 1.5022,-1.54962 4.2565,-1.84076 5.8213,-0.61532 z m -58.1438,0.33827 c 2.3256,2.39906 1.0052,5.54112 -2.3286,5.54112 -2.7447,0 -3.58,-0.72963 -3.58,-3.12702 0,-3.16013 3.7143,-4.6777 5.9086,-2.4141 z m -84.33138,2.77056 c 0,2.77056 0,2.77056 -2.41715,2.77056 -2.41714,0 -2.41714,0 -2.41714,-2.77056 0,-2.77056 0,-2.77056 2.41714,-2.77056 2.41715,0 2.41715,0 2.41715,2.77056 z m 168.84798,-1.20312 c 3.3498,3.81831 -2.2678,10.05781 -5.7868,6.42759 -1.2861,-1.32665 -1.1499,-6.12488 0.1948,-6.86731 1.6614,-0.91721 4.6048,-0.68577 5.592,0.43972 z m -194.73822,0.20572 c 1.93517,1.99626 0.39592,5.9844 -2.30966,5.9844 -2.17364,0 -2.95432,-0.87852 -2.95432,-3.32467 0,-3.03054 3.29213,-4.69394 5.26398,-2.65973 z m -42.32684,3.52435 c 0,2.52695 0,2.52695 -2.01429,2.35497 -3.30047,-0.28179 -3.4561,-4.88192 -0.16508,-4.88192 2.17937,0 2.17937,0 2.17937,2.52695 z m 127.73246,5.34143 c 2.0446,2.10917 0.375,5.98441 -2.5783,5.98441 -3.0137,0 -4.9966,-5.27452 -2.3731,-6.313 1.4252,-0.56422 4.2688,-0.3755 4.9514,0.32859 z m 411.5418,4.02667 c 2.7888,3.06229 0.4541,9.16119 -3.5069,9.16119 -3.657,0 -6.2703,-7.07262 -3.5512,-9.61108 1.5783,-1.47348 5.5363,-1.22119 7.0581,0.44989 z m -450.8899,3.31783 c 2.9993,3.09397 0.848,8.0598 -3.49139,8.0598 -3.07245,0 -4.32154,-1.43238 -4.32154,-4.95558 0,-4.40856 4.72772,-6.28695 7.81293,-3.10422 z m 408.89,3.38127 c 1.3125,0.94833 1.6357,3.89962 0.6378,5.82318 -0.7599,1.46469 -4.8073,1.50364 -6.0751,0.0585 -3.1096,-3.54474 1.6083,-8.64831 5.4373,-5.88165 z m -102.4747,2.18503 c 0,2.4935 0,2.4935 -2.4171,2.4935 -2.4171,0 -2.4171,0 -2.4171,-2.4935 0,-2.4935 0,-2.4935 2.4171,-2.4935 2.4171,0 2.4171,0 2.4171,2.4935 z m 71.9771,8.57817 c 0,3.03114 -1.0867,3.86939 -4.0286,3.10769 -3.0272,-0.78379 -1.8637,-5.86769 1.3429,-5.86769 2.6857,0 2.6857,0 2.6857,2.76 z m -22.8286,7.76812 c 0.9,1.0259 0.9039,1.10822 0.051,1.10822 -0.5063,0 -0.7712,0.24935 -0.5887,0.55412 0.2086,0.34808 -0.9898,0.55411 -3.2228,0.55411 -2.2332,0 -3.4314,-0.20603 -3.2229,-0.55411 0.1826,-0.30477 -0.1052,-0.56241 -0.6397,-0.57255 -0.841,-0.0159 -0.8012,-0.165 0.2964,-1.10822 1.7657,-1.51752 5.9881,-1.50689 7.3261,0.0184 z"
       id="path1115-9" />
  </g>
</svg>
